SplineFontDB: 3.0
FontName: HM_FTXkamran_Outline
FullName: HM_FTXkamran_Outline
FamilyName: HM_FTXkamran_Outline
Weight: Outline
Copyright: Copyright (c) Hossein, 2013. All rights reserved.
Version: 0.1
ItalicAngle: 0
UnderlinePosition: -540
UnderlineWidth: 60
Ascent: 1638
Descent: 410
sfntRevision: 0x00010000
LayerCount: 2
Layer: 0 1 "Back"  1
Layer: 1 1 "Fore"  0
XUID: [1021 102 1371595031 6992056]
FSType: 0
OS2Version: 2
OS2_WeightWidthSlopeOnly: 0
OS2_UseTypoMetrics: 1
CreationTime: 1194658560
ModificationTime: 1360912552
PfmFamily: 17
TTFWeight: 400
TTFWidth: 5
LineGap: 0
VLineGap: 0
Panose: 2 0 5 3 8 0 0 2 0 3
OS2TypoAscent: 2100
OS2TypoAOffset: 0
OS2TypoDescent: -1000
OS2TypoDOffset: 0
OS2TypoLinegap: 0
OS2WinAscent: 2100
OS2WinAOffset: 0
OS2WinDescent: 1000
OS2WinDOffset: 0
HheadAscent: 2100
HheadAOffset: 0
HheadDescent: -1000
HheadDOffset: 0
OS2SubXSize: 1434
OS2SubYSize: 1331
OS2SubXOff: 0
OS2SubYOff: 293
OS2SupXSize: 1434
OS2SupYSize: 1331
OS2SupXOff: 0
OS2SupYOff: 928
OS2StrikeYSize: 102
OS2StrikeYPos: 512
OS2Vendor: 'pars'
OS2CodePages: 20000051.41000000
OS2UnicodeRanges: 00002003.80000000.00000008.00000000
Lookup: 4 0 1 "gsub_ligature_dfl_liga_arab_FAR_Lookup_01"  {"gsub_ligature_dfl_liga_arab_FAR_Lookup_01_Subtable_01"  } ['liga' ('arab' <'FAR ' > ) ]
Lookup: 4 0 1 "gsub_ligature_dfl_liga_arab_FAR_Lookup_02"  {"gsub_ligature_dfl_liga_arab_FAR_Lookup_02_Subtable_01"  } ['liga' ('arab' <'FAR ' > ) ]
Lookup: 3 0 0 "gsub_alternate_dfl_aalt_arab_FAR_Lookup_01"  {"gsub_alternate_dfl_aalt_arab_FAR_Lookup_01_Subtable_01"  } ['aalt' ('arab' <'FAR ' > ) ]
Lookup: 1 1 0 "gsub_single_rtl_fina_arab_FAR_Lookup_01"  {"gsub_single_rtl_fina_arab_FAR_Lookup_01_Subtable_01"  } ['fina' ('arab' <'FAR ' > ) ]
Lookup: 1 1 0 "gsub_single_rtl_init_arab_FAR_Lookup_01"  {"gsub_single_rtl_init_arab_FAR_Lookup_01_Subtable_01"  } ['init' ('arab' <'FAR ' > ) ]

StartChar: .notdef
Encoding: 65536 -1 0
Width: 1122
GlyphClass: 2
Flags: W
LayerCount: 2
Fore
SplineSet
624 299 m 0,0,1
 624 269 624 269 602 246.5 c 128,-1,2
 580 224 580 224 548 224 c 0,3,4
 518 224 518 224 496.5 246.5 c 128,-1,5
 475 269 475 269 475 299 c 0,6,7
 475 331 475 331 496.5 352.5 c 128,-1,8
 518 374 518 374 551 374 c 0,9,10
 581 374 581 374 602.5 352.5 c 128,-1,11
 624 331 624 331 624 299 c 0,0,1
732 780 m 0,12,13
 732 737 732 737 708.5 710 c 128,-1,14
 685 683 685 683 648 683 c 0,15,16
 616 683 616 683 597 701.5 c 128,-1,17
 578 720 578 720 578 749 c 0,18,19
 578 770 578 770 588 785 c 128,-1,20
 598 800 598 800 610.5 810.5 c 128,-1,21
 623 821 623 821 633 829 c 128,-1,22
 643 837 643 837 643 843 c 0,23,24
 643 863 643 863 623.5 875 c 128,-1,25
 604 887 604 887 574 887 c 0,26,27
 536 887 536 887 512 866 c 128,-1,28
 488 845 488 845 488 813 c 0,29,30
 488 795 488 795 498.5 769 c 128,-1,31
 509 743 509 743 521.5 718 c 128,-1,32
 534 693 534 693 545.5 673 c 128,-1,33
 557 653 557 653 559 648 c 0,34,35
 570 619 570 619 576.5 583.5 c 128,-1,36
 583 548 583 548 583 513 c 0,37,38
 583 492 583 492 581.5 470.5 c 128,-1,39
 580 449 580 449 578 424 c 1,40,-1
 539 424 l 1,41,-1
 539 442 l 1,42,-1
 543 472 l 1,43,44
 543 505 543 505 498 544 c 0,45,46
 425 609 425 609 416 620 c 0,47,48
 371 673 371 673 371 740 c 0,49,50
 371 781 371 781 386 815.5 c 128,-1,51
 401 850 401 850 426.5 875.5 c 128,-1,52
 452 901 452 901 486.5 915 c 128,-1,53
 521 929 521 929 560 929 c 0,54,55
 595 929 595 929 626.5 918.5 c 128,-1,56
 658 908 658 908 681.5 888.5 c 128,-1,57
 705 869 705 869 718.5 841.5 c 128,-1,58
 732 814 732 814 732 780 c 0,12,13
132 31 m 1,59,-1
 992 31 l 1,60,-1
 992 1122 l 1,61,-1
 132 1122 l 1,62,-1
 132 31 l 1,59,-1
100 0 m 1,63,-1
 100 1154 l 1,64,-1
 1022 1154 l 1,65,-1
 1022 0 l 1,66,-1
 100 0 l 1,63,-1
EndSplineSet
EndChar

StartChar: exclam
Encoding: 33 33 4
Width: 544
VWidth: 1639
GlyphClass: 2
Flags: W
LayerCount: 2
Fore
SplineSet
124.599609375 1156.20019531 m 0,0,1
 128.8359375 1156.58007812 128.8359375 1156.58007812 162.319335938 1156.20019531 c 1,2,3
 201.88671875 1150.59082031 201.88671875 1150.59082031 206.599609375 1148 c 0,4,5
 239.755859375 1128.65917969 239.755859375 1128.65917969 244.82421875 1027.26660156 c 0,6,7
 245.517578125 1014.29882812 245.517578125 1014.29882812 245.959960938 1008.59960938 c 0,6,7
 273.7421875 761.959960938 273.7421875 761.959960938 273.83984375 529.719726562 c 0,8,9
 273.83984375 503.48046875 273.83984375 503.48046875 273.01953125 451.8203125 c 0,10,11
 272.216796875 399.590820312 272.216796875 399.590820312 272.200195312 373.919921875 c 0,10,11
 269.889648438 329.456054688 269.889648438 329.456054688 245.959960938 323.080078125 c 1,12,13
 165.462890625 312.181640625 165.462890625 312.181640625 147.559570312 349.3203125 c 1,14,15
 140.834960938 367.110351562 140.834960938 367.110351562 141 413.280273438 c 0,16,17
 141 436.240234375 141 436.240234375 143.459960938 481.33984375 c 0,18,19
 145.862304688 527.012695312 145.862304688 527.012695312 145.919921875 549.400390625 c 0,18,19
 145.77734375 663.626953125 145.77734375 663.626953125 121.319335938 946.280273438 c 0,20,21
 119.530273438 965.36328125 119.530273438 965.36328125 114.217773438 1003.53125 c 0,22,23
 105.068359375 1070.87011719 105.068359375 1070.87011719 104.919921875 1103.71972656 c 0,22,23
 104.919921875 1144.86816406 104.919921875 1144.86816406 115.099609375 1152.22949219 c 0,24,25
 120.278320312 1155.03320312 120.278320312 1155.03320312 124.599609375 1156.20019531 c 0,0,1
159.040039062 1102.08007812 m 1,24,25
 150.63671875 1099.37011719 150.63671875 1099.37011719 159.040039062 1064.36035156 c 1,26,27
 168.466796875 988.413085938 168.466796875 988.413085938 172.16015625 944.639648438 c 0,28,29
 174.620117188 911.01953125 174.620117188 911.01953125 180.359375 844.599609375 c 0,30,31
 186.126953125 777.616210938 186.126953125 777.616210938 188.559570312 744.559570312 c 0,30,31
 191.891601562 689.62109375 191.891601562 689.62109375 191.83984375 506.759765625 c 0,32,33
 191.83984375 496.036132812 191.83984375 496.036132812 189.48046875 471.962890625 c 0,34,35
 185.3203125 424.19921875 185.3203125 424.19921875 190.200195312 405.080078125 c 0,34,35
 197.755859375 376.764648438 197.755859375 376.764648438 211.51953125 375.559570312 c 1,36,37
 225.778320312 378.770507812 225.778320312 378.770507812 226.280273438 411.639648438 c 2,38,39
 226.280273438 531.360351562 l 2,40,41
 226.078125 759.326171875 226.078125 759.326171875 200.040039062 970.879882812 c 0,42,43
 198.490234375 981.212890625 198.490234375 981.212890625 196.676757812 1003.37011719 c 0,44,45
 192.109375 1053.17871094 192.109375 1053.17871094 183.639648438 1074.20019531 c 1,44,45
 165.8515625 1100.72460938 165.8515625 1100.72460938 159.040039062 1102.08007812 c 1,24,25
200.040039062 259.120117188 m 0,46,47
 293.599609375 268.833984375 293.599609375 268.833984375 326.319335938 226.3203125 c 0,48,49
 344.34375 201.767578125 344.34375 201.767578125 344.359375 145.959960938 c 0,50,51
 342.038085938 -7.671875 342.038085938 -7.671875 249.240234375 -22.9599609375 c 1,52,53
 157.907226562 -32.4736328125 157.907226562 -32.4736328125 121.319335938 8.2001953125 c 1,54,55
 100.126953125 36.4521484375 100.126953125 36.4521484375 100 95.1201171875 c 0,56,57
 100 224.295898438 100 224.295898438 178.109375 253.553710938 c 0,58,59
 189.4296875 257.40625 189.4296875 257.40625 200.040039062 259.120117188 c 0,46,47
231.200195312 209.919921875 m 0,58,59
 187.849609375 205.979492188 187.849609375 205.979492188 158.102539062 136.913085938 c 0,60,61
 156.576171875 133.236328125 156.576171875 133.236328125 155.759765625 131.200195312 c 0,60,61
 148.5 107.237304688 148.5 107.237304688 149.200195312 100.040039062 c 0,62,63
 151.243164062 61.216796875 151.243164062 61.216796875 185.40625 37.2392578125 c 0,64,65
 201.694335938 27.150390625 201.694335938 27.150390625 216.439453125 27.8798828125 c 0,64,65
 229.559570312 27.8798828125 229.559570312 27.8798828125 251.177734375 46.439453125 c 2,66,-1
 252.51953125 47.5595703125 l 1,66,67
 303.26953125 95.32421875 303.26953125 95.32421875 294.954101562 148.875 c 0,68,69
 294.1328125 153.190429688 294.1328125 153.190429688 293.51953125 155.799804688 c 0,68,69
 279.194335938 198.77734375 279.194335938 198.77734375 244.76953125 208.3984375 c 0,70,71
 237.141601562 210.001953125 237.141601562 210.001953125 231.200195312 209.919921875 c 0,58,59
EndSplineSet
EndChar

StartChar: percent
Encoding: 37 37 8
Width: 997
VWidth: 1639
GlyphClass: 2
Flags: W
LayerCount: 2
Fore
SplineSet
589.120117188 1277.55957031 m 0,0,1
 661.500976562 1285.38574219 661.500976562 1285.38574219 682.599609375 1262.79980469 c 0,2,3
 696.427734375 1245.80566406 696.427734375 1245.80566406 692.439453125 1193.91992188 c 1,4,5
 692.24609375 1095.3671875 692.24609375 1095.3671875 684.240234375 1028.28027344 c 0,6,7
 634.450195312 623.032226562 634.450195312 623.032226562 500.559570312 242.719726562 c 1,8,9
 447.836914062 101.166992188 447.836914062 101.166992188 420.200195312 32.7998046875 c 0,10,11
 401.088867188 -14.9765625 401.088867188 -14.9765625 392.009765625 -23.26953125 c 0,12,13
 381.724609375 -31.1171875 381.724609375 -31.1171875 371 -32.7998046875 c 0,12,13
 304.967773438 -36.3037109375 304.967773438 -36.3037109375 284.080078125 -22.9599609375 c 0,14,15
 253.888671875 -1.2041015625 253.888671875 -1.2041015625 266.040039062 67.240234375 c 0,16,17
 268.911132812 82.3125 268.911132812 82.3125 302.315429688 157.75 c 0,18,19
 305.219726562 164.454101562 305.219726562 164.454101562 307.040039062 168.919921875 c 0,18,19
 333.827148438 232.884765625 333.827148438 232.884765625 375.919921875 359.16015625 c 0,20,21
 472.391601562 651.80078125 472.391601562 651.80078125 526.799804688 952.83984375 c 1,22,23
 557.520507812 1104.84179688 557.520507812 1104.84179688 559.599609375 1198.83984375 c 0,24,25
 559.599609375 1257.41503906 559.599609375 1257.41503906 573.606445312 1270.10839844 c 0,26,27
 581.200195312 1275.61035156 581.200195312 1275.61035156 589.120117188 1277.55957031 c 0,0,1
216.83984375 1230 m 0,26,27
 316.874023438 1243.875 316.874023438 1243.875 351.319335938 1197.20019531 c 0,28,29
 367.705078125 1172.61621094 367.705078125 1172.61621094 367.719726562 1118.48046875 c 0,30,31
 365.446289062 967.674804688 365.446289062 967.674804688 279.16015625 949.559570312 c 1,32,33
 183.088867188 935.676757812 183.088867188 935.676757812 146.319335938 980.719726562 c 0,34,35
 125.131835938 1008.97167969 125.131835938 1008.97167969 125 1062.71972656 c 2,36,37
 125 1118.48046875 l 1,38,39
 137.1875 1189.17089844 137.1875 1189.17089844 190.3203125 1219.85644531 c 0,40,41
 204.057617188 1227.15332031 204.057617188 1227.15332031 216.83984375 1230 c 0,26,27
621.919921875 1225.08007812 m 0,40,41
 613.719726562 1223.44042969 613.719726562 1223.44042969 609.620117188 1211.95996094 c 0,42,43
 605.51953125 1200.48046875 605.51953125 1200.48046875 605.51953125 1179.98046875 c 2,44,-1
 605.51953125 1159.48046875 l 1,42,43
 595.6796875 1053.70019531 595.6796875 1053.70019531 580.919921875 947.919921875 c 1,44,45
 559.504882812 813.301757812 559.504882812 813.301757812 498.919921875 577.280273438 c 1,46,47
 440.94140625 361.189453125 440.94140625 361.189453125 393.959960938 231.240234375 c 0,48,49
 365.729492188 151.581054688 365.729492188 151.581054688 330 67.240234375 c 1,50,51
 314.422851562 17.90625 314.422851562 17.90625 339.83984375 19.6796875 c 1,52,53
 352.81640625 22.30859375 352.81640625 22.30859375 369.359375 68.8798828125 c 1,54,55
 411.8359375 169.001953125 411.8359375 169.001953125 434.959960938 234.51953125 c 0,56,57
 579.766601562 641.5703125 579.766601562 641.5703125 623.559570312 952.83984375 c 0,58,59
 643.126953125 1094.42675781 643.126953125 1094.42675781 644.879882812 1164.40039062 c 0,60,61
 644.879882812 1203.45898438 644.879882812 1203.45898438 641.990234375 1209.37011719 c 0,62,63
 639.728515625 1213.1953125 639.728515625 1213.1953125 638.319335938 1215.24023438 c 0,62,63
 630.354492188 1227.18847656 630.354492188 1227.18847656 621.919921875 1225.08007812 c 0,40,41
252.919921875 1180.79980469 m 0,64,65
 209.52734375 1172.53515625 209.52734375 1172.53515625 182.326171875 1110.04980469 c 0,66,67
 180.325195312 1105.23144531 180.325195312 1105.23144531 179.120117188 1102.08007812 c 0,66,67
 171.466796875 1075.29296875 171.466796875 1075.29296875 172.559570312 1067.63964844 c 0,68,69
 179.275390625 1027.34472656 179.275390625 1027.34472656 213.376953125 1006.02148438 c 0,70,71
 229.174804688 997.424804688 229.174804688 997.424804688 243.080078125 998.759765625 c 1,70,71
 264.4140625 1004.61621094 264.4140625 1004.61621094 284.080078125 1026.63964844 c 1,72,73
 326.877929688 1081.62988281 326.877929688 1081.62988281 318.51953125 1123.40039062 c 1,74,75
 308.596679688 1163.09277344 308.596679688 1163.09277344 275.392578125 1177.59667969 c 0,76,77
 263.219726562 1181.94238281 263.219726562 1181.94238281 252.919921875 1180.79980469 c 0,64,65
726.879882812 257.48046875 m 0,76,77
 824.6953125 267.681640625 824.6953125 267.681640625 856.439453125 224.6796875 c 0,78,79
 872.825195312 200.096679688 872.825195312 200.096679688 872.83984375 145.959960938 c 0,80,81
 870.540039062 -9.51953125 870.540039062 -9.51953125 779.359375 -24.599609375 c 1,82,83
 684.595703125 -34.4892578125 684.595703125 -34.4892578125 649.799804688 8.2001953125 c 0,84,85
 628.61328125 36.3857421875 628.61328125 36.3857421875 628.479492188 93.48046875 c 0,86,87
 628.479492188 224.744140625 628.479492188 224.744140625 707.03125 252.618164062 c 0,88,89
 717.400390625 255.946289062 717.400390625 255.946289062 726.879882812 257.48046875 c 0,76,77
759.6796875 208.280273438 m 0,88,89
 715.842773438 202.301757812 715.842773438 202.301757812 687.375 135.78515625 c 0,90,91
 685.421875 131.022460938 685.421875 131.022460938 684.240234375 127.919921875 c 0,90,91
 676.33984375 102.774414062 676.33984375 102.774414062 676.040039062 96.759765625 c 0,92,93
 682.79296875 56.240234375 682.79296875 56.240234375 715.940429688 34.0908203125 c 0,94,95
 732.923828125 24.1865234375 732.923828125 24.1865234375 748.200195312 26.240234375 c 0,94,95
 763.953125 29.2509765625 763.953125 29.2509765625 782.639648438 47.5595703125 c 0,96,97
 828.767578125 93.6875 828.767578125 93.6875 824.971679688 140.732421875 c 0,98,99
 824.328125 145.892578125 824.328125 145.892578125 823.639648438 149.240234375 c 0,98,99
 813.33984375 190.439453125 813.33984375 190.439453125 780.28515625 204.8671875 c 0,100,101
 769.135742188 208.844726562 769.135742188 208.844726562 759.6796875 208.280273438 c 0,88,89
EndSplineSet
EndChar

StartChar: parenleft
Encoding: 40 40 11
Width: 637
VWidth: 1639
GlyphClass: 2
Flags: W
LayerCount: 2
Fore
SplineSet
393.96875 1354.63964844 m 1,0,1
 459.58984375 1361.8359375 459.58984375 1361.8359375 485.80859375 1343.16015625 c 1,2,3
 505.075195312 1321.24023438 505.075195312 1321.24023438 503.848632812 1264.44042969 c 0,4,5
 503.380859375 1242.3984375 503.380859375 1242.3984375 500.568359375 1231.63964844 c 0,6,7
 495.124023438 1213.49023438 495.124023438 1213.49023438 455.12109375 1159.0078125 c 0,8,9
 447.565429688 1148.45800781 447.565429688 1148.45800781 443.168945312 1141.44042969 c 0,8,9
 393.848632812 1051.99316406 393.848632812 1051.99316406 361.168945312 954.48046875 c 0,10,11
 297.360351562 761.580078125 297.360351562 761.580078125 290.6484375 605.16015625 c 0,12,13
 287.171875 534.340820312 287.171875 534.340820312 305.409179688 421.48046875 c 1,14,15
 333.05078125 233.204101562 333.05078125 233.204101562 402.168945312 57.400390625 c 1,16,17
 439.6171875 -32.9736328125 439.6171875 -32.9736328125 480.888671875 -106.599609375 c 1,18,19
 525.081054688 -181.387695312 525.081054688 -181.387695312 531.178710938 -203.563476562 c 0,20,21
 533.874023438 -214.291015625 533.874023438 -214.291015625 535.008789062 -223.040039062 c 0,20,21
 543.3203125 -320.067382812 543.3203125 -320.067382812 505.48828125 -329.639648438 c 0,22,23
 497.873046875 -331.643554688 497.873046875 -331.643554688 474.329101562 -331.280273438 c 0,24,25
 436.586914062 -330.935546875 436.586914062 -330.935546875 430.048828125 -329.639648438 c 0,26,27
 389.078125 -317.590820312 389.078125 -317.590820312 343.12890625 -254.200195312 c 0,28,29
 280.44140625 -166.745117188 280.44140625 -166.745117188 213.568359375 8.2001953125 c 1,30,31
 0.412109375 588.770507812 0.412109375 588.770507812 187.329101562 1059.44042969 c 0,32,33
 249.848632812 1216.0625 249.848632812 1216.0625 302.12890625 1285.75976562 c 0,34,35
 348.294921875 1345.93945312 348.294921875 1345.93945312 393.96875 1354.63964844 c 1,0,1
426.768554688 1303.79980469 m 0,36,37
 417.049804688 1304.52929688 417.049804688 1304.52929688 400.528320312 1292.3203125 c 0,38,39
 375.158203125 1275.71679688 375.158203125 1275.71679688 348.048828125 1239.83984375 c 0,40,41
 287.203125 1157.28710938 287.203125 1157.28710938 221.768554688 980.719726562 c 0,42,43
 146.685546875 780.629882812 146.685546875 780.629882812 146.329101562 596.959960938 c 0,44,45
 146.977539062 319.616210938 146.977539062 319.616210938 282.44921875 0 c 1,46,47
 341.665039062 -145.190429688 341.665039062 -145.190429688 398.888671875 -221.400390625 c 0,48,49
 423.217773438 -253.505859375 423.217773438 -253.505859375 446.44921875 -268.959960938 c 0,50,51
 462.072265625 -279.634765625 462.072265625 -279.634765625 467.768554688 -280.440429688 c 0,52,53
 502.228515625 -277.720703125 502.228515625 -277.720703125 471.048828125 -214.83984375 c 0,54,55
 457.96875 -188.026367188 457.96875 -188.026367188 429.146484375 -135.341796875 c 0,56,57
 385.34765625 -54.8876953125 385.34765625 -54.8876953125 367.728515625 -13.1201171875 c 0,56,57
 197.55859375 381.17578125 197.55859375 381.17578125 260.828125 783.688476562 c 0,58,59
 277.318359375 886.8359375 277.318359375 886.8359375 308.688476562 982.360351562 c 0,58,59
 352.264648438 1109.125 352.264648438 1109.125 398.888671875 1190.63964844 c 0,60,61
 405.44921875 1201.29980469 405.44921875 1201.29980469 421.028320312 1221.79980469 c 0,62,63
 436.834960938 1242.90039062 436.834960938 1242.90039062 443.168945312 1252.95996094 c 0,62,63
 461.46484375 1281.71191406 461.46484375 1281.71191406 441.579101562 1297.99902344 c 0,64,65
 434.428710938 1302.47949219 434.428710938 1302.47949219 426.768554688 1303.79980469 c 0,36,37
EndSplineSet
EndChar

StartChar: parenright
Encoding: 41 41 12
Width: 736
VWidth: 1639
GlyphClass: 2
Flags: W
LayerCount: 2
Fore
SplineSet
139.360351562 1369.40039062 m 0,0,1
 195.55859375 1372.69042969 195.55859375 1372.69042969 214.80078125 1364.48046875 c 0,2,3
 257.318359375 1344.63476562 257.318359375 1344.63476562 300.080078125 1279.20019531 c 0,4,5
 355.40234375 1196.40039062 355.40234375 1196.40039062 418.16015625 1036.48046875 c 0,6,7
 587.606445312 611.8203125 587.606445312 611.8203125 512.557617188 206.365234375 c 0,8,9
 490.267578125 87.7724609375 490.267578125 87.7724609375 447.680664062 -19.6796875 c 0,8,9
 395.706054688 -153.060546875 395.706054688 -153.060546875 344.360351562 -229.599609375 c 0,10,11
 301.225585938 -292.040039062 301.225585938 -292.040039062 265.640625 -308.3203125 c 1,12,13
 235.770507812 -319.525390625 235.770507812 -319.525390625 185.280273438 -316.51953125 c 1,14,15
 134.581054688 -309.953125 134.581054688 -309.953125 131.16015625 -247.639648438 c 1,16,17
 132.125 -189.875976562 132.125 -189.875976562 147.560546875 -165.639648438 c 0,18,19
 314.518554688 74.5048828125 314.518554688 74.5048828125 340.70703125 372.549804688 c 0,20,21
 343.567382812 406.2890625 343.567382812 406.2890625 344.360351562 437.879882812 c 0,20,21
 346.015625 537.21875 346.015625 537.21875 319.760742188 680.599609375 c 1,22,23
 275.432617188 905.313476562 275.432617188 905.313476562 191.840820312 1070.91992188 c 0,24,25
 182.416015625 1090.21777344 182.416015625 1090.21777344 160.0546875 1128.44726562 c 0,26,27
 101.1875 1232.62988281 101.1875 1232.62988281 100 1290.6796875 c 0,26,27
 100 1348.68652344 100 1348.68652344 114.529296875 1361.02050781 c 0,28,29
 125.234375 1368.39550781 125.234375 1368.39550781 139.360351562 1369.40039062 c 0,0,1
167.240234375 1318.55957031 m 1,28,29
 133.27734375 1316.25585938 133.27734375 1316.25585938 162.3203125 1254.59960938 c 0,30,31
 175.424804688 1228.39160156 175.424804688 1228.39160156 203.489257812 1177.47851562 c 0,32,33
 249.118164062 1094.29589844 249.118164062 1094.29589844 267.280273438 1051.24023438 c 0,32,33
 435.83984375 657.232421875 435.83984375 657.232421875 377.3515625 266.108398438 c 0,34,35
 361.418945312 161.529296875 361.418945312 161.529296875 329.600585938 65.599609375 c 1,34,35
 282.775390625 -67.7373046875 282.775390625 -67.7373046875 242.680664062 -141.040039062 c 0,36,37
 233.379882812 -157.575195312 233.379882812 -157.575195312 212.1015625 -186.8359375 c 0,38,39
 199.194335938 -204.717773438 199.194335938 -204.717773438 193.48046875 -213.200195312 c 0,38,39
 173.331054688 -244.862304688 173.331054688 -244.862304688 194.052734375 -260.555664062 c 0,40,41
 200.374023438 -264.23828125 200.374023438 -264.23828125 206.600585938 -265.6796875 c 0,40,41
 213.630859375 -266.16015625 213.630859375 -266.16015625 232.840820312 -255.83984375 c 1,42,43
 261.6015625 -235.07421875 261.6015625 -235.07421875 286.959960938 -201.719726562 c 0,44,45
 347.43359375 -120.23828125 347.43359375 -120.23828125 416.520507812 63.9599609375 c 0,46,47
 496.26953125 278.471679688 496.26953125 278.471679688 487.040039062 485.440429688 c 0,48,49
 474.735351562 757.025390625 474.735351562 757.025390625 350.919921875 1043.04003906 c 0,50,51
 283.053710938 1197.98535156 283.053710938 1197.98535156 234.48046875 1261.16015625 c 1,52,53
 192.735351562 1318.55957031 192.735351562 1318.55957031 167.240234375 1318.55957031 c 1,28,29
EndSplineSet
EndChar

StartChar: plus
Encoding: 43 43 14
Width: 966
VWidth: 1639
GlyphClass: 2
Flags: W
LayerCount: 2
Fore
SplineSet
425.0078125 577.280273438 m 1,0,1
 408.877929688 663.772460938 408.877929688 663.772460938 382.3671875 790.48046875 c 1,2,3
 356.364257812 899.860351562 356.364257812 899.860351562 356.126953125 934.799804688 c 0,4,5
 357.205078125 970.89453125 357.205078125 970.89453125 362.6875 977.440429688 c 0,6,7
 371.46484375 984.61328125 371.46484375 984.61328125 398.767578125 984 c 0,8,9
 448.51171875 984 448.51171875 984 453 982.624023438 c 0,10,11
 466.458984375 977.123046875 466.458984375 977.123046875 474.20703125 967.599609375 c 0,10,11
 486.185546875 952.35546875 486.185546875 952.35546875 501.021484375 883.7734375 c 0,12,13
 501.748046875 880.530273438 501.748046875 880.530273438 502.086914062 879.040039062 c 0,12,13
 534.942382812 747.2578125 534.942382812 747.2578125 548.0078125 680.599609375 c 0,14,15
 557.138671875 637.46484375 557.138671875 637.46484375 561.126953125 610.080078125 c 1,16,17
 567.150390625 584.453125 567.150390625 584.453125 569.327148438 582.200195312 c 0,18,19
 575.516601562 577.331054688 575.516601562 577.331054688 595.567382812 577.280273438 c 0,20,21
 643.588867188 577.16796875 643.588867188 577.16796875 666.086914062 575.639648438 c 0,22,23
 783.04296875 568.712890625 783.04296875 568.712890625 835.0078125 564.16015625 c 0,24,25
 906.677734375 559.422851562 906.677734375 559.422851562 926.84765625 551.040039062 c 1,26,27
 958.506835938 528.397460938 958.506835938 528.397460938 958.0078125 464.120117188 c 1,28,29
 954.982421875 436.895507812 954.982421875 436.895507812 952.8515625 434.361328125 c 0,30,31
 947.450195312 429.951171875 947.450195312 429.951171875 941.607421875 428.040039062 c 0,30,31
 918.80078125 424.239257812 918.80078125 424.239257812 828.143554688 433.698242188 c 0,32,33
 822.341796875 434.2734375 822.341796875 434.2734375 818.607421875 434.599609375 c 0,32,33
 638.083984375 446.01953125 638.083984375 446.01953125 587.3671875 446.080078125 c 1,34,35
 587.484375 439.8359375 587.484375 439.8359375 597.20703125 306.6796875 c 0,36,37
 598.924804688 275.853515625 598.924804688 275.853515625 598.84765625 137.759765625 c 0,38,39
 598.65234375 69.736328125 598.65234375 69.736328125 597.20703125 57.400390625 c 0,40,41
 592.78125 34.080078125 592.78125 34.080078125 587.3671875 27.8798828125 c 0,42,43
 563.444335938 7.2998046875 563.444335938 7.2998046875 497.166992188 16.400390625 c 1,44,45
 479.670898438 21.0439453125 479.670898438 21.0439453125 472.567382812 32.7998046875 c 1,46,47
 470.366210938 40.9267578125 470.366210938 40.9267578125 470.927734375 82 c 2,48,49
 470.927734375 182.040039062 l 1,50,51
 466.046875 270.682617188 466.046875 270.682617188 456.166992188 362.440429688 c 0,52,53
 446.328125 447.62109375 446.328125 447.62109375 446.327148438 447.719726562 c 0,54,55
 258.352539062 447.534179688 258.352539062 447.534179688 144.567382812 434.599609375 c 0,56,57
 84.90234375 428.15625 84.90234375 428.15625 54.3671875 428.040039062 c 0,58,59
 28.5 428.963867188 28.5 428.963867188 21.5673828125 432.959960938 c 1,60,61
 5.5380859375 449.094726562 5.5380859375 449.094726562 8.447265625 483.799804688 c 1,62,63
 8.447265625 530.581054688 8.447265625 530.581054688 12.853515625 538.74609375 c 0,64,65
 21.21484375 550.350585938 21.21484375 550.350585938 34.6875 554.3203125 c 0,64,65
 61.9404296875 561.33984375 61.9404296875 561.33984375 169.166992188 569.080078125 c 0,66,67
 276.926757812 577.243164062 276.926757812 577.243164062 425.0078125 577.280273438 c 1,0,1
413.52734375 934.799804688 m 1,68,69
 407.852539062 927.069335938 407.852539062 927.069335938 411.887695312 906.919921875 c 0,70,71
 423.357421875 853.912109375 423.357421875 853.912109375 428.287109375 836.400390625 c 0,72,73
 463.489257812 675.918945312 463.489257812 675.918945312 477.487304688 587.120117188 c 0,74,75
 479.126953125 578.099609375 479.126953125 578.099609375 478.307617188 559.240234375 c 0,76,77
 477.803710938 539.893554688 477.803710938 539.893554688 479.126953125 531.360351562 c 1,76,77
 326.651367188 531.236328125 326.651367188 531.236328125 154.407226562 518.240234375 c 0,78,79
 102.551757812 514.46875 102.551757812 514.46875 78.9677734375 508.400390625 c 0,80,81
 60.1611328125 502.225585938 60.1611328125 502.225585938 59.287109375 490.360351562 c 1,82,83
 64.0234375 478.258789062 64.0234375 478.258789062 87.1669921875 478.879882812 c 0,84,85
 96.8876953125 479.528320312 96.8876953125 479.528320312 116.893554688 481.854492188 c 0,86,87
 148.220703125 485.317382812 148.220703125 485.317382812 162.607421875 485.440429688 c 0,86,87
 438.129882812 493.616210938 438.129882812 493.616210938 492.247070312 493.639648438 c 1,88,89
 492.247070312 489.877929688 492.247070312 489.877929688 504.009765625 391.83203125 c 0,90,91
 504.874023438 384.21484375 504.874023438 384.21484375 505.3671875 378.83984375 c 0,90,91
 518.3828125 240.563476562 518.3828125 240.563476562 518.487304688 170.559570312 c 2,92,-1
 518.487304688 93.48046875 l 1,93,94
 520.61328125 72.4443359375 520.61328125 72.4443359375 528.327148438 68.8798828125 c 1,95,96
 541.04296875 66.865234375 541.04296875 66.865234375 549.647460938 85.2802734375 c 1,97,98
 553.314453125 97.83203125 553.314453125 97.83203125 552.927734375 154.16015625 c 0,99,100
 552.8046875 242.658203125 552.8046875 242.658203125 544.727539062 350.959960938 c 0,101,102
 540.391601562 427.06640625 540.391601562 427.06640625 534.887695312 447.719726562 c 1,103,104
 539.807617188 452.639648438 539.807617188 452.639648438 535.180664062 469.517578125 c 2,105,-1
 534.887695312 470.6796875 l 1,105,106
 539.807617188 475.599609375 539.807617188 475.599609375 535.180664062 492.477539062 c 2,107,-1
 534.887695312 493.639648438 l 1,107,-1
 794.0078125 485.440429688 l 1,108,-1
 866.166992188 480.51953125 l 1,109,-1
 905.52734375 478.879882812 l 1,110,111
 896.799804688 506.517578125 896.799804688 506.517578125 842.640625 512.278320312 c 0,112,113
 835.840820312 513.026367188 835.840820312 513.026367188 833.3671875 513.3203125 c 0,112,113
 709.703125 529.590820312 709.703125 529.590820312 607.047851562 529.719726562 c 0,114,115
 563.860351562 529.842773438 563.860351562 529.842773438 543.086914062 531.360351562 c 0,116,117
 541.39453125 531.923828125 541.39453125 531.923828125 536.280273438 532.2890625 c 0,118,119
 526.009765625 534.051757812 526.009765625 534.051757812 523.407226562 536.280273438 c 0,118,119
 521.001953125 539.772460938 521.001953125 539.772460938 516.84765625 560.879882812 c 0,120,121
 506.27734375 610.752929688 506.27734375 610.752929688 503.727539062 628.120117188 c 0,122,123
 486.930664062 709.834960938 486.930664062 709.834960938 452.887695312 842.959960938 c 0,124,125
 437.139648438 905.951171875 437.139648438 905.951171875 427.333007812 919.875976562 c 0,126,127
 420.27734375 928.8828125 420.27734375 928.8828125 413.52734375 934.799804688 c 1,68,69
EndSplineSet
EndChar

StartChar: hyphen
Encoding: 45 45 16
AltUni2: 002212.ffffffff.0 0000ad.ffffffff.0
Width: 1192
VWidth: 1639
GlyphClass: 2
Flags: W
LayerCount: 2
Fore
SplineSet
478.4765625 564.16015625 m 0,0,1
 483.092773438 564.513671875 483.092773438 564.513671875 565.397460938 564.16015625 c 0,2,3
 669.223632812 564.108398438 669.223632812 564.108398438 719.556640625 562.51953125 c 0,4,5
 747.052734375 561.2109375 747.052734375 561.2109375 802.012695312 559.522460938 c 0,6,7
 953.78515625 554.6484375 953.78515625 554.6484375 1027.87695312 542.83984375 c 1,6,7
 1071.42675781 524.4296875 1071.42675781 524.4296875 1072.15722656 455.919921875 c 1,8,9
 1070.40429688 421.12890625 1070.40429688 421.12890625 1060.67675781 416.559570312 c 0,10,11
 1039.765625 407.8828125 1039.765625 407.8828125 986.876953125 416.559570312 c 1,12,13
 894.525390625 426.05859375 894.525390625 426.05859375 842.556640625 429.6796875 c 0,14,15
 706.01171875 438.798828125 706.01171875 438.798828125 548.997070312 436.240234375 c 0,16,17
 529.86328125 435.693359375 529.86328125 435.693359375 491.596679688 435.329101562 c 0,18,19
 414.516601562 434.471679688 414.516601562 434.471679688 376.796875 431.3203125 c 0,18,19
 219.502929688 416.971679688 219.502929688 416.971679688 216.077148438 416.559570312 c 0,20,21
 161.39453125 408.163085938 161.39453125 408.163085938 140.63671875 416.559570312 c 1,22,23
 112.680664062 433.705078125 112.680664062 433.705078125 122.596679688 510.040039062 c 0,24,25
 124.171875 527.354492188 124.171875 527.354492188 134.077148438 534.639648438 c 0,26,27
 146.232421875 542.677734375 146.232421875 542.677734375 183.27734375 546.120117188 c 0,28,29
 265.823242188 555.896484375 265.823242188 555.896484375 306.27734375 557.599609375 c 2,30,-1
 414.516601562 562.51953125 l 2,31,32
 423.654296875 563.22265625 423.654296875 563.22265625 441.928710938 562.821289062 c 0,33,34
 466.840820312 562.548828125 466.840820312 562.548828125 478.4765625 564.16015625 c 0,0,1
1019.67675781 464.120117188 m 1,33,34
 1011.61132812 491.827148438 1011.61132812 491.827148438 972.1171875 498.559570312 c 0,35,36
 946.814453125 502.30859375 946.814453125 502.30859375 896.208007812 505.521484375 c 0,37,38
 857.70703125 508.041992188 857.70703125 508.041992188 839.27734375 510.040039062 c 0,37,38
 818.248046875 512.440429688 818.248046875 512.440429688 675.27734375 516.599609375 c 0,39,40
 561.439453125 519.780273438 561.439453125 519.780273438 337.4375 510.040039062 c 0,41,42
 267.794921875 507.053710938 267.794921875 507.053710938 216.077148438 498.559570312 c 0,43,44
 180.7734375 492.7421875 180.7734375 492.7421875 175.077148438 483.799804688 c 1,45,46
 173.4375 477.240234375 173.4375 477.240234375 173.4375 473.139648438 c 0,47,48
 173.4375 469.040039062 173.4375 469.040039062 181.63671875 468.219726562 c 0,49,50
 189.836914062 467.400390625 189.836914062 467.400390625 194.756835938 466.580078125 c 0,51,52
 199.676757812 465.759765625 199.676757812 465.759765625 207.876953125 466.580078125 c 2,53,-1
 216.077148438 467.400390625 l 2,47,48
 339.1484375 478.788085938 339.1484375 478.788085938 375.157226562 478.879882812 c 0,49,50
 423.151367188 478.879882812 423.151367188 478.879882812 518.598632812 481.310546875 c 0,51,52
 671.349609375 485.09375 671.349609375 485.09375 747.4375 482.16015625 c 0,51,52
 806.323242188 480.326171875 806.323242188 480.326171875 911.4375 473.959960938 c 1,53,54
 1019.67675781 464.120117188 l 1,33,34
EndSplineSet
EndChar

StartChar: period
Encoding: 46 46 17
Width: 544
VWidth: 1639
GlyphClass: 2
Flags: W
LayerCount: 2
Fore
SplineSet
200.040039062 259.120117188 m 0,0,1
 293.599609375 268.833984375 293.599609375 268.833984375 326.319335938 226.3203125 c 0,2,3
 344.34375 201.767578125 344.34375 201.767578125 344.359375 145.959960938 c 0,4,5
 342.038085938 -7.671875 342.038085938 -7.671875 249.240234375 -22.9599609375 c 1,6,7
 157.907226562 -32.4736328125 157.907226562 -32.4736328125 121.319335938 8.2001953125 c 1,8,9
 100.126953125 36.4521484375 100.126953125 36.4521484375 100 95.1201171875 c 0,10,11
 100 224.295898438 100 224.295898438 178.109375 253.553710938 c 0,12,13
 189.4296875 257.40625 189.4296875 257.40625 200.040039062 259.120117188 c 0,0,1
231.200195312 209.919921875 m 0,12,13
 187.849609375 205.979492188 187.849609375 205.979492188 158.102539062 136.913085938 c 0,14,15
 156.576171875 133.236328125 156.576171875 133.236328125 155.759765625 131.200195312 c 0,14,15
 148.5 107.237304688 148.5 107.237304688 149.200195312 100.040039062 c 0,16,17
 151.243164062 61.216796875 151.243164062 61.216796875 185.40625 37.2392578125 c 0,18,19
 201.694335938 27.150390625 201.694335938 27.150390625 216.439453125 27.8798828125 c 0,18,19
 229.559570312 27.8798828125 229.559570312 27.8798828125 251.177734375 46.439453125 c 2,20,-1
 252.51953125 47.5595703125 l 1,20,21
 303.26953125 95.32421875 303.26953125 95.32421875 294.954101562 148.875 c 0,22,23
 294.1328125 153.190429688 294.1328125 153.190429688 293.51953125 155.799804688 c 0,22,23
 279.194335938 198.77734375 279.194335938 198.77734375 244.76953125 208.3984375 c 0,24,25
 237.141601562 210.001953125 237.141601562 210.001953125 231.200195312 209.919921875 c 0,12,13
EndSplineSet
EndChar

StartChar: slash
Encoding: 47 47 18
Width: 519
VWidth: 1639
GlyphClass: 2
Flags: W
LayerCount: 2
Fore
SplineSet
407.014648438 1416.95996094 m 0,0,1
 415.490234375 1418.921875 415.490234375 1418.921875 443.094726562 1418.59960938 c 0,2,3
 486.322265625 1418.59960938 486.322265625 1418.59960938 495.073242188 1413.0859375 c 0,4,5
 498.6875 1410.33398438 498.6875 1410.33398438 500.494140625 1408.75976562 c 0,4,5
 512.99609375 1394.55273438 512.99609375 1394.55273438 508.694335938 1346.44042969 c 1,6,7
 507.609375 1306.27539062 507.609375 1306.27539062 470.32421875 1186.56054688 c 0,8,9
 465.711914062 1171.58398438 465.711914062 1171.58398438 462.774414062 1161.12011719 c 0,8,9
 459.884765625 1150.421875 459.884765625 1150.421875 242.423828125 387.263671875 c 0,10,11
 230.474609375 345.311523438 230.474609375 345.311523438 220.0546875 308.3203125 c 0,10,11
 173.952148438 140.493164062 173.952148438 140.493164062 149.534179688 57.400390625 c 0,12,13
 147.934570312 51.9619140625 147.934570312 51.9619140625 145.180664062 39.4638671875 c 0,14,15
 130.716796875 -16.09375 130.716796875 -16.09375 103.614257812 -21.3203125 c 1,14,15
 41.064453125 -24.837890625 41.064453125 -24.837890625 21.6142578125 -11.48046875 c 0,16,17
 -0.2685546875 5.8818359375 -0.2685546875 5.8818359375 3.57421875 62.3203125 c 0,18,19
 6.78125 101.874023438 6.78125 101.874023438 44.3896484375 234.580078125 c 0,20,21
 45.337890625 237.92578125 45.337890625 237.92578125 46.21484375 241.080078125 c 0,20,21
 87.21484375 382.940429688 87.21484375 382.940429688 169.21484375 667.48046875 c 0,22,23
 251.372070312 952.5625 251.372070312 952.5625 292.21484375 1093.87988281 c 0,22,23
 303.694335938 1134.87988281 303.694335938 1134.87988281 327.474609375 1216.05957031 c 0,24,25
 351.397460938 1297.80078125 351.397460938 1297.80078125 362.734375 1338.24023438 c 0,24,25
 364.360351562 1343.44433594 364.360351562 1343.44433594 367.301757812 1355.71386719 c 0,26,27
 382.400390625 1410.54492188 382.400390625 1410.54492188 407.014648438 1416.95996094 c 0,0,1
444.734375 1367.75976562 m 1,26,27
 434.89453125 1367.75976562 434.89453125 1367.75976562 429.154296875 1357.91992188 c 0,28,29
 423.4140625 1348.08007812 423.4140625 1348.08007812 418.494140625 1330.04003906 c 2,30,-1
 413.57421875 1312 l 2,28,29
 404.5546875 1280.01953125 404.5546875 1280.01953125 386.514648438 1216.87988281 c 0,30,31
 368.319335938 1153.17480469 368.319335938 1153.17480469 359.454101562 1121.75976562 c 0,30,31
 320.9140625 987.280273438 320.9140625 987.280273438 243.833984375 719.139648438 c 0,32,33
 166.59765625 450.44921875 166.59765625 450.44921875 128.21484375 316.51953125 c 0,32,33
 117.5546875 280.440429688 117.5546875 280.440429688 97.0546875 208.280273438 c 0,34,35
 76.380859375 135.573242188 76.380859375 135.573242188 65.89453125 100.040039062 c 0,34,35
 51.796875 53.0478515625 51.796875 53.0478515625 57.08984375 42.6943359375 c 1,36,37
 63.2666015625 34.9443359375 63.2666015625 34.9443359375 72.4541015625 32.7998046875 c 0,36,37
 80.654296875 31.16015625 80.654296875 31.16015625 86.4619140625 44.3955078125 c 2,38,-1
 87.21484375 45.919921875 l 2,38,39
 91.4287109375 56.4560546875 91.4287109375 56.4560546875 97.1005859375 78.689453125 c 0,40,41
 100.408203125 91.39453125 100.408203125 91.39453125 101.974609375 96.759765625 c 0,40,41
 112.634765625 132.83984375 112.634765625 132.83984375 133.134765625 205.8203125 c 0,42,43
 153.806640625 279.330078125 153.806640625 279.330078125 164.294921875 314.879882812 c 0,42,43
 284.762695312 732.752929688 284.762695312 732.752929688 390.614257812 1118.48046875 c 1,44,45
 441.359375 1293.96777344 441.359375 1293.96777344 444.734375 1307.08007812 c 0,46,47
 457.348632812 1351.23046875 457.348632812 1351.23046875 455.879882812 1357.98632812 c 1,48,49
 451.483398438 1366.10449219 451.483398438 1366.10449219 444.734375 1367.75976562 c 1,26,27
EndSplineSet
EndChar

StartChar: colon
Encoding: 58 58 29
Width: 638
VWidth: 1639
GlyphClass: 2
Flags: W
LayerCount: 2
Fore
SplineSet
231.19921875 670.759765625 m 0,0,1
 327.34765625 676.729492188 327.34765625 676.729492188 362.399414062 637.959960938 c 1,2,3
 392.997070312 599.467773438 392.997070312 599.467773438 390.279296875 528.080078125 c 1,4,5
 389.895507812 466.313476562 389.895507812 466.313476562 385.359375 446.080078125 c 0,6,7
 370.362304688 383.946289062 370.362304688 383.946289062 315.620117188 353.491210938 c 0,8,9
 295.806640625 343.249023438 295.806640625 343.249023438 277.119140625 341.120117188 c 0,8,9
 173.234375 332.536132812 173.234375 332.536132812 129.51953125 380.48046875 c 1,10,11
 100.197265625 417.013671875 100.197265625 417.013671875 100 488.719726562 c 0,12,13
 100.33203125 544.54296875 100.33203125 544.54296875 103.279296875 559.240234375 c 0,14,15
 125.900390625 645.198242188 125.900390625 645.198242188 207.439453125 666.4921875 c 0,16,17
 219.873046875 669.479492188 219.873046875 669.479492188 231.19921875 670.759765625 c 0,0,1
252.51953125 621.559570312 m 0,16,17
 200.625976562 613.451171875 200.625976562 613.451171875 165.233398438 555.379882812 c 0,18,19
 145.564453125 521.30078125 145.564453125 521.30078125 147.559570312 492 c 1,18,19
 157.612304688 426.04296875 157.612304688 426.04296875 211.51953125 400.16015625 c 0,20,21
 234.887695312 389.48046875 234.887695312 389.48046875 245.959960938 390.3203125 c 0,22,23
 270.323242188 395.440429688 270.323242188 395.440429688 296.799804688 421.48046875 c 0,24,25
 355.692382812 482.748046875 355.692382812 482.748046875 339.439453125 546.120117188 c 1,26,27
 319.82421875 607.767578125 319.82421875 607.767578125 276.138671875 620.086914062 c 0,28,29
 263.681640625 622.879882812 263.681640625 622.879882812 252.51953125 621.559570312 c 0,16,17
213.159179688 560.879882812 m 0,28,29
 216.916992188 562.758789062 216.916992188 562.758789062 225.428710938 562.216796875 c 0,30,31
 232.102539062 562.188476562 232.102539062 562.188476562 234.479492188 562.51953125 c 0,30,31
 280.526367188 562.51953125 280.526367188 562.51953125 289.065429688 555.752929688 c 0,32,33
 292.151367188 552.6171875 292.151367188 552.6171875 293.51953125 551.040039062 c 0,32,33
 310.065429688 529.379882812 310.065429688 529.379882812 300.079101562 462.48046875 c 1,34,35
 295.100585938 446.212890625 295.100585938 446.212890625 283.6796875 442.799804688 c 0,36,37
 276.895507812 440.681640625 276.895507812 440.681640625 260.719726562 441.16015625 c 0,38,39
 213.200195312 441.16015625 213.200195312 441.16015625 204.372070312 445.693359375 c 0,40,41
 196.064453125 451.359375 196.064453125 451.359375 191.83984375 457.559570312 c 0,40,41
 191.478515625 459.49609375 191.478515625 459.49609375 188.559570312 485.440429688 c 1,42,43
 188.559570312 543.90625 188.559570312 543.90625 201.936523438 555.370117188 c 0,44,45
 207.888671875 559.321289062 207.888671875 559.321289062 213.159179688 560.879882812 c 0,28,29
247.599609375 506.759765625 m 1,44,-1
 244.319335938 506.759765625 l 1,45,-1
 245.959960938 493.639648438 l 1,46,-1
 247.599609375 493.639648438 l 1,47,-1
 247.599609375 506.759765625 l 1,44,-1
270.559570312 305.040039062 m 0,48,49
 369.604492188 314.640625 369.604492188 314.640625 408.319335938 273.879882812 c 1,50,51
 437.63671875 239.208984375 437.63671875 239.208984375 437.83984375 164 c 0,52,53
 437.456054688 101.134765625 437.456054688 101.134765625 432.919921875 82 c 0,54,55
 414.921875 12.259765625 414.921875 12.259765625 353.114257812 -15.64453125 c 0,56,57
 337.560546875 -22.166015625 337.560546875 -22.166015625 323.040039062 -24.599609375 c 0,56,57
 223.517578125 -36.3994140625 223.517578125 -36.3994140625 177.079101562 14.759765625 c 1,58,59
 147.845703125 51.578125 147.845703125 51.578125 147.559570312 121.360351562 c 0,60,61
 147.877929688 179.432617188 147.877929688 179.432617188 150.83984375 195.16015625 c 0,62,63
 170.703125 272.407226562 170.703125 272.407226562 242.587890625 298.172851562 c 0,64,65
 257.061523438 302.998046875 257.061523438 302.998046875 270.559570312 305.040039062 c 0,48,49
306.639648438 255.83984375 m 0,64,65
 268.8984375 256.649414062 268.8984375 256.649414062 234.479492188 216.48046875 c 0,66,67
 178.463867188 154.669921875 178.463867188 154.669921875 204.862304688 90.130859375 c 0,68,69
 217.927734375 61.6259765625 217.927734375 61.6259765625 244.319335938 42.6396484375 c 0,68,69
 266.583007812 27.708984375 266.583007812 27.708984375 288.599609375 24.599609375 c 1,70,71
 313.66015625 25.740234375 313.66015625 25.740234375 346 57.400390625 c 0,72,73
 386.930664062 97.3505859375 386.930664062 97.3505859375 390.279296875 149.240234375 c 0,74,75
 394.017578125 201.568359375 394.017578125 201.568359375 352.235351562 237.182617188 c 0,76,77
 330.258789062 254.423828125 330.258789062 254.423828125 306.639648438 255.83984375 c 0,64,65
259.079101562 195.16015625 m 0,76,77
 264.997070312 197.217773438 264.997070312 197.217773438 282.040039062 196.799804688 c 0,78,79
 325.916992188 196.799804688 325.916992188 196.799804688 332.844726562 193.096679688 c 0,80,81
 339.416992188 188.264648438 339.416992188 188.264648438 342.719726562 183.6796875 c 0,80,81
 356.6875 158.18359375 356.6875 158.18359375 347.639648438 96.759765625 c 1,82,83
 342.978515625 82.0537109375 342.978515625 82.0537109375 331.239257812 77.080078125 c 0,84,85
 324.33984375 75.0361328125 324.33984375 75.0361328125 308.279296875 75.4404296875 c 0,86,87
 258.533203125 75.4404296875 258.533203125 75.4404296875 247.965820312 83.0478515625 c 0,88,89
 243.407226562 87.2314453125 243.407226562 87.2314453125 241.040039062 90.2001953125 c 0,88,89
 235.796875 98.4248046875 235.796875 98.4248046875 236.119140625 119.719726562 c 0,90,91
 236.119140625 172.729492188 236.119140625 172.729492188 243.508789062 183.873046875 c 0,92,93
 250.69921875 192.143554688 250.69921875 192.143554688 259.079101562 195.16015625 c 0,76,77
295.159179688 141.040039062 m 1,92,-1
 291.879882812 141.040039062 l 1,93,94
 290.354492188 132.90625 290.354492188 132.90625 295.159179688 127.919921875 c 1,95,-1
 295.159179688 141.040039062 l 1,92,-1
EndSplineSet
EndChar

StartChar: equal
Encoding: 61 61 32
Width: 1021
VWidth: 1639
GlyphClass: 2
Flags: W
LayerCount: 2
Fore
SplineSet
477.06640625 626.48046875 m 0,0,1
 481.698242188 626.815429688 481.698242188 626.815429688 568.90625 626.48046875 c 0,2,3
 692.419921875 626.392578125 692.419921875 626.392578125 752.586914062 623.200195312 c 0,4,5
 834.263671875 619.6640625 834.263671875 619.6640625 872.306640625 615 c 0,6,7
 913.793945312 611.54296875 913.793945312 611.54296875 931.346679688 605.16015625 c 1,8,9
 979.665039062 572.5546875 979.665039062 572.5546875 980.546875 488.719726562 c 1,10,11
 978.365234375 439.7734375 978.365234375 439.7734375 955.946289062 431.3203125 c 0,12,13
 955.946289062 429.6796875 955.946289062 429.6796875 931.346679688 430.5 c 2,14,-1
 906.74609375 431.3203125 l 2,14,15
 877.2265625 431.3203125 877.2265625 431.3203125 818.186523438 437.174804688 c 0,16,17
 768.986328125 442.0546875 768.986328125 442.0546875 744.38671875 442.799804688 c 0,16,17
 535.83984375 451.887695312 535.83984375 451.887695312 299.946289062 436.240234375 c 0,18,19
 219.678710938 430.95703125 219.678710938 430.95703125 145.786132812 421.48046875 c 1,20,21
 70.5693359375 408.943359375 70.5693359375 408.943359375 44.1064453125 419.83984375 c 1,22,23
 7.017578125 447.826171875 7.017578125 447.826171875 8.0263671875 533 c 0,24,25
 9.6220703125 572.694335938 9.6220703125 572.694335938 27.70703125 587.120117188 c 1,26,27
 46.18359375 598.455078125 46.18359375 598.455078125 96.5869140625 601.879882812 c 1,28,29
 127.42578125 606.318359375 127.42578125 606.318359375 263.866210938 618.280273438 c 0,30,31
 291.419921875 620.92578125 291.419921875 620.92578125 411.466796875 624.83984375 c 0,32,33
 467.18359375 625.077148438 467.18359375 625.077148438 477.06640625 626.48046875 c 0,0,1
524.626953125 580.559570312 m 0,34,35
 511.506835938 578.685546875 511.506835938 578.685546875 485.266601562 579.221679688 c 0,36,37
 465.040039062 579.491210938 465.040039062 579.491210938 455.74609375 578.919921875 c 0,36,37
 437.37890625 578.263671875 437.37890625 578.263671875 400.642578125 575.90234375 c 0,38,39
 345.538085938 572.360351562 345.538085938 572.360351562 317.986328125 572.360351562 c 0,38,39
 282.8828125 572.181640625 282.8828125 572.181640625 181.866210938 560.879882812 c 0,40,41
 96.5732421875 551.147460938 96.5732421875 551.147460938 90.0263671875 549.400390625 c 0,42,43
 54.3447265625 538.993164062 54.3447265625 538.993164062 59.439453125 504.0234375 c 0,44,45
 62.6591796875 481.920898438 62.6591796875 481.920898438 83.466796875 469.040039062 c 0,44,45
 96.62890625 462.78515625 96.62890625 462.78515625 142.506835938 472.3203125 c 1,46,47
 185.278320312 477.012695312 185.278320312 477.012695312 276.986328125 483.799804688 c 0,48,49
 401.135742188 491.967773438 401.135742188 491.967773438 573.826171875 492 c 2,50,51
 711.586914062 492 l 1,52,53
 737.006835938 490.360351562 737.006835938 490.360351562 787.026367188 487.900390625 c 0,54,55
 837.616210938 485.38671875 837.616210938 485.38671875 862.466796875 483.799804688 c 0,54,55
 910.934570312 478.415039062 910.934570312 478.415039062 911.569335938 478.515625 c 0,56,57
 915.452148438 479.1328125 915.452148438 479.1328125 918.2265625 480.51953125 c 0,56,57
 936.388671875 491.568359375 936.388671875 491.568359375 926.426757812 519.879882812 c 1,58,59
 907.755859375 555.66015625 907.755859375 555.66015625 867.38671875 564.16015625 c 0,60,61
 803.53515625 575.504882812 803.53515625 575.504882812 647.626953125 578.919921875 c 1,62,63
 544.504882812 583.044921875 544.504882812 583.044921875 524.626953125 580.559570312 c 0,34,35
463.946289062 395.240234375 m 0,64,65
 468.537109375 395.518554688 468.537109375 395.518554688 572.186523438 395.240234375 c 0,66,67
 732.911132812 395.157226562 732.911132812 395.157226562 764.06640625 393.599609375 c 0,68,69
 855.588867188 390.091796875 855.588867188 390.091796875 898.546875 385.400390625 c 0,70,71
 940.8203125 381.619140625 940.8203125 381.619140625 959.2265625 377.200195312 c 0,72,73
 1011.453125 359.791015625 1011.453125 359.791015625 1013.20117188 279.116210938 c 0,74,75
 1013.34472656 270.8828125 1013.34472656 270.8828125 1013.34667969 259.120117188 c 0,74,75
 1013.34667969 215.768554688 1013.34667969 215.768554688 998.887695312 206.276367188 c 0,76,77
 993.379882812 203.299804688 993.379882812 203.299804688 988.74609375 201.719726562 c 0,76,77
 964.126953125 195.088867188 964.126953125 195.088867188 895.266601562 203.360351562 c 0,78,79
 893.48828125 203.501953125 893.48828125 203.501953125 765.70703125 213.200195312 c 0,80,81
 599.362304688 224.712890625 599.362304688 224.712890625 342.586914062 206.639648438 c 0,82,83
 285.197265625 203.16796875 285.197265625 203.16796875 175.306640625 190.240234375 c 0,84,85
 102.619140625 182.342773438 102.619140625 182.342773438 78.546875 190.240234375 c 1,86,87
 40.9423828125 218.786132812 40.9423828125 218.786132812 42.466796875 301.759765625 c 0,88,89
 44.052734375 342.659179688 44.052734375 342.659179688 58.8662109375 355.879882812 c 1,90,91
 74.12890625 366.962890625 74.12890625 366.962890625 121.186523438 370.639648438 c 1,92,93
 194.978515625 380.704101562 194.978515625 380.704101562 262.2265625 385.400390625 c 0,94,95
 287.646484375 387.040039062 287.646484375 387.040039062 337.666992188 389.5 c 0,96,97
 388.256835938 392.012695312 388.256835938 392.012695312 413.106445312 393.599609375 c 0,96,97
 420.125976562 394.301757812 420.125976562 394.301757812 434.80859375 393.90234375 c 0,98,99
 455.0390625 393.69140625 455.0390625 393.69140625 463.946289062 395.240234375 c 0,64,65
511.506835938 349.3203125 m 1,98,99
 496.567382812 347.245117188 496.567382812 347.245117188 348.91015625 341.924804688 c 0,100,101
 338.762695312 341.529296875 338.762695312 341.529296875 331.106445312 341.120117188 c 0,100,101
 235.481445312 334.174804688 235.481445312 334.174804688 191.70703125 328 c 0,102,103
 183.939453125 326.890625 183.939453125 326.890625 167.967773438 325.416015625 c 0,104,105
 135.893554688 322.157226562 135.893554688 322.157226562 121.186523438 318.16015625 c 0,104,105
 83.330078125 304.9921875 83.330078125 304.9921875 94.6240234375 268.259765625 c 0,106,107
 101.103515625 251.650390625 101.103515625 251.650390625 114.626953125 241.080078125 c 0,106,107
 124.184570312 233.645507812 124.184570312 233.645507812 167.606445312 240.49609375 c 0,108,109
 170.71484375 240.916015625 170.71484375 240.916015625 172.026367188 241.080078125 c 0,108,109
 196.626953125 243.540039062 196.626953125 243.540039062 245.826171875 247.639648438 c 0,110,111
 295.573242188 251.8125 295.573242188 251.8125 319.626953125 254.200195312 c 0,110,111
 469.497070312 267.340820312 469.497070312 267.340820312 768.986328125 260.759765625 c 1,112,113
 851.485351562 257.255859375 851.485351562 257.255859375 888.70703125 254.200195312 c 0,114,115
 893.703125 253.74609375 893.703125 253.74609375 905.5078125 251.780273438 c 0,116,117
 939.189453125 246.874023438 939.189453125 246.874023438 951.026367188 250.919921875 c 0,116,117
 972.759765625 260.787109375 972.759765625 260.787109375 959.2265625 290.280273438 c 0,118,119
 940.9609375 325.397460938 940.9609375 325.397460938 896.90625 334.559570312 c 1,120,121
 795.907226562 349.28125 795.907226562 349.28125 629.586914062 349.3203125 c 2,122,123
 511.506835938 349.3203125 l 1,98,99
EndSplineSet
EndChar

StartChar: bracketleft
Encoding: 91 91 62
Width: 700
VWidth: 1639
GlyphClass: 2
Flags: W
LayerCount: 2
Fore
SplineSet
100 1651.48046875 m 1,0,-1
 600.19921875 1651.48046875 l 1,1,-1
 600.19921875 1548.16015625 l 1,2,-1
 268.919921875 1548.16015625 l 1,3,-1
 268.919921875 -401.799804688 l 1,4,-1
 600.19921875 -401.799804688 l 1,5,-1
 600.19921875 -503.48046875 l 1,6,-1
 100 -503.48046875 l 1,7,-1
 100 1651.48046875 l 1,0,-1
554.279296875 1605.55957031 m 1,8,-1
 145.919921875 1605.55957031 l 1,9,-1
 145.919921875 -457.559570312 l 1,10,-1
 554.279296875 -457.559570312 l 1,11,-1
 554.279296875 -447.719726562 l 1,12,-1
 223 -447.719726562 l 1,13,-1
 223 1594.08007812 l 1,14,-1
 554.279296875 1594.08007812 l 1,15,-1
 554.279296875 1605.55957031 l 1,8,-1
EndSplineSet
EndChar

StartChar: bracketright
Encoding: 93 93 64
Width: 799
VWidth: 1639
GlyphClass: 2
Flags: W
LayerCount: 2
Fore
SplineSet
100 1651.48046875 m 1,0,-1
 598.559570312 1651.48046875 l 1,1,-1
 598.559570312 -503.48046875 l 1,2,-1
 100 -503.48046875 l 1,3,-1
 100 -401.799804688 l 1,4,-1
 429.639648438 -401.799804688 l 1,5,-1
 429.639648438 1548.16015625 l 1,6,-1
 100 1548.16015625 l 1,7,-1
 100 1651.48046875 l 1,0,-1
552.639648438 1605.55957031 m 1,8,-1
 145.919921875 1605.55957031 l 1,9,-1
 145.919921875 1594.08007812 l 1,10,-1
 475.559570312 1594.08007812 l 1,11,-1
 475.559570312 -447.719726562 l 1,12,-1
 145.919921875 -447.719726562 l 1,13,-1
 145.919921875 -457.559570312 l 1,14,-1
 552.639648438 -457.559570312 l 1,15,-1
 552.639648438 1605.55957031 l 1,8,-1
EndSplineSet
EndChar

StartChar: guillemotleft
Encoding: 171 171 175
Width: 765
VWidth: 1639
GlyphClass: 2
Flags: W
LayerCount: 2
Fore
SplineSet
405.499023438 29.51953125 m 1,0,1
 405.499023438 -21.46875 405.499023438 -21.46875 404.491210938 -24.525390625 c 0,2,3
 403.014648438 -27.9443359375 403.014648438 -27.9443359375 402.21875 -29.51953125 c 0,2,3
 394.340820312 -38.2880859375 394.340820312 -38.2880859375 361.21875 -37.7197265625 c 0,4,5
 321.91796875 -37.38671875 321.91796875 -37.38671875 315.298828125 -36.080078125 c 0,6,7
 291.017578125 -28.9384765625 291.017578125 -28.9384765625 255.583007812 17.9033203125 c 0,8,9
 253.6171875 20.482421875 253.6171875 20.482421875 252.979492188 21.3203125 c 0,8,9
 110.333984375 211.255859375 110.333984375 211.255859375 100.458984375 401.799804688 c 1,10,11
 93.3779296875 606.524414062 93.3779296875 606.524414062 195.579101562 746.200195312 c 0,12,13
 232.678710938 798.139648438 232.678710938 798.139648438 251.416015625 808.192382812 c 0,14,15
 256.302734375 810.537109375 256.302734375 810.537109375 259.5390625 811.799804688 c 0,14,15
 272.818359375 815.301757812 272.818359375 815.301757812 310.37890625 815.080078125 c 0,16,17
 348.286132812 813.397460938 348.286132812 813.397460938 356.298828125 801.959960938 c 0,18,19
 361.185546875 795.444335938 361.185546875 795.444335938 359.436523438 758.826171875 c 0,20,21
 359.221679688 754.333984375 359.221679688 754.333984375 359.579101562 751.120117188 c 1,20,21
 376.77734375 791.249023438 376.77734375 791.249023438 414.046875 810.124023438 c 0,22,23
 418.852539062 812.307617188 418.852539062 812.307617188 421.899414062 813.440429688 c 0,22,23
 432.026367188 815.342773438 432.026367188 815.342773438 469.458984375 815.080078125 c 0,24,25
 507.415039062 815.080078125 507.415039062 815.080078125 515.119140625 802.432617188 c 0,26,27
 516.495117188 799.737304688 516.495117188 799.737304688 517.01953125 798.6796875 c 0,26,27
 518.893554688 793.994140625 518.893554688 793.994140625 518.357421875 784.623046875 c 0,28,29
 517.956054688 777.594726562 517.956054688 777.594726562 518.659179688 774.080078125 c 0,28,29
 518.107421875 736.125 518.107421875 736.125 517.01953125 733.080078125 c 0,30,31
 512.935546875 720.013671875 512.935546875 720.013671875 474.877929688 673.252929688 c 0,32,33
 468.1640625 664.690429688 468.1640625 664.690429688 464.5390625 659.280273438 c 0,32,33
 399.905273438 555.865234375 399.905273438 555.865234375 387.458984375 437.879882812 c 1,34,35
 385.973632812 407.815429688 385.973632812 407.815429688 395.659179688 355.879882812 c 0,36,37
 418.958984375 247.306640625 418.958984375 247.306640625 490.779296875 137.759765625 c 0,38,39
 506.750976562 113.228515625 506.750976562 113.228515625 538.338867188 72.16015625 c 0,40,41
 561.501953125 43.837890625 561.501953125 43.837890625 564.579101562 32.7998046875 c 0,42,43
 565.563476562 24.927734375 565.563476562 24.927734375 563.98828125 9.18359375 c 0,44,45
 562.939453125 -1.3115234375 562.939453125 -1.3115234375 562.939453125 -6.5595703125 c 0,44,45
 561.678710938 -26.89453125 561.678710938 -26.89453125 559.659179688 -29.51953125 c 0,46,47
 551.833984375 -38.29296875 551.833984375 -38.29296875 517.01953125 -37.7197265625 c 0,48,49
 480.267578125 -37.36328125 480.267578125 -37.36328125 474.37890625 -36.080078125 c 0,50,51
 434.654296875 -24.396484375 434.654296875 -24.396484375 409.916015625 23.6923828125 c 0,52,53
 408.095703125 27.4384765625 408.095703125 27.4384765625 407.138671875 29.51953125 c 1,52,-1
 405.499023438 29.51953125 l 1,0,1
302.178710938 764.240234375 m 1,53,54
 288.026367188 757.497070312 288.026367188 757.497070312 262.819335938 728.16015625 c 0,55,56
 226.140625 683.899414062 226.140625 683.899414062 197.21875 626.48046875 c 0,57,58
 141.291992188 514.625 141.291992188 514.625 148.01953125 418.200195312 c 0,59,60
 156.5 316.9375 156.5 316.9375 230.01953125 178.759765625 c 0,61,62
 257.2109375 127.51171875 257.2109375 127.51171875 284.138671875 86.919921875 c 0,63,64
 307.361328125 53.224609375 307.361328125 53.224609375 320.21875 42.6396484375 c 1,65,66
 310.859375 57.71875 310.859375 57.71875 291.127929688 87.25390625 c 0,67,68
 248.330078125 151.831054688 248.330078125 151.831054688 231.659179688 186.959960938 c 0,67,68
 153.036132812 360.393554688 153.036132812 360.393554688 190.9375 539.44140625 c 0,69,70
 197.641601562 570.05078125 197.641601562 570.05078125 207.05859375 596.959960938 c 0,69,70
 221.990234375 641.75390625 221.990234375 641.75390625 285.697265625 738.510742188 c 0,71,72
 295.604492188 753.65625 295.604492188 753.65625 302.178710938 764.240234375 c 1,53,54
461.258789062 764.240234375 m 1,71,72
 446.131835938 756.338867188 446.131835938 756.338867188 418.619140625 724.879882812 c 1,73,74
 375.168945312 669.8203125 375.168945312 669.8203125 349.739257812 615 c 0,75,76
 301.217773438 504.587890625 301.217773438 504.587890625 307.098632812 414.919921875 c 1,77,78
 315.4765625 316.896484375 315.4765625 316.896484375 390.739257812 175.48046875 c 0,79,80
 417.818359375 122.00390625 417.818359375 122.00390625 446.499023438 82 c 0,81,82
 472.162109375 48.7177734375 472.162109375 48.7177734375 477.659179688 44.2802734375 c 1,83,84
 469.346679688 57.404296875 469.346679688 57.404296875 452.302734375 82.8837890625 c 0,85,86
 405.862304688 152.94921875 405.862304688 152.94921875 389.098632812 191.879882812 c 0,85,86
 310.395507812 367.806640625 310.395507812 367.806640625 351.374023438 547.859375 c 0,87,88
 358.331054688 577.465820312 358.331054688 577.465820312 367.779296875 603.51953125 c 0,87,88
 385.345703125 649.946289062 385.345703125 649.946289062 455.9765625 756.243164062 c 0,89,90
 459.254882812 761.194335938 459.254882812 761.194335938 461.258789062 764.240234375 c 1,71,72
297.258789062 644.51953125 m 1,89,90
 279.91796875 627.509765625 279.91796875 627.509765625 254.619140625 559.240234375 c 0,91,92
 190.594726562 385.487304688 190.594726562 385.487304688 300.5390625 186.959960938 c 0,93,94
 346.440429688 104.862304688 346.440429688 104.862304688 371.05859375 83.6396484375 c 1,95,96
 299.854492188 218.5546875 299.854492188 218.5546875 285.912109375 258.821289062 c 0,97,98
 284.741210938 262.255859375 284.741210938 262.255859375 284.138671875 264.040039062 c 0,97,98
 224.611328125 453.4609375 224.611328125 453.4609375 297.258789062 644.51953125 c 1,89,90
372.69921875 82 m 1,99,-1
 371.05859375 80.3603515625 l 1,100,-1
 372.69921875 82 l 1,99,-1
480.939453125 41 m 1,101,-1
 482.579101562 37.7197265625 l 1,102,-1
 480.939453125 41 l 1,101,-1
323.499023438 39.3603515625 m 1,103,-1
 325.138671875 36.080078125 l 1,104,-1
 323.499023438 39.3603515625 l 1,103,-1
EndSplineSet
EndChar

StartChar: guillemotright
Encoding: 187 187 176
Width: 826
VWidth: 1639
GlyphClass: 2
Flags: W
LayerCount: 2
Fore
SplineSet
397.97265625 583.83984375 m 1,0,1
 443.951171875 484.670898438 443.951171875 484.670898438 455.373046875 419.83984375 c 0,2,3
 482.133789062 273.002929688 482.133789062 273.002929688 429.1328125 101.6796875 c 0,4,5
 411.803710938 47.7138671875 411.803710938 47.7138671875 393.052734375 9.83984375 c 0,6,7
 379.145507812 -18.73046875 379.145507812 -18.73046875 361.893554688 -31.16015625 c 1,8,9
 347.9609375 -37.9208984375 347.9609375 -37.9208984375 315.97265625 -37.7197265625 c 0,10,11
 273.776367188 -37.7197265625 273.776367188 -37.7197265625 266.173828125 -31.310546875 c 0,12,13
 263.202148438 -28.017578125 263.202148438 -28.017578125 261.853515625 -26.240234375 c 0,12,13
 259.852539062 -21.9443359375 259.852539062 -21.9443359375 256.932617188 3.2802734375 c 1,14,15
 257.318359375 37.4677734375 257.318359375 37.4677734375 258.573242188 42.6396484375 c 0,16,17
 261.180664062 54.703125 261.180664062 54.703125 286.453125 100.040039062 c 1,18,19
 345.393554688 225.766601562 345.393554688 225.766601562 337.29296875 328 c 1,20,21
 319.833984375 483.412109375 319.833984375 483.412109375 209.373046875 621.559570312 c 1,22,23
 162.862304688 674.49609375 162.862304688 674.49609375 138.853515625 698.639648438 c 0,24,25
 135.453125 702.040039062 135.453125 702.040039062 127.354492188 708.966796875 c 0,26,27
 107.081054688 727.36328125 107.081054688 727.36328125 101.1328125 738 c 0,26,27
 99.990234375 742.504882812 99.990234375 742.504882812 101.1328125 759.3203125 c 0,28,29
 101.1328125 763.028320312 101.1328125 763.028320312 100.28125 772.150390625 c 0,30,31
 98.6962890625 801.810546875 98.6962890625 801.810546875 106.052734375 808.51953125 c 0,30,31
 128.567382812 826.53125 128.567382812 826.53125 184.5 814.3046875 c 0,32,33
 187.100585938 813.673828125 187.100585938 813.673828125 188.052734375 813.440429688 c 0,32,33
 217.026367188 805.9140625 217.026367188 805.9140625 263.493164062 759.3203125 c 1,34,35
 254.85546875 793.333007812 254.85546875 793.333007812 265.1328125 808.51953125 c 0,36,37
 266.7734375 810.16015625 266.7734375 810.16015625 270.052734375 811.799804688 c 0,38,39
 273.333007812 813.440429688 273.333007812 813.440429688 278.252929688 814.259765625 c 0,40,41
 283.172851562 815.080078125 283.172851562 815.080078125 284.813476562 815.080078125 c 0,42,43
 286.453125 815.080078125 286.453125 815.080078125 293.012695312 815.080078125 c 2,44,-1
 299.573242188 815.080078125 l 2,38,39
 306.58203125 814.641601562 306.58203125 814.641601562 319.959960938 814.701171875 c 0,40,41
 355.4375 813.965820312 355.4375 813.965820312 371.733398438 805.240234375 c 0,40,41
 380.39453125 799.671875 380.39453125 799.671875 422.573242188 760.959960938 c 0,42,43
 501.8828125 688.18359375 501.8828125 688.18359375 555.413085938 592.040039062 c 0,44,45
 672.092773438 375.349609375 672.092773438 375.349609375 597.138671875 121.34375 c 0,46,47
 594.928710938 113.963867188 594.928710938 113.963867188 593.1328125 108.240234375 c 0,46,47
 575.1171875 49.3671875 575.1171875 49.3671875 555.413085938 11.48046875 c 0,48,49
 538.109375 -23.2021484375 538.109375 -23.2021484375 519.333007812 -32.7998046875 c 0,50,51
 507.313476562 -37.951171875 507.313476562 -37.951171875 476.693359375 -37.7197265625 c 0,52,53
 435.474609375 -37.7197265625 435.474609375 -37.7197265625 428.620117188 -32.541015625 c 0,54,55
 425.548828125 -29.435546875 425.548828125 -29.435546875 424.212890625 -27.8798828125 c 0,54,55
 416.8671875 -14.80078125 416.8671875 -14.80078125 419.29296875 22.9599609375 c 0,56,57
 419.29296875 44.828125 419.29296875 44.828125 446.319335938 96.7958984375 c 0,58,59
 448.0234375 100.125 448.0234375 100.125 448.813476562 101.6796875 c 0,58,59
 473.975585938 158.373046875 473.975585938 158.373046875 484.893554688 203.360351562 c 0,60,61
 518.354492188 344 518.354492188 344 452.092773438 490.360351562 c 1,62,63
 418.811523438 559.47265625 418.811523438 559.47265625 397.97265625 583.83984375 c 1,0,1
215.932617188 715.040039062 m 1,64,65
 218.624023438 708.557617188 218.624023438 708.557617188 230.693359375 697 c 0,66,67
 236.432617188 689.620117188 236.432617188 689.620117188 247.913085938 675.6796875 c 0,68,69
 259.834960938 661.116210938 259.834960938 661.116210938 265.1328125 654.360351562 c 0,68,69
 308.249023438 599.171875 308.249023438 599.171875 342.212890625 526.440429688 c 0,70,71
 415.254882812 366.66015625 415.254882812 366.66015625 375.467773438 179.307617188 c 0,72,73
 371.40234375 160.694335938 371.40234375 160.694335938 366.813476562 144.3203125 c 0,72,73
 363.112304688 131.366210938 363.112304688 131.366210938 322.787109375 39.529296875 c 0,74,75
 316.698242188 25.412109375 316.698242188 25.412109375 312.693359375 14.759765625 c 1,74,75
 332.557617188 23.4853515625 332.557617188 23.4853515625 347.1328125 55.759765625 c 1,76,77
 370.64453125 101.602539062 370.64453125 101.602539062 391.413085938 175.48046875 c 0,78,79
 417.7421875 265.025390625 417.7421875 265.025390625 416.012695312 329.639648438 c 0,80,81
 406.12890625 524.13671875 406.12890625 524.13671875 215.932617188 715.040039062 c 1,64,65
381.573242188 711.759765625 m 1,82,83
 383.466796875 707.14453125 383.466796875 707.14453125 396.333007812 692.080078125 c 0,84,85
 416.459960938 668.384765625 416.459960938 668.384765625 425.853515625 656 c 0,86,87
 478.6953125 581.942382812 478.6953125 581.942382812 504.573242188 524.799804688 c 0,88,89
 580.19921875 345.818359375 580.19921875 345.818359375 530.84765625 153.948242188 c 0,90,91
 529.799804688 149.950195312 529.799804688 149.950195312 529.172851562 147.599609375 c 0,90,91
 525.34375 133.720703125 525.34375 133.720703125 484.677734375 41.1474609375 c 0,92,93
 477.787109375 25.162109375 477.787109375 25.162109375 473.413085938 13.1201171875 c 1,92,93
 494.063476562 26.599609375 494.063476562 26.599609375 511.1328125 60.6796875 c 0,94,95
 533.650390625 108.408203125 533.650390625 108.408203125 553.7734375 177.120117188 c 1,96,97
 579.764648438 281.0859375 579.764648438 281.0859375 578.373046875 321.440429688 c 0,98,99
 571.918945312 515.05078125 571.918945312 515.05078125 391.78515625 701.374023438 c 0,100,101
 385.90234375 707.408203125 385.90234375 707.408203125 381.573242188 711.759765625 c 1,82,83
394.693359375 592.040039062 m 1,100,-1
 393.052734375 590.400390625 l 1,101,-1
 394.693359375 592.040039062 l 1,100,-1
396.333007812 588.759765625 m 1,102,-1
 396.333007812 583.83984375 l 1,103,-1
 397.97265625 583.83984375 l 1,104,-1
 396.333007812 588.759765625 l 1,102,-1
EndSplineSet
EndChar

StartChar: guilsinglleft
Encoding: 8249 8249 195
Width: 566
GlyphClass: 2
Flags: W
LayerCount: 2
Fore
SplineSet
350 70 m 1,0,1
 363 48 363 48 363 35 c 0,2,3
 363 26 363 26 352 26 c 0,4,5
 343 26 343 26 326 33 c 1,6,7
 273 73 273 73 230 128 c 128,-1,8
 187 183 187 183 155 255 c 0,9,10
 126 321 126 321 113.5 385 c 128,-1,11
 101 449 101 449 100 513 c 1,12,13
 100 656 100 656 164 783 c 1,14,15
 231 904 231 904 327 958 c 1,16,17
 354 969 354 969 358 969 c 0,18,19
 366 969 366 969 366 963 c 0,20,21
 366 953 366 953 343 912 c 1,22,23
 224 746 224 746 224 513 c 0,24,25
 224 249 224 249 350 70 c 1,0,1
EndSplineSet
EndChar

StartChar: guilsinglright
Encoding: 8250 8250 196
Width: 569
GlyphClass: 2
Flags: W
LayerCount: 2
Fore
SplineSet
115 70 m 1,0,1
 244 249 244 249 244 513 c 0,2,3
 244 751 244 751 122 913 c 1,4,5
 100 954 100 954 100 963 c 0,6,7
 100 969 100 969 108 969 c 0,8,9
 110 969 110 969 118 966.5 c 128,-1,10
 126 964 126 964 137 958 c 0,11,12
 188 931 188 931 228.5 887 c 128,-1,13
 269 843 269 843 301 783 c 0,14,15
 336 718 336 718 352 650.5 c 128,-1,16
 368 583 368 583 369 513 c 0,17,18
 369 450 369 450 353.5 385 c 128,-1,19
 338 320 338 320 309 255 c 0,20,21
 279 188 279 188 235 130 c 128,-1,22
 191 72 191 72 138 33 c 1,23,24
 124 26 124 26 113 26 c 0,25,26
 101 26 101 26 101 35 c 0,27,28
 101 47 101 47 115 70 c 1,0,1
EndSplineSet
EndChar

StartChar: afii57451
Encoding: 1611 1611 311
AltUni2: 00fe70.ffffffff.0
Width: -47
VWidth: 1639
GlyphClass: 2
Flags: HW
AnchorPoint: "GposMark2BaseAnchorHamzaErabAbove_01_01" 152.471 1338.91 mark 0
AnchorPoint: "GposMark2BaseAnchorHamzaErabBelow_01_01" 152.471 1688.89 mark 0
AnchorPoint: "GposMark2BaseAnchorClassErabAbove_01_02" 152.471 1338.91 mark 0
AnchorPoint: "GposMark2MarkAnchorHamzaErabAbove_01_01" 152.471 1338.91 mark 0
AnchorPoint: "GposMark2MarkAnchorHamzaErabBelow_01_01" 152.471 1688.89 mark 0
AnchorPoint: "GposMark2MarkAnchorShaddaErabAbove_01_02" 152.471 1338.91 mark 0
AnchorPoint: "GposMark2MarkAnchorShaddaErabBelow_01_02" 152.471 1688.89 mark 0
LayerCount: 2
Fore
SplineSet
2.4873046875 1457.95996094 m 1,0,1
 -41.2861328125 1458.96386719 -41.2861328125 1458.96386719 -51.6328125 1466.16015625 c 1,2,3
 -66.8154296875 1485.27539062 -66.8154296875 1485.27539062 -64.7529296875 1535.04003906 c 0,4,5
 -63.29296875 1560.58007812 -63.29296875 1560.58007812 -56.552734375 1566.20019531 c 0,6,7
 -41.59765625 1578.1640625 -41.59765625 1578.1640625 31.048828125 1601.40332031 c 0,8,9
 35.841796875 1602.98242188 35.841796875 1602.98242188 38.56640625 1603.91992188 c 0,10,11
 62.3466796875 1612.94042969 62.3466796875 1612.94042969 109.907226562 1631.79980469 c 0,12,13
 158.013671875 1650.84960938 158.013671875 1650.84960938 181.247070312 1659.6796875 c 0,14,15
 187.889648438 1661.89453125 187.889648438 1661.89453125 201.671875 1667.87109375 c 0,16,17
 229.99609375 1679.58496094 229.99609375 1679.58496094 243.56640625 1681 c 0,18,19
 296.387695312 1688.88769531 296.387695312 1688.88769531 317.3671875 1674.44042969 c 1,20,21
 323.926757812 1667.87988281 323.926757812 1667.87988281 327.20703125 1658.04003906 c 128,-1,22
 330.487304688 1648.20019531 330.487304688 1648.20019531 331.306640625 1642.45996094 c 128,-1,23
 332.126953125 1636.71972656 332.126953125 1636.71972656 331.306640625 1621.13964844 c 2,24,-1
 330.487304688 1605.55957031 l 2,25,26
 329.639648438 1584.25976562 329.639648438 1584.25976562 327.20703125 1579.3203125 c 0,27,28
 322.481445312 1572.70703125 322.481445312 1572.70703125 300.966796875 1562.91992188 c 1,29,30
 352.985351562 1572.00585938 352.985351562 1572.00585938 368.20703125 1541.59960938 c 1,31,32
 371.756835938 1530.58789062 371.756835938 1530.58789062 371.487304688 1498.95996094 c 0,33,34
 370.2265625 1463.39453125 370.2265625 1463.39453125 363.287109375 1456.3203125 c 0,35,36
 352.534179688 1448.26660156 352.534179688 1448.26660156 328.846679688 1441.55957031 c 1,37,38
 297.686523438 1428.20605469 297.686523438 1428.20605469 261.606445312 1415.3203125 c 0,39,40
 240.287109375 1407.12011719 240.287109375 1407.12011719 198.01171875 1389.62695312 c 0,41,42
 112.864257812 1354.58203125 112.864257812 1354.58203125 69.7265625 1341.51953125 c 0,43,44
 69.7265625 1339.87988281 69.7265625 1339.87988281 58.2470703125 1340.70019531 c 2,45,-1
 46.7666015625 1341.51953125 l 1,46,47
 -3.6201171875 1338.91308594 -3.6201171875 1338.91308594 -15.552734375 1354.63964844 c 0,48,49
 -23.9638671875 1367.62792969 -23.9638671875 1367.62792969 -23.7529296875 1395.63964844 c 0,50,51
 -23.7529296875 1438.95898438 -23.7529296875 1438.95898438 -16.388671875 1447.22851562 c 0,52,53
 -8.294921875 1454.18457031 -8.294921875 1454.18457031 2.4873046875 1456.3203125 c 1,54,-1
 2.4873046875 1457.95996094 l 1,0,1
-12.2734375 1520.28027344 m 1,55,56
 -3.697265625 1508.02832031 -3.697265625 1508.02832031 39.4775390625 1526.29101562 c 0,57,58
 43.3818359375 1527.83496094 43.3818359375 1527.83496094 45.126953125 1528.48046875 c 0,59,60
 73.0068359375 1539.13964844 73.0068359375 1539.13964844 129.586914062 1561.28027344 c 0,61,62
 186.692382812 1583.61132812 186.692382812 1583.61132812 214.046875 1594.08007812 c 0,63,64
 236.176757812 1601.62988281 236.176757812 1601.62988281 259.966796875 1612.12011719 c 0,65,66
 273.673828125 1618.09765625 273.673828125 1618.09765625 274.7265625 1620.3203125 c 0,67,68
 275.911132812 1626.24316406 275.911132812 1626.24316406 268.686523438 1626.5625 c 0,69,70
 263.95703125 1626.30664062 263.95703125 1626.30664062 259.966796875 1625.24023438 c 2,71,-1
 205.846679688 1605.55957031 l 1,72,73
 156.659179688 1585.26269531 156.659179688 1585.26269531 63.1669921875 1549.79980469 c 1,74,75
 5.7177734375 1530.30273438 5.7177734375 1530.30273438 -12.2734375 1520.28027344 c 1,55,56
317.3671875 1500.59960938 m 1,76,77
 311.415039062 1512.51855469 311.415039062 1512.51855469 296.046875 1505.51953125 c 1,78,79
 278.041992188 1499.95507812 278.041992188 1499.95507812 246.846679688 1487.48046875 c 0,80,81
 223.88671875 1478.45996094 223.88671875 1478.45996094 177.146484375 1460.41992188 c 128,-1,82
 130.407226562 1442.37988281 130.407226562 1442.37988281 107.447265625 1433.36035156 c 0,83,84
 36.3876953125 1406.71289062 36.3876953125 1406.71289062 36.1044921875 1406.55859375 c 0,85,86
 31.4931640625 1403.91113281 31.4931640625 1403.91113281 28.7265625 1402.20019531 c 1,87,88
 39.142578125 1389.18066406 39.142578125 1389.18066406 95.8056640625 1414.76757812 c 0,89,90
 99.373046875 1416.31933594 99.373046875 1416.31933594 100.88671875 1416.95996094 c 2,91,-1
 317.3671875 1500.59960938 l 1,76,77
7.4072265625 1459.59960938 m 1,92,-1
 2.4873046875 1457.95996094 l 1,93,-1
 7.4072265625 1457.95996094 l 1,94,-1
 7.4072265625 1459.59960938 l 1,92,-1
EndSplineSet
EndChar

StartChar: afii57452
Encoding: 1612 1612 312
AltUni2: 00fe72.ffffffff.0
Width: -63
VWidth: 1639
GlyphClass: 2
Flags: HW
AnchorPoint: "GposMark2BaseAnchorHamzaErabAbove_01_01" 111.14 1341.03 mark 0
AnchorPoint: "GposMark2BaseAnchorHamzaErabBelow_01_01" 111.14 1748.38 mark 0
AnchorPoint: "GposMark2BaseAnchorClassErabAbove_01_02" 111.14 1341.03 mark 0
AnchorPoint: "GposMark2MarkAnchorHamzaErabAbove_01_01" 111.14 1341.03 mark 0
AnchorPoint: "GposMark2MarkAnchorHamzaErabBelow_01_01" 111.14 1748.38 mark 0
AnchorPoint: "GposMark2MarkAnchorShaddaErabAbove_01_02" 111.14 1341.03 mark 0
AnchorPoint: "GposMark2MarkAnchorShaddaErabBelow_01_02" 111.14 1748.38 mark 0
LayerCount: 2
Fore
SplineSet
39.7998046875 1582.59960938 m 1,0,1
 39.7998046875 1678.58886719 39.7998046875 1678.58886719 108.8671875 1725.5546875 c 0,2,3
 122.830078125 1734.54101562 122.830078125 1734.54101562 136.560546875 1740.04003906 c 0,4,5
 159.021484375 1748.37988281 159.021484375 1748.37988281 212 1748.24023438 c 1,6,7
 287.715820312 1745.328125 287.715820312 1745.328125 314.615234375 1705.91015625 c 0,8,9
 316.326171875 1703.29492188 316.326171875 1703.29492188 316.959960938 1702.3203125 c 0,10,11
 338.168945312 1667.12402344 338.168945312 1667.12402344 338.280273438 1597.36035156 c 0,12,13
 338.280273438 1507.11035156 338.280273438 1507.11035156 315.275390625 1471.55566406 c 0,14,15
 307.3359375 1460.10644531 307.3359375 1460.10644531 298.919921875 1451.40039062 c 0,16,17
 268.776367188 1422.46191406 268.776367188 1422.46191406 170.169921875 1387.35058594 c 0,18,19
 151.08984375 1380.48046875 151.08984375 1380.48046875 139.83984375 1375.95996094 c 0,20,21
 54.837890625 1343.26660156 54.837890625 1343.26660156 27.404296875 1341.48535156 c 0,22,23
 17.03125 1341.02734375 17.03125 1341.02734375 8.6396484375 1341.51953125 c 0,24,25
 -21.25390625 1342.56835938 -21.25390625 1342.56835938 -27.439453125 1346.44042969 c 0,26,27
 -32.3603515625 1349.71972656 -32.3603515625 1349.71972656 -34.8203125 1353 c 128,-1,28
 -37.2802734375 1356.28027344 -37.2802734375 1356.28027344 -39.740234375 1359.55957031 c 128,-1,29
 -42.2001953125 1362.83984375 -42.2001953125 1362.83984375 -43.01953125 1369.40039062 c 128,-1,30
 -43.83984375 1375.95996094 -43.83984375 1375.95996094 -44.66015625 1378.41992188 c 128,-1,31
 -45.4794921875 1380.87988281 -45.4794921875 1380.87988281 -45.4794921875 1388.25976562 c 128,-1,32
 -45.4794921875 1395.63964844 -45.4794921875 1395.63964844 -45.4794921875 1398.09960938 c 128,-1,33
 -45.4794921875 1400.55957031 -45.4794921875 1400.55957031 -44.66015625 1408.75976562 c 2,34,-1
 -43.83984375 1416.95996094 l 2,35,36
 -42.9619140625 1439.94921875 -42.9619140625 1439.94921875 -42.2001953125 1441.55957031 c 0,37,38
 -41.0234375 1444.69628906 -41.0234375 1444.69628906 -26.1259765625 1455.66503906 c 1,39,40
 -19.6591796875 1463.24609375 -19.6591796875 1463.24609375 -20.8798828125 1471.08007812 c 0,41,42
 -27.9326171875 1502.15820312 -27.9326171875 1502.15820312 -65.16015625 1512.08007812 c 1,43,44
 -100.916015625 1518.0390625 -100.916015625 1518.0390625 -102.333007812 1518.8828125 c 0,45,46
 -110.61328125 1525.68652344 -110.61328125 1525.68652344 -114.360351562 1535.04003906 c 0,47,48
 -115.116210938 1537.30859375 -115.116210938 1537.30859375 -115.657226562 1579.38574219 c 0,49,50
 -115.831054688 1583.59863281 -115.831054688 1583.59863281 -116 1585.87988281 c 0,51,52
 -114.793945312 1605.77832031 -114.793945312 1605.77832031 -111.080078125 1610.48046875 c 0,53,54
 -99.6396484375 1618.90917969 -99.6396484375 1618.90917969 -65.16015625 1618.6796875 c 0,55,56
 0.2666015625 1618.6796875 0.2666015625 1618.6796875 33.7021484375 1588.41015625 c 0,57,58
 37.5673828125 1584.77539062 37.5673828125 1584.77539062 39.7998046875 1582.59960938 c 1,0,1
267.759765625 1515.36035156 m 1,59,60
 285.420898438 1541.89453125 285.420898438 1541.89453125 290.719726562 1571.12011719 c 0,61,62
 298.353515625 1630.27929688 298.353515625 1630.27929688 258.270507812 1674.02148438 c 0,63,64
 234.174804688 1698.20214844 234.174804688 1698.20214844 205.440429688 1699.04003906 c 0,65,66
 187.657226562 1698.27636719 187.657226562 1698.27636719 162.799804688 1684.28027344 c 0,67,68
 112.267578125 1654.41992188 112.267578125 1654.41992188 93.9130859375 1599.15917969 c 0,69,70
 88.2373046875 1580.16796875 88.2373046875 1580.16796875 89 1564.55957031 c 0,71,72
 92.1611328125 1530.51464844 92.1611328125 1530.51464844 123.440429688 1492.40039062 c 1,73,-1
 111.959960938 1489.12011719 l 1,74,-1
 123.440429688 1469.44042969 l 1,75,-1
 111.959960938 1466.16015625 l 1,76,-1
 123.440429688 1446.48046875 l 1,77,-1
 84.080078125 1433.36035156 l 1,78,-1
 82.4404296875 1439.91992188 l 1,79,-1
 61.1201171875 1433.36035156 l 1,80,-1
 59.48046875 1439.91992188 l 1,81,-1
 38.16015625 1433.36035156 l 1,82,-1
 31.6005859375 1467.79980469 l 1,83,-1
 29.9599609375 1467.79980469 l 1,84,85
 27.8134765625 1459.75 27.8134765625 1459.75 28.4248046875 1443.28515625 c 0,86,87
 27.0517578125 1411.82421875 27.0517578125 1411.82421875 8.6396484375 1403.83984375 c 1,88,89
 16.69921875 1387.72070312 16.69921875 1387.72070312 61.873046875 1410.0625 c 0,90,91
 64.900390625 1411.50390625 64.900390625 1411.50390625 66.0400390625 1412.04003906 c 0,92,93
 80.3017578125 1417.49316406 80.3017578125 1417.49316406 110.078125 1427.81738281 c 0,94,95
 199.069335938 1459.15527344 199.069335938 1459.15527344 236.600585938 1484.20019531 c 1,96,-1
 236.600585938 1485.83984375 l 1,97,98
 162.450195312 1482.1328125 162.450195312 1482.1328125 140.018554688 1493.00097656 c 0,99,100
 133.970703125 1496.26953125 133.970703125 1496.26953125 130 1498.95996094 c 0,101,102
 110.350585938 1515.5234375 110.350585938 1515.5234375 110.3203125 1556.36035156 c 0,103,104
 110.3203125 1627.70214844 110.3203125 1627.70214844 134.03515625 1649.93457031 c 0,105,106
 137.712890625 1653.08105469 137.712890625 1653.08105469 139.83984375 1654.75976562 c 0,107,108
 152.216796875 1661.93945312 152.216796875 1661.93945312 182.48046875 1664.59960938 c 1,109,110
 239.49609375 1663.62109375 239.49609375 1663.62109375 254.639648438 1653.12011719 c 1,111,112
 272.649414062 1636.64550781 272.649414062 1636.64550781 272.6796875 1597.36035156 c 0,113,114
 272.200195312 1535.83496094 272.200195312 1535.83496094 266.120117188 1515.36035156 c 1,115,-1
 267.759765625 1515.36035156 l 1,59,60
195.600585938 1613.75976562 m 1,116,117
 182.6640625 1612.08105469 182.6640625 1612.08105469 171 1594.08007812 c 0,118,119
 159.520507812 1574.94628906 159.520507812 1574.94628906 159.520507812 1566.20019531 c 0,120,121
 161.588867188 1547.58203125 161.588867188 1547.58203125 185.7109375 1537.36914062 c 0,122,123
 191.213867188 1535.04003906 191.213867188 1535.04003906 195.600585938 1535.04003906 c 0,124,125
 209.194335938 1536.95605469 209.194335938 1536.95605469 216.919921875 1553.08007812 c 0,126,127
 233.573242188 1581.62890625 233.573242188 1581.62890625 215.995117188 1603.80371094 c 0,128,129
 207.107421875 1612.44140625 207.107421875 1612.44140625 195.600585938 1613.75976562 c 1,116,117
-34 1561.28027344 m 1,130,131
 -56.2314453125 1568.48828125 -56.2314453125 1568.48828125 -60.240234375 1566.20019531 c 1,132,-1
 -34 1559.63964844 l 1,133,-1
 -34 1561.28027344 l 1,130,131
239.879882812 1487.48046875 m 1,134,-1
 238.240234375 1485.83984375 l 1,135,-1
 239.879882812 1487.48046875 l 1,134,-1
29.9599609375 1472.71972656 m 1,136,-1
 28.3203125 1471.08007812 l 1,137,-1
 29.9599609375 1472.71972656 l 1,136,-1
EndSplineSet
EndChar

StartChar: afii57453
Encoding: 1613 1613 313
AltUni2: 00fe74.ffffffff.0
Width: -49
VWidth: 1639
GlyphClass: 2
Flags: HW
AnchorPoint: "GposMark2BaseAnchorClassErabBelow_01_02" -70.5293 -97.0723 mark 0
LayerCount: 2
Fore
SplineSet
-220.512695312 -328 m 1,0,1
 -264.286132812 -326.99609375 -264.286132812 -326.99609375 -274.6328125 -319.799804688 c 1,2,3
 -289.815429688 -300.684570312 -289.815429688 -300.684570312 -287.752929688 -250.919921875 c 0,4,5
 -286.29296875 -225.379882812 -286.29296875 -225.379882812 -279.552734375 -219.759765625 c 0,6,7
 -264.59765625 -207.795898438 -264.59765625 -207.795898438 -191.951171875 -184.556640625 c 0,8,9
 -187.158203125 -182.977539062 -187.158203125 -182.977539062 -184.43359375 -182.040039062 c 0,10,11
 -160.653320312 -173.01953125 -160.653320312 -173.01953125 -113.092773438 -154.16015625 c 0,12,13
 -64.986328125 -135.111328125 -64.986328125 -135.111328125 -41.7529296875 -126.280273438 c 0,14,15
 -35.1103515625 -124.065429688 -35.1103515625 -124.065429688 -21.328125 -118.088867188 c 0,16,17
 6.99609375 -106.375 6.99609375 -106.375 20.56640625 -104.959960938 c 0,18,19
 73.3876953125 -97.072265625 73.3876953125 -97.072265625 94.3671875 -111.51953125 c 1,20,21
 100.926757812 -118.080078125 100.926757812 -118.080078125 104.20703125 -127.919921875 c 128,-1,22
 107.487304688 -137.759765625 107.487304688 -137.759765625 108.306640625 -143.5 c 128,-1,23
 109.126953125 -149.240234375 109.126953125 -149.240234375 108.306640625 -164.8203125 c 2,24,-1
 107.487304688 -180.400390625 l 2,25,26
 106.639648438 -201.700195312 106.639648438 -201.700195312 104.20703125 -206.639648438 c 0,27,28
 99.4814453125 -213.252929688 99.4814453125 -213.252929688 77.966796875 -223.040039062 c 1,29,30
 129.985351562 -213.955078125 129.985351562 -213.955078125 145.20703125 -244.360351562 c 1,31,32
 148.756835938 -255.372070312 148.756835938 -255.372070312 148.487304688 -287 c 0,33,34
 147.2265625 -322.565429688 147.2265625 -322.565429688 140.287109375 -329.639648438 c 0,35,36
 129.534179688 -337.693359375 129.534179688 -337.693359375 105.846679688 -344.400390625 c 1,37,38
 74.6865234375 -357.75390625 74.6865234375 -357.75390625 38.6064453125 -370.639648438 c 0,39,40
 17.287109375 -378.83984375 17.287109375 -378.83984375 -24.98828125 -396.333007812 c 0,41,42
 -110.135742188 -431.377929688 -110.135742188 -431.377929688 -153.2734375 -444.440429688 c 0,43,44
 -153.2734375 -446.080078125 -153.2734375 -446.080078125 -164.752929688 -445.259765625 c 2,45,-1
 -176.233398438 -444.440429688 l 1,46,47
 -226.620117188 -447.046875 -226.620117188 -447.046875 -238.552734375 -431.3203125 c 0,48,49
 -246.963867188 -418.333007812 -246.963867188 -418.333007812 -246.752929688 -390.3203125 c 0,50,51
 -246.752929688 -347.000976562 -246.752929688 -347.000976562 -239.388671875 -338.731445312 c 0,52,53
 -231.294921875 -331.775390625 -231.294921875 -331.775390625 -220.512695312 -329.639648438 c 1,54,-1
 -220.512695312 -328 l 1,0,1
-235.2734375 -265.6796875 m 1,55,56
 -226.697265625 -277.931640625 -226.697265625 -277.931640625 -183.522460938 -259.668945312 c 0,57,58
 -179.618164062 -258.125 -179.618164062 -258.125 -177.873046875 -257.48046875 c 0,59,60
 -149.993164062 -246.8203125 -149.993164062 -246.8203125 -93.4130859375 -224.6796875 c 0,61,62
 -36.3076171875 -202.348632812 -36.3076171875 -202.348632812 -8.953125 -191.879882812 c 0,63,64
 13.1767578125 -184.330078125 13.1767578125 -184.330078125 36.966796875 -173.83984375 c 0,65,66
 50.673828125 -167.862304688 50.673828125 -167.862304688 51.7265625 -165.639648438 c 0,67,68
 52.9111328125 -159.716796875 52.9111328125 -159.716796875 45.6865234375 -159.397460938 c 0,69,70
 41.4921875 -159.211914062 41.4921875 -159.211914062 36.966796875 -160.719726562 c 2,71,-1
 -17.1533203125 -180.400390625 l 1,72,73
 -66.3408203125 -200.697265625 -66.3408203125 -200.697265625 -159.833007812 -236.16015625 c 1,74,75
 -217.282226562 -255.657226562 -217.282226562 -255.657226562 -235.2734375 -265.6796875 c 1,55,56
94.3671875 -285.360351562 m 1,76,77
 88.4150390625 -273.44140625 88.4150390625 -273.44140625 73.046875 -280.440429688 c 1,78,79
 55.0419921875 -286.004882812 55.0419921875 -286.004882812 23.8466796875 -298.48046875 c 0,80,81
 0.88671875 -307.5 0.88671875 -307.5 -45.853515625 -325.540039062 c 0,82,83
 -93.115234375 -343.791992188 -93.115234375 -343.791992188 -115.552734375 -352.599609375 c 0,84,85
 -186.612304688 -379.247070312 -186.612304688 -379.247070312 -186.895507812 -379.401367188 c 0,86,87
 -191.506835938 -382.048828125 -191.506835938 -382.048828125 -194.2734375 -383.759765625 c 1,88,89
 -183.857421875 -396.779296875 -183.857421875 -396.779296875 -127.194335938 -371.192382812 c 0,90,91
 -123.626953125 -369.640625 -123.626953125 -369.640625 -122.11328125 -369 c 2,92,-1
 94.3671875 -285.360351562 l 1,76,77
-215.592773438 -326.360351562 m 1,93,-1
 -220.512695312 -328 l 1,94,-1
 -215.592773438 -328 l 1,95,-1
 -215.592773438 -326.360351562 l 1,93,-1
EndSplineSet
EndChar

StartChar: afii57454
Encoding: 1614 1614 314
AltUni2: 00fe76.ffffffff.0
Width: -78
VWidth: 1639
GlyphClass: 2
Flags: HW
AnchorPoint: "GposMark2BaseAnchorHamzaErabAbove_01_01" 103.787 1335.76 mark 0
AnchorPoint: "GposMark2BaseAnchorHamzaErabBelow_01_01" 103.787 1574.99 mark 0
AnchorPoint: "GposMark2BaseAnchorClassErabAbove_01_02" 103.787 1335.76 mark 0
AnchorPoint: "GposMark2MarkAnchorHamzaErabAbove_01_01" 103.787 1335.76 mark 0
AnchorPoint: "GposMark2MarkAnchorHamzaErabBelow_01_01" 103.787 1574.99 mark 0
AnchorPoint: "GposMark2MarkAnchorShaddaErabAbove_01_02" 103.787 1335.76 mark 0
AnchorPoint: "GposMark2MarkAnchorShaddaErabBelow_01_02" 103.787 1574.99 mark 0
LayerCount: 2
Fore
SplineSet
212.252929688 1562.91992188 m 0,0,1
 264.575195312 1574.99414062 264.575195312 1574.99414062 289.344726562 1555.08203125 c 0,2,3
 292.708007812 1551.66796875 292.708007812 1551.66796875 294.252929688 1549.79980469 c 0,4,5
 299.670898438 1540.109375 299.670898438 1540.109375 302.453125 1505.51953125 c 1,6,7
 301.481445312 1464.71679688 301.481445312 1464.71679688 295.892578125 1457.95996094 c 0,8,9
 285.5546875 1448.48339844 285.5546875 1448.48339844 224.401367188 1427.5 c 0,10,11
 217.751953125 1425.10253906 217.751953125 1425.10253906 213.892578125 1423.51953125 c 0,12,13
 163.065429688 1403.24316406 163.065429688 1403.24316406 66.29296875 1367.75976562 c 1,14,15
 3.4931640625 1341.32324219 3.4931640625 1341.32324219 -5.8671875 1339.87988281 c 0,16,17
 -60.765625 1335.76367188 -60.765625 1335.76367188 -76.38671875 1346.44042969 c 1,18,19
 -94.87890625 1366.82714844 -94.87890625 1366.82714844 -92.787109375 1416.95996094 c 0,20,21
 -91.173828125 1443.30566406 -91.173828125 1443.30566406 -84.5869140625 1449.75976562 c 0,22,23
 -72.55859375 1459.9375 -72.55859375 1459.9375 -6.900390625 1480.50683594 c 0,24,25
 -0.107421875 1482.72070312 -0.107421875 1482.72070312 3.97265625 1484.20019531 c 0,26,27
 26.11328125 1493.21972656 26.11328125 1493.21972656 69.5732421875 1509.62011719 c 0,28,29
 113.606445312 1526.28515625 113.606445312 1526.28515625 135.172851562 1535.04003906 c 0,30,31
 199.177734375 1560.296875 199.177734375 1560.296875 212.252929688 1562.91992188 c 0,0,1
-40.306640625 1400.55957031 m 1,32,33
 -29.0830078125 1390.58300781 -29.0830078125 1390.58300781 14.408203125 1410.18554688 c 0,34,35
 17.486328125 1411.51171875 17.486328125 1411.51171875 18.7333984375 1412.04003906 c 0,36,37
 46.61328125 1422.70019531 46.61328125 1422.70019531 101.552734375 1444.01953125 c 0,38,39
 157.060546875 1465.55078125 157.060546875 1465.55078125 184.373046875 1476 c 0,40,41
 196.825195312 1479.90722656 196.825195312 1479.90722656 231.932617188 1494.04003906 c 0,42,43
 245.4453125 1500.44042969 245.4453125 1500.44042969 246.693359375 1503.87988281 c 1,44,45
 245.038085938 1511.63574219 245.038085938 1511.63574219 230.29296875 1507.16015625 c 0,46,47
 218.913085938 1504.05664062 218.913085938 1504.05664062 197.287109375 1495.16796875 c 0,48,49
 183.87890625 1489.73046875 183.87890625 1489.73046875 177.813476562 1487.48046875 c 0,50,51
 72.306640625 1447.86425781 72.306640625 1447.86425781 20.373046875 1426.79980469 c 0,52,53
 15.779296875 1425.12988281 15.779296875 1425.12988281 4.818359375 1421.91796875 c 0,54,55
 -30.259765625 1410.78417969 -30.259765625 1410.78417969 -40.306640625 1400.55957031 c 1,32,33
EndSplineSet
EndChar

StartChar: afii57455
Encoding: 1615 1615 315
AltUni2: 00fe78.ffffffff.0
Width: -128
VWidth: 1639
GlyphClass: 2
Flags: HW
AnchorPoint: "GposMark2BaseAnchorHamzaErabAbove_01_01" 40.25 1340.78 mark 0
AnchorPoint: "GposMark2BaseAnchorHamzaErabBelow_01_01" 40.25 1748.24 mark 0
AnchorPoint: "GposMark2BaseAnchorClassErabAbove_01_02" 40.25 1340.78 mark 0
AnchorPoint: "GposMark2MarkAnchorHamzaErabAbove_01_01" 40.25 1340.78 mark 0
AnchorPoint: "GposMark2MarkAnchorHamzaErabBelow_01_01" 40.25 1748.24 mark 0
AnchorPoint: "GposMark2MarkAnchorShaddaErabAbove_01_02" 40.25 1340.78 mark 0
AnchorPoint: "GposMark2MarkAnchorShaddaErabBelow_01_02" 40.25 1748.24 mark 0
LayerCount: 2
Fore
SplineSet
-51.4228515625 1482.55957031 m 1,0,1
 -87.5673828125 1571.85644531 -87.5673828125 1571.85644531 -50.5185546875 1658.50976562 c 0,2,3
 -37.9169921875 1686.31738281 -37.9169921875 1686.31738281 -20.2626953125 1705.59960938 c 0,4,5
 22.16796875 1748.01074219 22.16796875 1748.01074219 109.296875 1748.24023438 c 1,6,7
 174.090820312 1746.76855469 174.090820312 1746.76855469 201.13671875 1715.44042969 c 0,8,9
 232.110351562 1677.31445312 232.110351562 1677.31445312 232.296875 1595.71972656 c 0,10,11
 232.296875 1505.703125 232.296875 1505.703125 209.4453125 1471.12890625 c 0,12,13
 201.421875 1459.84765625 201.421875 1459.84765625 192.936523438 1451.40039062 c 0,14,15
 160.232421875 1419.953125 160.232421875 1419.953125 57.01171875 1385.24804688 c 0,16,17
 40.3603515625 1379.59082031 40.3603515625 1379.59082031 30.5771484375 1375.95996094 c 0,18,19
 -50.3349609375 1344.83984375 -50.3349609375 1344.83984375 -69.828125 1342.35253906 c 0,20,21
 -84.6953125 1340.77832031 -84.6953125 1340.77832031 -97.3427734375 1341.51953125 c 0,22,23
 -126.891601562 1342.39160156 -126.891601562 1342.39160156 -131.783203125 1344.79980469 c 1,24,25
 -151.796875 1365.59277344 -151.796875 1365.59277344 -149.823242188 1416.95996094 c 0,26,27
 -148.560546875 1441.40429688 -148.560546875 1441.40429688 -144.903320312 1446.48046875 c 0,28,29
 -137.592773438 1452.66894531 -137.592773438 1452.66894531 -115.3828125 1459.59960938 c 1,30,31
 -64.833984375 1480.24609375 -64.833984375 1480.24609375 -51.4228515625 1482.55957031 c 1,0,1
163.416992188 1517 m 1,32,33
 182.260742188 1550.86425781 182.260742188 1550.86425781 184.737304688 1579.3203125 c 0,34,35
 190.381835938 1635.76464844 190.381835938 1635.76464844 150.107421875 1676.35253906 c 0,36,37
 126.486328125 1698.25097656 126.486328125 1698.25097656 99.45703125 1699.04003906 c 0,38,39
 78.83984375 1698.16210938 78.83984375 1698.16210938 53.537109375 1682.63964844 c 0,40,41
 -5.5625 1642.34472656 -5.5625 1642.34472656 -15.8193359375 1583.80664062 c 0,42,43
 -17.7060546875 1573.03710938 -17.7060546875 1573.03710938 -16.9833984375 1562.91992188 c 0,44,45
 -14.2763671875 1534.79199219 -14.2763671875 1534.79199219 17.45703125 1492.40039062 c 1,46,-1
 5.9765625 1487.48046875 l 1,47,-1
 17.45703125 1469.44042969 l 1,48,-1
 5.9765625 1464.51953125 l 1,49,-1
 17.45703125 1446.48046875 l 1,50,51
 6.921875 1442.64941406 6.921875 1442.64941406 -16.3916015625 1435.45800781 c 0,52,53
 -75.40625 1416.76269531 -75.40625 1416.76269531 -97.3427734375 1402.20019531 c 1,54,-1
 -97.3427734375 1400.55957031 l 1,55,56
 -86.0771484375 1390.54589844 -86.0771484375 1390.54589844 -45.919921875 1409.40429688 c 0,57,58
 -42.404296875 1411.05566406 -42.404296875 1411.05566406 -39.943359375 1412.04003906 c 0,59,60
 -21.0830078125 1419.41992188 -21.0830078125 1419.41992188 15.8173828125 1433.36035156 c 0,61,62
 53.294921875 1447.54003906 53.294921875 1447.54003906 71.5771484375 1454.6796875 c 0,63,64
 117.797851562 1471.06054688 117.797851562 1471.06054688 130.6171875 1485.83984375 c 1,65,66
 57.6884765625 1482.19335938 57.6884765625 1482.19335938 37.103515625 1491.68945312 c 0,67,68
 31.15625 1494.77832031 31.15625 1494.77832031 27.296875 1497.3203125 c 0,69,70
 4.3662109375 1513.99902344 4.3662109375 1513.99902344 4.3369140625 1559.63964844 c 0,71,72
 5.6943359375 1630.00488281 5.6943359375 1630.00488281 30.5771484375 1653.12011719 c 1,73,74
 43.634765625 1661.95117188 43.634765625 1661.95117188 76.4970703125 1664.59960938 c 1,75,76
 133.301757812 1664.59960938 133.301757812 1664.59960938 148.252929688 1652.83691406 c 0,77,78
 155.799804688 1645.76074219 155.799804688 1645.76074219 160.13671875 1638.36035156 c 0,79,80
 166.8984375 1624.42871094 166.8984375 1624.42871094 166.697265625 1592.44042969 c 0,81,82
 166.3828125 1542.53320312 166.3828125 1542.53320312 161.77734375 1517 c 1,83,-1
 163.416992188 1517 l 1,32,33
89.6171875 1613.75976562 m 1,84,85
 76.6806640625 1612.08105469 76.6806640625 1612.08105469 65.0166015625 1594.08007812 c 0,86,87
 53.537109375 1574.94628906 53.537109375 1574.94628906 53.537109375 1566.20019531 c 0,88,89
 55.60546875 1547.58203125 55.60546875 1547.58203125 79.728515625 1537.36914062 c 0,90,91
 85.78515625 1535.37890625 85.78515625 1535.37890625 89.6171875 1535.04003906 c 0,92,93
 100.971679688 1536.95605469 100.971679688 1536.95605469 110.936523438 1553.08007812 c 0,94,95
 127.58984375 1581.62890625 127.58984375 1581.62890625 110.01171875 1603.80371094 c 0,96,97
 101.125 1612.44140625 101.125 1612.44140625 89.6171875 1613.75976562 c 1,84,85
133.896484375 1487.48046875 m 1,98,-1
 132.256835938 1485.83984375 l 1,99,-1
 133.896484375 1487.48046875 l 1,98,-1
EndSplineSet
EndChar

StartChar: afii57456
Encoding: 1616 1616 316
AltUni2: 00fe7a.ffffffff.0
Width: -80
VWidth: 1639
GlyphClass: 2
Flags: HW
AnchorPoint: "GposMark2BaseAnchorClassErabBelow_01_02" -85.2104 -93.0049 mark 0
LayerCount: 2
Fore
SplineSet
21.6416015625 -104.959960938 m 0,0,1
 73.4453125 -93.0048828125 73.4453125 -93.0048828125 98.7333984375 -111.6015625 c 0,2,3
 102.1328125 -114.794921875 102.1328125 -114.794921875 103.641601562 -116.440429688 c 0,4,5
 110.626953125 -126.96875 110.626953125 -126.96875 113.481445312 -162.360351562 c 1,6,7
 112.509765625 -202.27734375 112.509765625 -202.27734375 106.921875 -209.919921875 c 1,8,9
 94.0673828125 -221.703125 94.0673828125 -221.703125 26.0556640625 -242.938476562 c 0,10,11
 22.974609375 -243.927734375 22.974609375 -243.927734375 21.6416015625 -244.360351562 c 2,12,-1
 -116.118164062 -298.48046875 l 2,13,14
 -123.924804688 -301.268554688 -123.924804688 -301.268554688 -140.922851562 -308.850585938 c 0,15,16
 -175.76171875 -323.913085938 -175.76171875 -323.913085938 -191.55859375 -326.360351562 c 0,17,18
 -249.998046875 -330.41015625 -249.998046875 -330.41015625 -266.998046875 -319.799804688 c 1,19,20
 -283.90234375 -299.5859375 -283.90234375 -299.5859375 -281.758789062 -249.280273438 c 0,21,22
 -280.237304688 -224.768554688 -280.237304688 -224.768554688 -275.198242188 -219.759765625 c 0,23,24
 -265.612304688 -212.528320312 -265.612304688 -212.528320312 -242.3984375 -205 c 0,25,26
 -231.73828125 -200.900390625 -231.73828125 -200.900390625 -209.598632812 -192.700195312 c 128,-1,27
 -187.458984375 -184.5 -187.458984375 -184.5 -176.798828125 -180.400390625 c 0,28,29
 -130.891601562 -161.7578125 -130.891601562 -161.7578125 -43.958984375 -129.559570312 c 0,30,31
 19.3857421875 -105.4765625 19.3857421875 -105.4765625 21.6416015625 -104.959960938 c 0,0,1
59.361328125 -165.639648438 m 1,32,33
 57.7216796875 -160.719726562 57.7216796875 -160.719726562 51.1611328125 -159.900390625 c 128,-1,34
 44.6015625 -159.080078125 44.6015625 -159.080078125 34.76171875 -161.540039062 c 128,-1,35
 24.921875 -164 24.921875 -164 18.361328125 -166.459960938 c 128,-1,36
 11.8017578125 -168.919921875 11.8017578125 -168.919921875 0.3212890625 -174.66015625 c 2,37,-1
 -11.158203125 -180.400390625 l 1,38,39
 -37.6171875 -190.622070312 -37.6171875 -190.622070312 -91.033203125 -210.6484375 c 0,40,41
 -183.577148438 -245.34375 -183.577148438 -245.34375 -229.278320312 -264.040039062 c 1,42,43
 -221.818359375 -278.959960938 -221.818359375 -278.959960938 -166.57421875 -254.12890625 c 0,44,45
 -161.126953125 -251.809570312 -161.126953125 -251.809570312 -158.758789062 -250.919921875 c 0,46,47
 -50.5185546875 -208.397460938 -50.5185546875 -208.397460938 -22.638671875 -198.440429688 c 0,48,49
 51.064453125 -170.479492188 51.064453125 -170.479492188 59.361328125 -165.639648438 c 1,32,33
EndSplineSet
EndChar

StartChar: afii57457
Encoding: 1617 1617 317
AltUni2: 00fe7c.ffffffff.0
Width: 18
VWidth: 1639
GlyphClass: 2
Flags: HW
AnchorPoint: "GposMark2BaseAnchorHamzaErabAbove_01_01" 161.032 1332.09 mark 0
AnchorPoint: "GposMark2BaseAnchorHamzaErabBelow_01_01" 161.032 1705.47 mark 0
AnchorPoint: "GposMark2BaseAnchorClassErabAbove_01_02" 161.032 1332.09 mark 0
AnchorPoint: "GposMark2MarkAnchorHamzaErabAbove_01_01" 161.032 1332.09 mark 0
AnchorPoint: "GposMark2MarkAnchorHamzaErabBelow_01_01" 161.032 1705.47 mark 0
AnchorPoint: "GposMark2MarkAnchorShaddaErabAbove_01_02" 161.032 1855.47 basemark 0
AnchorPoint: "GposMark2MarkAnchorShaddaErabBelow_01_02" 161.032 1182.09 basemark 0
LayerCount: 2
Fore
SplineSet
224.556640625 1694.12011719 m 0,0,1
 269.252929688 1705.47070312 269.252929688 1705.47070312 298.356445312 1692.48046875 c 0,2,3
 309.93359375 1687.84960938 309.93359375 1687.84960938 336.778320312 1651.60546875 c 0,4,5
 338.713867188 1649.04882812 338.713867188 1649.04882812 339.356445312 1648.20019531 c 0,6,7
 376.768554688 1590.28027344 376.768554688 1590.28027344 377.077148438 1505.51953125 c 0,8,9
 376.450195312 1458.44921875 376.450195312 1458.44921875 370.516601562 1443.20019531 c 1,10,11
 342.061523438 1398.57714844 342.061523438 1398.57714844 288.516601562 1392.36035156 c 0,12,13
 283.9609375 1392.36035156 283.9609375 1392.36035156 271.920898438 1393.65625 c 0,14,15
 241.998046875 1396.21289062 241.998046875 1396.21289062 232.756835938 1392.36035156 c 0,16,17
 229.188476562 1390.57519531 229.188476562 1390.57519531 223.907226562 1379.05566406 c 0,18,19
 218.827148438 1369.15429688 218.827148438 1369.15429688 216.356445312 1366.12011719 c 0,20,21
 200.859375 1347.578125 200.859375 1347.578125 173.716796875 1341.51953125 c 1,22,23
 102.34375 1332.08984375 102.34375 1332.08984375 60.556640625 1348.08007812 c 1,24,25
 -10.5556640625 1378.66699219 -10.5556640625 1378.66699219 -42.7626953125 1476 c 0,26,27
 -55.013671875 1512.70410156 -55.013671875 1512.70410156 -52.603515625 1559.63964844 c 0,28,29
 -51.08203125 1584.92285156 -51.08203125 1584.92285156 -46.04296875 1589.16015625 c 0,30,31
 -37.8232421875 1593.67578125 -37.8232421875 1593.67578125 -9.962890625 1595.71972656 c 1,32,33
 33.228515625 1594.96191406 33.228515625 1594.96191406 40.876953125 1590.79980469 c 0,34,35
 52.5498046875 1582.30371094 52.5498046875 1582.30371094 55.63671875 1558 c 0,36,37
 62.59765625 1521.50488281 62.59765625 1521.50488281 68.7568359375 1505.51953125 c 1,38,39
 94.9892578125 1457.48046875 94.9892578125 1457.48046875 114.676757812 1461.24023438 c 1,40,41
 132.30078125 1471.45507812 132.30078125 1471.45507812 119.596679688 1497.3203125 c 1,42,43
 102.583984375 1523.83691406 102.583984375 1523.83691406 101.556640625 1526.83984375 c 0,44,45
 99.296875 1534.37792969 99.296875 1534.37792969 99.9169921875 1571.12011719 c 0,46,47
 100.420898438 1574.14355469 100.420898438 1574.14355469 100.189453125 1580.83398438 c 0,48,49
 101.255859375 1596.01464844 101.255859375 1596.01464844 106.4765625 1600.63964844 c 0,50,51
 113.264648438 1604.65039062 113.264648438 1604.65039062 134.356445312 1603.91992188 c 0,52,53
 178.31640625 1603.43945312 178.31640625 1603.43945312 181.916992188 1602.28027344 c 0,54,55
 193.862304688 1595.31152344 193.862304688 1595.31152344 214.076171875 1554.89257812 c 0,56,57
 217.491210938 1548.43164062 217.491210938 1548.43164062 219.63671875 1544.87988281 c 0,58,59
 247.306640625 1510.59082031 247.306640625 1510.59082031 263.916992188 1520.28027344 c 1,60,61
 272.1015625 1532.2265625 272.1015625 1532.2265625 250.796875 1559.63964844 c 0,62,63
 245.640625 1568.47851562 245.640625 1568.47851562 230.759765625 1584.765625 c 0,64,65
 212.874023438 1605.23730469 212.874023438 1605.23730469 208.157226562 1615.40039062 c 0,66,67
 205.892578125 1622.25195312 205.892578125 1622.25195312 206.516601562 1658.04003906 c 1,68,69
 209.0703125 1690.25 209.0703125 1690.25 224.556640625 1694.12011719 c 0,0,1
319.676757812 1551.44042969 m 1,70,71
 317.841796875 1546.66992188 317.841796875 1546.66992188 319.280273438 1505.06933594 c 0,72,73
 318.982421875 1489.82128906 318.982421875 1489.82128906 314.756835938 1480.91992188 c 1,74,75
 302.342773438 1464.34863281 302.342773438 1464.34863281 267.197265625 1464.51953125 c 0,76,77
 218.111328125 1465.05859375 218.111328125 1465.05859375 209.796875 1467.79980469 c 0,78,79
 207.041992188 1469.58496094 207.041992188 1469.58496094 178.63671875 1490.75976562 c 1,80,81
 178.63671875 1441.63574219 178.63671875 1441.63574219 176.416015625 1435.72070312 c 0,82,83
 174.723632812 1431.99511719 174.723632812 1431.99511719 173.716796875 1430.08007812 c 0,84,85
 150.017578125 1405.97167969 150.017578125 1405.97167969 83.5166015625 1408.75976562 c 1,86,-1
 83.5166015625 1407.12011719 l 1,87,88
 112.814453125 1389.79785156 112.814453125 1389.79785156 127.796875 1389.08007812 c 0,89,90
 166.879882812 1389.08007812 166.879882812 1389.08007812 182.661132812 1433.23730469 c 0,91,92
 186.548828125 1445.67773438 186.548828125 1445.67773438 186.836914062 1456.3203125 c 1,93,-1
 209.796875 1446.48046875 l 1,94,-1
 209.796875 1456.3203125 l 1,95,-1
 232.756835938 1446.48046875 l 1,96,-1
 232.756835938 1456.3203125 l 1,97,98
 237.348632812 1455.0078125 237.348632812 1455.0078125 246.533203125 1450.28515625 c 0,99,100
 260.30859375 1443.20019531 260.30859375 1443.20019531 267.197265625 1443.20019531 c 0,101,102
 299.837890625 1443.20019531 299.837890625 1443.20019531 321.634765625 1482.33496094 c 0,103,104
 329.516601562 1496.48632812 329.516601562 1496.48632812 329.516601562 1508.79980469 c 0,105,106
 329.124023438 1512.125 329.124023438 1512.125 319.676757812 1551.44042969 c 1,70,71
-0.123046875 1541.59960938 m 1,107,-1
 8.0771484375 1505.51953125 l 1,108,-1
 9.716796875 1505.51953125 l 1,109,110
 8.638671875 1529.94042969 8.638671875 1529.94042969 -0.123046875 1541.59960938 c 1,107,-1
11.3564453125 1503.87988281 m 1,111,-1
 9.716796875 1502.24023438 l 1,112,-1
 11.3564453125 1503.87988281 l 1,111,-1
EndSplineSet
EndChar

StartChar: afii57458
Encoding: 1618 1618 318
AltUni2: 00fe7e.ffffffff.0
Width: -60
VWidth: 1639
GlyphClass: 2
Flags: HW
AnchorPoint: "GposMark2BaseAnchorHamzaErabAbove_01_01" 108.16 1324.67 mark 0
AnchorPoint: "GposMark2BaseAnchorHamzaErabBelow_01_01" 108.16 1688.66 mark 0
AnchorPoint: "GposMark2BaseAnchorClassErabAbove_01_02" 108.16 1324.67 mark 0
AnchorPoint: "GposMark2MarkAnchorHamzaErabAbove_01_01" 108.16 1324.67 mark 0
AnchorPoint: "GposMark2MarkAnchorHamzaErabBelow_01_01" 108.16 1688.66 mark 0
AnchorPoint: "GposMark2MarkAnchorShaddaErabAbove_01_02" 108.16 1324.67 mark 0
AnchorPoint: "GposMark2MarkAnchorShaddaErabBelow_01_02" 108.16 1688.66 mark 0
LayerCount: 2
Fore
SplineSet
78.640625 1676.08007812 m 0,0,1
 195.870117188 1688.65722656 195.870117188 1688.65722656 237.720703125 1628.51953125 c 0,2,3
 262.12890625 1591.10839844 262.12890625 1591.10839844 262.3203125 1521.91992188 c 0,4,5
 262.104492188 1460.47949219 262.104492188 1460.47949219 260.680664062 1449.75976562 c 0,6,7
 246.66796875 1377.36035156 246.66796875 1377.36035156 187.723632812 1349.82226562 c 0,8,9
 173.719726562 1343.80175781 173.719726562 1343.80175781 160.640625 1341.51953125 c 0,10,11
 30.0625 1324.66503906 30.0625 1324.66503906 -24.6796875 1405.48046875 c 1,12,13
 -45.787109375 1439.8515625 -45.787109375 1439.8515625 -46 1497.3203125 c 0,14,15
 -46 1607.7890625 -46 1607.7890625 24.0029296875 1655.20703125 c 0,16,17
 49.283203125 1671.34179688 49.283203125 1671.34179688 78.640625 1676.08007812 c 0,0,1
116.360351562 1626.87988281 m 0,18,19
 89.8037109375 1625.75195312 89.8037109375 1625.75195312 58.9609375 1599 c 1,20,21
 6.447265625 1558.84277344 6.447265625 1558.84277344 3.2705078125 1506.41601562 c 0,22,23
 3.1435546875 1501.83496094 3.1435546875 1501.83496094 3.2001953125 1498.95996094 c 0,24,25
 3.2001953125 1451.62792969 3.2001953125 1451.62792969 58.455078125 1411.30566406 c 0,26,27
 90.1826171875 1388.15234375 90.1826171875 1388.15234375 118 1389.08007812 c 0,28,29
 144.923828125 1390.34863281 144.923828125 1390.34863281 175.400390625 1420.24023438 c 1,30,31
 213.075195312 1462.43066406 213.075195312 1462.43066406 216.400390625 1508.79980469 c 1,32,33
 216.400390625 1568.62207031 216.400390625 1568.62207031 169.646484375 1607.17675781 c 0,34,35
 143.779296875 1626.96484375 143.779296875 1626.96484375 116.360351562 1626.87988281 c 0,18,19
77 1592.44042969 m 1,36,37
 160.104492188 1599.8359375 160.104492188 1599.8359375 185.240234375 1569.48046875 c 0,38,39
 195.396484375 1555.17675781 195.396484375 1555.17675781 198.360351562 1515.36035156 c 1,40,41
 199.317382812 1424.91601562 199.317382812 1424.91601562 139.3203125 1413.6796875 c 1,42,43
 59.4052734375 1406.6953125 59.4052734375 1406.6953125 37.640625 1435 c 1,44,45
 24.5390625 1454.78710938 24.5390625 1454.78710938 24.5205078125 1494.04003906 c 0,46,47
 26.9423828125 1583.90722656 26.9423828125 1583.90722656 77 1592.44042969 c 1,36,37
106.520507812 1539.95996094 m 0,48,49
 87.9404296875 1535.83105469 87.9404296875 1535.83105469 77.6533203125 1508.875 c 0,50,51
 74.7421875 1501.24609375 74.7421875 1501.24609375 75.3603515625 1495.6796875 c 0,52,53
 81.4287109375 1474.44238281 81.4287109375 1474.44238281 100.026367188 1466.02832031 c 0,54,55
 104.400390625 1464.04980469 104.400390625 1464.04980469 108.16015625 1464.51953125 c 0,56,57
 129.749023438 1469.31738281 129.749023438 1469.31738281 144.013671875 1495.75195312 c 0,58,59
 147.064453125 1502.7578125 147.064453125 1502.7578125 147.520507812 1507.16015625 c 0,60,61
 147.520507812 1526.33886719 147.520507812 1526.33886719 123.708984375 1537.64355469 c 0,62,63
 113.564453125 1541.35742188 113.564453125 1541.35742188 106.520507812 1539.95996094 c 0,48,49
EndSplineSet
EndChar

StartChar: uni0654
Encoding: 1620 1620 320
Width: 41
VWidth: 1639
GlyphClass: 2
Flags: HW
AnchorPoint: "GposMark2BaseAnchorClassErabAbove_01_02" 167.673 1334.53 mark 0
AnchorPoint: "GposMark2MarkAnchorHamzaErabAbove_01_01" 167.673 1900.14 basemark 0
AnchorPoint: "GposMark2MarkAnchorHamzaErabBelow_01_01" 167.673 1184.53 basemark 0
LayerCount: 2
Fore
SplineSet
29.376953125 1467.79980469 m 1,0,1
 0.7470703125 1496.42871094 0.7470703125 1496.42871094 -0.3115234375 1498.09960938 c 0,2,3
 -2.3984375 1501.82617188 -2.3984375 1501.82617188 -3.423828125 1503.87988281 c 0,4,5
 -10.3662109375 1518.265625 -10.3662109375 1518.265625 -9.9833984375 1562.91992188 c 0,6,7
 -8.443359375 1638.953125 -8.443359375 1638.953125 67.0966796875 1703.95996094 c 0,8,9
 111.935546875 1740.78808594 111.935546875 1740.78808594 140.896484375 1748.24023438 c 0,10,11
 151.067382812 1750.14160156 151.067382812 1750.14160156 186.81640625 1749.87988281 c 0,12,13
 226.723632812 1749.21582031 226.723632812 1749.21582031 245.856445312 1741.6796875 c 1,14,15
 274.514648438 1716.11328125 274.514648438 1716.11328125 273.736328125 1669.51953125 c 0,16,17
 272.46484375 1640.33398438 272.46484375 1640.33398438 265.536132812 1633.44042969 c 0,18,19
 253.827148438 1623.68164062 253.827148438 1623.68164062 206.229492188 1625.72460938 c 0,20,21
 196.431640625 1626.14453125 196.431640625 1626.14453125 190.096679688 1625.24023438 c 0,22,23
 169.796875 1620.65820312 169.796875 1620.65820312 139.256835938 1594.08007812 c 1,24,25
 115.6875 1567.40625 115.6875 1567.40625 114.65625 1562.91992188 c 1,26,27
 119.153320312 1543.15234375 119.153320312 1543.15234375 176.9765625 1536.6796875 c 0,28,29
 197.276367188 1534.83496094 197.276367188 1534.83496094 255.556640625 1556.25488281 c 0,30,31
 268.271484375 1560.72167969 268.271484375 1560.72167969 277.016601562 1562.91992188 c 0,32,33
 285.438476562 1564.88476562 285.438476562 1564.88476562 314.736328125 1564.55957031 c 1,34,35
 356.068359375 1561.328125 356.068359375 1561.328125 365.576171875 1549.79980469 c 1,36,37
 373.208984375 1534.60058594 373.208984375 1534.60058594 372.13671875 1487.48046875 c 0,38,39
 371.1171875 1463.83203125 371.1171875 1463.83203125 367.216796875 1457.95996094 c 1,40,41
 358.323242188 1451.62207031 358.323242188 1451.62207031 337.696289062 1444.83984375 c 2,42,-1
 273.736328125 1420.24023438 l 2,43,44
 252.416992188 1412.04003906 252.416992188 1412.04003906 208.956054688 1395.63964844 c 0,45,46
 164.9765625 1379.03222656 164.9765625 1379.03222656 144.176757812 1371.04003906 c 0,47,48
 52.9013671875 1334.53027344 52.9013671875 1334.53027344 5.5380859375 1339.95019531 c 0,49,50
 -0.595703125 1340.75488281 -0.595703125 1340.75488281 -5.0634765625 1341.51953125 c 0,51,52
 -37.86328125 1348.08007812 -37.86328125 1348.08007812 -34.7265625 1411.27636719 c 2,53,-1
 -34.5830078125 1413.6796875 l 2,54,55
 -33.3203125 1438.125 -33.3203125 1438.125 -29.6630859375 1443.20019531 c 0,56,57
 -17.20703125 1458.22167969 -17.20703125 1458.22167969 29.376953125 1467.79980469 c 1,0,1
221.256835938 1679.36035156 m 1,58,59
 190.034179688 1723.72851562 190.034179688 1723.72851562 126.002929688 1671.12792969 c 0,60,61
 112.272460938 1659.30859375 112.272460938 1659.30859375 103.176757812 1648.20019531 c 1,62,63
 144.940429688 1673.2578125 144.940429688 1673.2578125 148.423828125 1674.34375 c 0,64,65
 152.900390625 1675.52636719 152.900390625 1675.52636719 155.65625 1676.08007812 c 0,66,67
 164.440429688 1677.43164062 164.440429688 1677.43164062 183.104492188 1676.23828125 c 0,68,69
 210.044921875 1675.20214844 210.044921875 1675.20214844 221.256835938 1679.36035156 c 1,58,59
58.896484375 1595.71972656 m 1,70,71
 29.625 1568.88867188 29.625 1568.88867188 47.51171875 1541.71679688 c 0,72,73
 52.56640625 1535.53320312 52.56640625 1535.53320312 57.2568359375 1531.75976562 c 1,74,-1
 58.896484375 1595.71972656 l 1,70,71
319.65625 1502.24023438 m 1,75,76
 311.099609375 1515.68652344 311.099609375 1515.68652344 273.498046875 1499.375 c 0,77,78
 266.984375 1496.72265625 266.984375 1496.72265625 263.896484375 1495.6796875 c 0,79,80
 241.91015625 1488.64453125 241.91015625 1488.64453125 163.541015625 1489.7890625 c 0,81,82
 148.073242188 1489.86816406 148.073242188 1489.86816406 137.616210938 1489.12011719 c 0,83,84
 133.243164062 1488.62988281 133.243164062 1488.62988281 103.176757812 1479.28027344 c 1,85,86
 110.451171875 1471.84375 110.451171875 1471.84375 135.9765625 1467.79980469 c 1,87,-1
 135.9765625 1466.16015625 l 1,88,-1
 103.176757812 1456.3203125 l 1,89,90
 110.451171875 1448.88378906 110.451171875 1448.88378906 135.9765625 1444.83984375 c 1,91,-1
 135.9765625 1443.20019531 l 1,92,93
 105.623046875 1437.56054688 105.623046875 1437.56054688 19.5361328125 1402.20019531 c 1,94,95
 27.3662109375 1385.23632812 27.3662109375 1385.23632812 88.2734375 1413.11523438 c 0,96,97
 91.38671875 1414.54003906 91.38671875 1414.54003906 93.3369140625 1415.3203125 c 0,98,99
 123.512695312 1427.12792969 123.512695312 1427.12792969 183.864257812 1449.69433594 c 0,100,101
 274.392578125 1483.54394531 274.392578125 1483.54394531 319.65625 1502.24023438 c 1,75,76
EndSplineSet
EndChar

StartChar: uni0655
Encoding: 1621 1621 321
Width: 42
VWidth: 1639
GlyphClass: 2
Flags: HW
AnchorPoint: "GposMark2BaseAnchorClassErabBelow_01_02" -52.3271 -106.339 mark 0
LayerCount: 2
Fore
SplineSet
-190.623046875 -388.6796875 m 1,0,1
 -219.252929688 -360.05078125 -219.252929688 -360.05078125 -220.311523438 -358.379882812 c 0,2,3
 -222.3984375 -354.654296875 -222.3984375 -354.654296875 -223.423828125 -352.599609375 c 0,4,5
 -230.366210938 -338.213867188 -230.366210938 -338.213867188 -229.983398438 -293.559570312 c 0,6,7
 -228.443359375 -217.52734375 -228.443359375 -217.52734375 -152.903320312 -152.51953125 c 0,8,9
 -108.064453125 -115.69140625 -108.064453125 -115.69140625 -79.103515625 -108.240234375 c 0,10,11
 -68.9326171875 -106.338867188 -68.9326171875 -106.338867188 -33.18359375 -106.599609375 c 0,12,13
 6.7236328125 -107.264648438 6.7236328125 -107.264648438 25.8564453125 -114.799804688 c 1,14,15
 54.5146484375 -140.3671875 54.5146484375 -140.3671875 53.736328125 -186.959960938 c 0,16,17
 52.46484375 -216.146484375 52.46484375 -216.146484375 45.5361328125 -223.040039062 c 0,18,19
 33.8271484375 -232.797851562 33.8271484375 -232.797851562 -13.7705078125 -230.755859375 c 0,20,21
 -24.046875 -230.577148438 -24.046875 -230.577148438 -29.9033203125 -231.240234375 c 0,22,23
 -50.203125 -235.822265625 -50.203125 -235.822265625 -80.7431640625 -262.400390625 c 1,24,25
 -104.3125 -289.073242188 -104.3125 -289.073242188 -105.34375 -293.559570312 c 1,26,27
 -100.846679688 -313.328125 -100.846679688 -313.328125 -43.0234375 -319.799804688 c 0,28,29
 -22.7236328125 -321.645507812 -22.7236328125 -321.645507812 35.556640625 -300.225585938 c 0,30,31
 48.271484375 -295.7578125 48.271484375 -295.7578125 57.0166015625 -293.559570312 c 0,32,33
 65.4384765625 -291.595703125 65.4384765625 -291.595703125 94.736328125 -291.919921875 c 1,34,35
 136.068359375 -295.15234375 136.068359375 -295.15234375 145.576171875 -306.6796875 c 1,36,37
 153.208984375 -321.87890625 153.208984375 -321.87890625 152.13671875 -369 c 0,38,39
 151.1171875 -392.647460938 151.1171875 -392.647460938 147.216796875 -398.51953125 c 1,40,41
 138.323242188 -404.858398438 138.323242188 -404.858398438 117.696289062 -411.639648438 c 2,42,-1
 53.736328125 -436.240234375 l 2,43,44
 32.4169921875 -444.440429688 32.4169921875 -444.440429688 -11.0439453125 -460.83984375 c 0,45,46
 -55.0234375 -477.447265625 -55.0234375 -477.447265625 -75.8232421875 -485.440429688 c 0,47,48
 -167.098632812 -521.950195312 -167.098632812 -521.950195312 -214.461914062 -516.530273438 c 0,49,50
 -220.595703125 -515.725585938 -220.595703125 -515.725585938 -225.063476562 -514.959960938 c 0,51,52
 -257.86328125 -508.400390625 -257.86328125 -508.400390625 -254.7265625 -445.204101562 c 2,53,-1
 -254.583007812 -442.799804688 l 2,54,55
 -253.3203125 -418.35546875 -253.3203125 -418.35546875 -249.663085938 -413.280273438 c 0,56,57
 -237.20703125 -398.258789062 -237.20703125 -398.258789062 -190.623046875 -388.6796875 c 1,0,1
1.2568359375 -177.120117188 m 1,58,59
 -29.9658203125 -132.750976562 -29.9658203125 -132.750976562 -93.9970703125 -185.352539062 c 0,60,61
 -107.727539062 -197.171875 -107.727539062 -197.171875 -116.823242188 -208.280273438 c 1,62,63
 -75.0595703125 -183.221679688 -75.0595703125 -183.221679688 -71.576171875 -182.135742188 c 0,64,65
 -67.099609375 -180.954101562 -67.099609375 -180.954101562 -64.34375 -180.400390625 c 0,66,67
 -55.5595703125 -179.048828125 -55.5595703125 -179.048828125 -36.8955078125 -180.2421875 c 0,68,69
 -9.955078125 -181.278320312 -9.955078125 -181.278320312 1.2568359375 -177.120117188 c 1,58,59
-161.103515625 -260.759765625 m 1,70,71
 -190.375 -287.591796875 -190.375 -287.591796875 -172.48828125 -314.763671875 c 0,72,73
 -168.764648438 -320.418945312 -168.764648438 -320.418945312 -162.743164062 -324.719726562 c 1,74,-1
 -161.103515625 -260.759765625 l 1,70,71
99.65625 -354.240234375 m 1,75,76
 91.099609375 -340.793945312 91.099609375 -340.793945312 53.498046875 -357.104492188 c 0,77,78
 46.984375 -359.7578125 46.984375 -359.7578125 43.896484375 -360.799804688 c 0,79,80
 21.91015625 -367.8359375 21.91015625 -367.8359375 -56.458984375 -366.69140625 c 0,81,82
 -71.9267578125 -366.611328125 -71.9267578125 -366.611328125 -82.3837890625 -367.360351562 c 0,83,84
 -86.7568359375 -367.849609375 -86.7568359375 -367.849609375 -116.823242188 -377.200195312 c 1,85,86
 -109.548828125 -384.635742188 -109.548828125 -384.635742188 -84.0234375 -388.6796875 c 1,87,-1
 -84.0234375 -390.3203125 l 1,88,-1
 -116.823242188 -400.16015625 l 1,89,90
 -109.548828125 -407.595703125 -109.548828125 -407.595703125 -84.0234375 -411.639648438 c 1,91,-1
 -84.0234375 -413.280273438 l 1,92,93
 -114.376953125 -418.919921875 -114.376953125 -418.919921875 -200.463867188 -454.280273438 c 1,94,95
 -192.633789062 -471.243164062 -192.633789062 -471.243164062 -131.7265625 -443.365234375 c 0,96,97
 -128.61328125 -441.939453125 -128.61328125 -441.939453125 -126.663085938 -441.16015625 c 0,98,99
 -96.4873046875 -429.3515625 -96.4873046875 -429.3515625 -36.1357421875 -406.78515625 c 0,100,101
 54.939453125 -372.66796875 54.939453125 -372.66796875 99.65625 -354.240234375 c 1,75,76
EndSplineSet
EndChar

StartChar: uni0656
Encoding: 1622 1622 322
Width: 60
VWidth: 1639
GlyphClass: 2
Flags: HW
AnchorPoint: "GposMark2BaseAnchorClassErabBelow_01_02" -29.9438 -101.323 mark 0
LayerCount: 2
Fore
SplineSet
-34.630859375 -106.599609375 m 0,0,1
 -13.365234375 -101.323242188 -13.365234375 -101.323242188 27.689453125 -104.959960938 c 0,2,3
 39.560546875 -106.259765625 39.560546875 -106.259765625 45.7294921875 -113.16015625 c 1,4,5
 52.8603515625 -126.489257812 52.8603515625 -126.489257812 50.6494140625 -183.6796875 c 1,6,7
 50.125 -286.23828125 50.125 -286.23828125 12.9296875 -398.51953125 c 0,8,9
 -0.560546875 -438.659179688 -0.560546875 -438.659179688 -13.310546875 -470.6796875 c 0,10,11
 -23.0927734375 -493.078125 -23.0927734375 -493.078125 -31.3505859375 -495.280273438 c 0,12,13
 -52.2880859375 -500.455078125 -52.2880859375 -500.455078125 -92.0302734375 -496.919921875 c 0,14,15
 -103.901367188 -495.620117188 -103.901367188 -495.620117188 -110.0703125 -488.719726562 c 0,16,17
 -112.748046875 -483.538085938 -112.748046875 -483.538085938 -111.709960938 -467.400390625 c 0,18,19
 -111.29296875 -423.927734375 -111.29296875 -423.927734375 -108.430664062 -411.639648438 c 0,20,21
 -101.314453125 -383.888671875 -101.314453125 -383.888671875 -82.7431640625 -329.569335938 c 0,22,23
 -58.4853515625 -257.927734375 -58.4853515625 -257.927734375 -51.0302734375 -221.400390625 c 0,24,25
 -50.466796875 -218.865234375 -50.466796875 -218.865234375 -45.3564453125 -144.447265625 c 0,26,27
 -44.8818359375 -138.461914062 -44.8818359375 -138.461914062 -44.470703125 -134.48046875 c 0,28,29
 -44.470703125 -111.97265625 -44.470703125 -111.97265625 -40.7412109375 -109.192382812 c 0,30,31
 -37.0625 -107.385742188 -37.0625 -107.385742188 -34.630859375 -106.599609375 c 0,0,1
3.08984375 -162.360351562 m 1,32,-1
 1.44921875 -195.16015625 l 1,33,-1
 3.08984375 -195.16015625 l 1,34,-1
 3.08984375 -162.360351562 l 1,32,-1
EndSplineSet
EndChar

StartChar: uni0670
Encoding: 1648 1648 326
Width: 60
VWidth: 1639
GlyphClass: 2
Flags: HW
AnchorPoint: "GposMark2BaseAnchorHamzaErabAbove_01_01" 137.056 1337.99 mark 0
AnchorPoint: "GposMark2BaseAnchorHamzaErabBelow_01_01" 137.056 1737.12 mark 0
AnchorPoint: "GposMark2BaseAnchorClassErabAbove_01_02" 137.056 1337.99 mark 0
AnchorPoint: "GposMark2MarkAnchorHamzaErabAbove_01_01" 137.056 1337.99 mark 0
AnchorPoint: "GposMark2MarkAnchorHamzaErabBelow_01_01" 137.056 1737.12 mark 0
AnchorPoint: "GposMark2MarkAnchorShaddaErabAbove_01_02" 137.056 1337.99 mark 0
AnchorPoint: "GposMark2MarkAnchorShaddaErabBelow_01_02" 137.056 1737.12 mark 0
LayerCount: 2
Fore
SplineSet
132.369140625 1731.83984375 m 0,0,1
 153.634765625 1737.1171875 153.634765625 1737.1171875 194.689453125 1733.48046875 c 0,2,3
 206.560546875 1732.1796875 206.560546875 1732.1796875 212.729492188 1725.28027344 c 1,4,5
 219.860351562 1711.95019531 219.860351562 1711.95019531 217.649414062 1654.75976562 c 1,6,7
 217.125 1552.20214844 217.125 1552.20214844 179.9296875 1439.91992188 c 0,8,9
 166.439453125 1399.78027344 166.439453125 1399.78027344 153.689453125 1367.75976562 c 0,10,11
 143.907226562 1345.36132812 143.907226562 1345.36132812 135.649414062 1343.16015625 c 0,12,13
 114.711914062 1337.98535156 114.711914062 1337.98535156 74.9697265625 1341.51953125 c 0,14,15
 63.0986328125 1342.8203125 63.0986328125 1342.8203125 56.9296875 1349.71972656 c 0,16,17
 54.251953125 1354.90234375 54.251953125 1354.90234375 55.2900390625 1371.04003906 c 0,18,19
 55.70703125 1414.51171875 55.70703125 1414.51171875 58.5693359375 1426.79980469 c 0,20,21
 65.685546875 1454.55078125 65.685546875 1454.55078125 84.2568359375 1508.87011719 c 0,22,23
 108.514648438 1580.51269531 108.514648438 1580.51269531 115.969726562 1617.04003906 c 0,24,25
 116.533203125 1619.57421875 116.533203125 1619.57421875 121.643554688 1693.9921875 c 0,26,27
 122.118164062 1699.97851562 122.118164062 1699.97851562 122.529296875 1703.95996094 c 0,28,29
 122.529296875 1726.46777344 122.529296875 1726.46777344 126.258789062 1729.24707031 c 0,30,31
 129.9375 1731.05371094 129.9375 1731.05371094 132.369140625 1731.83984375 c 0,0,1
170.08984375 1676.08007812 m 1,32,-1
 168.44921875 1643.28027344 l 1,33,-1
 170.08984375 1643.28027344 l 1,34,-1
 170.08984375 1676.08007812 l 1,32,-1
EndSplineSet
EndChar

StartChar: uni0674
Encoding: 1652 1652 327
Width: 110
GlyphClass: 2
Flags: HW
AnchorPoint: "GposMark2BaseAnchorClassErabAbove_01_02" 359.5 1014 mark 0
AnchorPoint: "GposMark2MarkAnchorHamzaErabAbove_01_01" 359.5 1579 basemark 0
AnchorPoint: "GposMark2MarkAnchorHamzaErabBelow_01_01" 359.5 864 basemark 0
LayerCount: 2
Fore
SplineSet
533 1178 m 2,0,1
 528 1160 528 1160 521 1145 c 128,-1,2
 514 1130 514 1130 509 1129 c 0,3,4
 461 1118 461 1118 421 1109 c 128,-1,5
 381 1100 381 1100 363 1095 c 0,6,7
 317 1082 317 1082 274 1062 c 128,-1,8
 231 1042 231 1042 196 1018 c 1,9,10
 192 1014 192 1014 188 1014 c 0,11,12
 185 1014 185 1014 180 1018 c 128,-1,13
 175 1022 175 1022 175 1025 c 256,14,15
 175 1028 175 1028 180 1032 c 1,16,-1
 180 1031 l 1,17,18
 191 1051 191 1051 217 1076 c 128,-1,19
 243 1101 243 1101 283 1136 c 1,20,21
 195 1171 195 1171 195 1233 c 0,22,23
 195 1282 195 1282 269 1355 c 1,24,25
 346 1429 346 1429 410 1429 c 0,26,27
 421 1429 421 1429 433.5 1425.5 c 128,-1,28
 446 1422 446 1422 456 1415.5 c 128,-1,29
 466 1409 466 1409 472.5 1400.5 c 128,-1,30
 479 1392 479 1392 479 1382 c 0,31,32
 479 1368 479 1368 475.5 1353.5 c 128,-1,33
 472 1339 472 1339 466 1327 c 128,-1,34
 460 1315 460 1315 452.5 1307.5 c 128,-1,35
 445 1300 445 1300 437 1300 c 0,36,37
 433 1300 433 1300 425.5 1307.5 c 128,-1,38
 418 1315 418 1315 408 1323.5 c 128,-1,39
 398 1332 398 1332 385.5 1339.5 c 128,-1,40
 373 1347 373 1347 359 1347 c 256,41,42
 345 1347 345 1347 329 1339.5 c 128,-1,43
 313 1332 313 1332 299 1321.5 c 128,-1,44
 285 1311 285 1311 276 1299 c 128,-1,45
 267 1287 267 1287 267 1277 c 0,46,47
 267 1259 267 1259 279 1244 c 128,-1,48
 291 1229 291 1229 309.5 1218 c 128,-1,49
 328 1207 328 1207 352 1201 c 128,-1,50
 376 1195 376 1195 400 1195 c 0,51,52
 403 1195 403 1195 424 1200 c 128,-1,53
 445 1205 445 1205 470 1210.5 c 128,-1,54
 495 1216 495 1216 517 1221 c 128,-1,55
 539 1226 539 1226 544 1226 c 1,56,-1
 533 1178 l 2,0,1
EndSplineSet
EndChar

StartChar: afii57388
Encoding: 1548 1548 329
Width: 621
VWidth: 1639
GlyphClass: 2
Flags: W
LayerCount: 2
Fore
SplineSet
302.440429688 273.879882812 m 1,0,1
 369.126953125 250.737304688 369.126953125 250.737304688 369.680664062 134.48046875 c 1,2,3
 367.580078125 10.7587890625 367.580078125 10.7587890625 284.400390625 -18.0400390625 c 0,4,5
 260.373046875 -25.4755859375 260.373046875 -25.4755859375 199.120117188 -21.3203125 c 1,6,7
 185.067382812 -18.7216796875 185.067382812 -18.7216796875 167.959960938 -13.1201171875 c 1,8,9
 106.682617188 13.37890625 106.682617188 13.37890625 104.212890625 109.75390625 c 0,10,11
 104.012695312 119.161132812 104.012695312 119.161132812 104 129.559570312 c 0,10,11
 105.151367188 247.915039062 105.151367188 247.915039062 199.120117188 367.360351562 c 0,12,13
 247.883789062 430.848632812 247.883789062 430.848632812 290.959960938 455.919921875 c 0,14,15
 313.025390625 467.528320312 313.025390625 467.528320312 364.760742188 467.400390625 c 0,16,17
 393.733398438 466.385742188 393.733398438 466.385742188 402.48046875 460.83984375 c 0,18,19
 412.852539062 452.470703125 412.852539062 452.470703125 412.3203125 426.400390625 c 1,20,21
 414.923828125 379.543945312 414.923828125 379.543945312 395.775390625 360.322265625 c 0,22,23
 392.59765625 357.333007812 392.59765625 357.333007812 391 355.879882812 c 0,22,23
 332.49609375 309.12109375 332.49609375 309.12109375 302.440429688 273.879882812 c 1,0,1
356.560546875 416.559570312 m 1,24,25
 318.137695312 411.625 318.137695312 411.625 268 349.3203125 c 1,26,27
 241.4609375 319.103515625 241.4609375 319.103515625 230.280273438 303.400390625 c 0,28,29
 211.147460938 276.61328125 211.147460938 276.61328125 205.680664062 265.6796875 c 0,30,31
 111.515625 110.319335938 111.515625 110.319335938 187.640625 49.2001953125 c 0,32,33
 204.3125 36.224609375 204.3125 36.224609375 220.440429688 31.16015625 c 0,34,35
 263.809570312 16.1474609375 263.809570312 16.1474609375 303.706054688 84.7861328125 c 0,36,37
 311.4296875 98.6318359375 311.4296875 98.6318359375 315.560546875 109.879882812 c 0,36,37
 337.649414062 168.2578125 337.649414062 168.2578125 283.796875 213.280273438 c 0,38,39
 256.739257812 234.649414062 256.739257812 234.649414062 225.360351562 239.440429688 c 1,38,-1
 240.120117188 259.120117188 l 1,39,-1
 225.360351562 262.400390625 l 1,40,-1
 240.120117188 282.080078125 l 1,41,-1
 225.360351562 285.360351562 l 1,42,43
 256.528320312 326.879882812 256.528320312 326.879882812 307.360351562 372.280273438 c 1,44,45
 347.422851562 403.439453125 347.422851562 403.439453125 349.711914062 406.129882812 c 0,46,47
 354.235351562 411.446289062 354.235351562 411.446289062 356.560546875 416.559570312 c 1,24,25
EndSplineSet
EndChar

StartChar: afii57403
Encoding: 1563 1563 334
Width: 621
VWidth: 1639
GlyphClass: 2
Flags: W
LayerCount: 2
Fore
SplineSet
302.440429688 675.6796875 m 1,0,1
 369.126953125 652.537109375 369.126953125 652.537109375 369.680664062 536.280273438 c 1,2,3
 367.580078125 412.55859375 367.580078125 412.55859375 284.400390625 383.759765625 c 0,4,5
 260.373046875 376.32421875 260.373046875 376.32421875 199.120117188 380.48046875 c 1,6,7
 185.067382812 383.079101562 185.067382812 383.079101562 167.959960938 388.6796875 c 1,8,9
 106.682617188 415.178710938 106.682617188 415.178710938 104.212890625 511.553710938 c 0,10,11
 104.012695312 520.9609375 104.012695312 520.9609375 104 531.360351562 c 0,10,11
 105.151367188 649.71484375 105.151367188 649.71484375 199.120117188 769.16015625 c 0,12,13
 247.883789062 832.6484375 247.883789062 832.6484375 290.959960938 857.719726562 c 0,14,15
 313.025390625 869.328125 313.025390625 869.328125 364.760742188 869.200195312 c 0,16,17
 393.733398438 868.185546875 393.733398438 868.185546875 402.48046875 862.639648438 c 0,18,19
 412.852539062 854.270507812 412.852539062 854.270507812 412.3203125 828.200195312 c 1,20,21
 414.923828125 781.34375 414.923828125 781.34375 395.775390625 762.122070312 c 0,22,23
 392.59765625 759.1328125 392.59765625 759.1328125 391 757.6796875 c 0,22,23
 332.49609375 710.920898438 332.49609375 710.920898438 302.440429688 675.6796875 c 1,0,1
356.560546875 818.360351562 m 1,24,25
 318.137695312 813.424804688 318.137695312 813.424804688 268 751.120117188 c 1,26,27
 241.4609375 720.903320312 241.4609375 720.903320312 230.280273438 705.200195312 c 0,28,29
 211.147460938 678.413085938 211.147460938 678.413085938 205.680664062 667.48046875 c 0,30,31
 111.515625 512.119140625 111.515625 512.119140625 187.640625 451 c 0,32,33
 204.3125 438.024414062 204.3125 438.024414062 220.440429688 432.959960938 c 0,34,35
 263.809570312 417.947265625 263.809570312 417.947265625 303.706054688 486.5859375 c 0,36,37
 311.4296875 500.432617188 311.4296875 500.432617188 315.560546875 511.6796875 c 0,36,37
 337.649414062 570.05859375 337.649414062 570.05859375 283.796875 615.080078125 c 0,38,39
 256.739257812 636.44921875 256.739257812 636.44921875 225.360351562 641.240234375 c 1,38,-1
 240.120117188 660.919921875 l 1,39,-1
 225.360351562 664.200195312 l 1,40,-1
 240.120117188 683.879882812 l 1,41,-1
 225.360351562 687.16015625 l 1,42,43
 256.528320312 728.6796875 256.528320312 728.6796875 307.360351562 774.080078125 c 1,44,45
 347.422851562 805.239257812 347.422851562 805.239257812 349.711914062 807.9296875 c 0,46,47
 354.319335938 814.065429688 354.319335938 814.065429688 356.560546875 818.360351562 c 1,24,25
205.680664062 257.48046875 m 0,46,47
 299.240234375 267.194335938 299.240234375 267.194335938 331.959960938 224.6796875 c 0,48,49
 349.984375 200.127929688 349.984375 200.127929688 350 144.3203125 c 0,50,51
 347.678710938 -9.3115234375 347.678710938 -9.3115234375 254.880859375 -24.599609375 c 1,52,53
 163.547851562 -34.11328125 163.547851562 -34.11328125 126.959960938 6.5595703125 c 1,54,55
 105.767578125 34.8115234375 105.767578125 34.8115234375 105.640625 93.48046875 c 0,56,57
 105.640625 222.65625 105.640625 222.65625 183.75 251.9140625 c 0,58,59
 195.0703125 255.765625 195.0703125 255.765625 205.680664062 257.48046875 c 0,46,47
236.840820312 208.280273438 m 0,58,59
 193.490234375 204.338867188 193.490234375 204.338867188 163.743164062 135.272460938 c 0,60,61
 162.216796875 131.596679688 162.216796875 131.596679688 161.400390625 129.559570312 c 0,60,61
 154.140625 105.59765625 154.140625 105.59765625 154.840820312 98.400390625 c 0,62,63
 156.883789062 59.5771484375 156.883789062 59.5771484375 191.046875 35.599609375 c 0,64,65
 207.334960938 25.5107421875 207.334960938 25.5107421875 222.080078125 26.240234375 c 0,64,65
 235.200195312 26.240234375 235.200195312 26.240234375 256.818359375 44.798828125 c 2,66,-1
 258.16015625 45.919921875 l 1,66,67
 308.91015625 93.68359375 308.91015625 93.68359375 300.594726562 147.235351562 c 0,68,69
 299.7734375 151.549804688 299.7734375 151.549804688 299.16015625 154.16015625 c 0,68,69
 284.834960938 197.13671875 284.834960938 197.13671875 250.41015625 206.758789062 c 0,70,71
 242.782226562 208.361328125 242.782226562 208.361328125 236.840820312 208.280273438 c 0,58,59
EndSplineSet
EndChar

StartChar: afii57407
Encoding: 1567 1567 335
Width: 929
VWidth: 1639
GlyphClass: 2
Flags: W
LayerCount: 2
Fore
SplineSet
341.799804688 1146.36035156 m 1,0,1
 489.229492188 1165.08105469 489.229492188 1165.08105469 602.223632812 1086.23632812 c 0,2,3
 622.625 1071.58398438 622.625 1071.58398438 638.639648438 1056.16015625 c 0,2,3
 678.594726562 1016.20507812 678.594726562 1016.20507812 676.360351562 947.919921875 c 1,4,5
 672.923828125 916.998046875 672.923828125 916.998046875 669.073242188 912.470703125 c 0,6,7
 666.177734375 909.715820312 666.177734375 909.715820312 664.879882812 908.559570312 c 0,6,7
 651.721679688 902.512695312 651.721679688 902.512695312 599.280273438 903.639648438 c 0,8,9
 582.62109375 904.62109375 582.62109375 904.62109375 576.3203125 908.559570312 c 0,10,11
 572.983398438 910.784179688 572.983398438 910.784179688 557.03125 934.7421875 c 0,12,13
 554.533203125 938.184570312 554.533203125 938.184570312 553.360351562 939.719726562 c 0,12,13
 536.616210938 962.143554688 536.616210938 962.143554688 509.080078125 979.080078125 c 0,14,15
 452.956054688 1013.60742188 452.956054688 1013.60742188 405.759765625 1018.44042969 c 0,16,17
 332.407226562 1025.42578125 332.407226562 1025.42578125 274.432617188 973.0859375 c 0,18,19
 241.78515625 941.995117188 241.78515625 941.995117188 235.200195312 905.280273438 c 0,18,19
 230.169921875 879.952148438 230.169921875 879.952148438 253.240234375 846.240234375 c 0,20,21
 286.856445312 797.891601562 286.856445312 797.891601562 379.520507812 762.599609375 c 0,22,23
 395.952148438 756.375976562 395.952148438 756.375976562 430.228515625 744.4609375 c 0,24,25
 566.135742188 697.220703125 566.135742188 697.220703125 615.619140625 650.674804688 c 0,26,27
 651.170898438 615.958007812 651.170898438 615.958007812 668.16015625 572.360351562 c 0,24,25
 680.459960938 537.919921875 680.459960938 537.919921875 682.919921875 503.48046875 c 0,26,27
 691.028320312 417.669921875 691.028320312 417.669921875 678 350.959960938 c 1,28,29
 665.974609375 307.137695312 665.974609375 307.137695312 645.200195312 298.48046875 c 0,30,31
 636.724609375 296.518554688 636.724609375 296.518554688 609.120117188 296.83984375 c 0,32,33
 574.752929688 297.37890625 574.752929688 297.37890625 566.48046875 300.120117188 c 0,34,35
 546.84765625 310.176757812 546.84765625 310.176757812 546.799804688 347.6796875 c 2,36,37
 546.799804688 391.959960938 l 1,38,39
 560.059570312 453.836914062 560.059570312 453.836914062 560.092773438 456.032226562 c 0,40,41
 560.033203125 460.125976562 560.033203125 460.125976562 559.919921875 462.48046875 c 0,40,41
 554.547851562 511.313476562 554.547851562 511.313476562 504.16015625 559.240234375 c 0,42,43
 478.44140625 583.604492188 478.44140625 583.604492188 402.98828125 611.345703125 c 0,44,45
 399.370117188 612.685546875 399.370117188 612.685546875 397.559570312 613.360351562 c 0,44,45
 265.981445312 658.215820312 265.981445312 658.215820312 231.643554688 677.453125 c 0,46,47
 204.345703125 693.192382812 204.345703125 693.192382812 184.360351562 710.120117188 c 0,46,47
 104.48046875 781.443359375 104.48046875 781.443359375 104 911.83984375 c 1,48,49
 105.297851562 1011.40429688 105.297851562 1011.40429688 154.83984375 1066 c 0,50,51
 212.473632812 1127.6640625 212.473632812 1127.6640625 341.799804688 1146.36035156 c 1,0,1
622.240234375 956.120117188 m 1,52,53
 626.258789062 971.043945312 626.258789062 971.043945312 607.48046875 993.83984375 c 0,54,55
 581.491210938 1026.49511719 581.491210938 1026.49511719 525.48046875 1057.79980469 c 0,56,57
 459.9453125 1095.1640625 459.9453125 1095.1640625 392.639648438 1100.44042969 c 1,58,59
 302.973632812 1104.92285156 302.973632812 1104.92285156 222.119140625 1039.57324219 c 0,60,61
 211.74609375 1030.91015625 211.74609375 1030.91015625 204.040039062 1023.36035156 c 0,60,61
 173.494140625 991.541992188 173.494140625 991.541992188 161.400390625 954.48046875 c 0,62,63
 128.477539062 861.88671875 128.477539062 861.88671875 212.936523438 772.771484375 c 0,64,65
 222.123046875 763.359375 222.123046875 763.359375 230.280273438 756.040039062 c 0,64,65
 282.276367188 711.265625 282.276367188 711.265625 422.987304688 665.447265625 c 0,66,67
 438.704101562 660.317382812 438.704101562 660.317382812 446.759765625 657.639648438 c 0,66,67
 522.633789062 630.424804688 522.633789062 630.424804688 550.080078125 605.16015625 c 0,68,69
 623.092773438 532.103515625 623.092773438 532.103515625 604.200195312 401.799804688 c 0,70,71
 603.600585938 397.604492188 603.600585938 397.604492188 601.487304688 387.721679688 c 0,72,73
 597.639648438 369.724609375 597.639648438 369.724609375 597.639648438 362.440429688 c 1,72,73
 602.860351562 351.323242188 602.860351562 351.323242188 610.759765625 350.959960938 c 1,74,75
 628.799804688 359.16015625 628.799804688 359.16015625 633.629882812 410.736328125 c 2,76,-1
 633.719726562 411.639648438 l 1,76,77
 649.93359375 514.7421875 649.93359375 514.7421875 577.959960938 598.599609375 c 0,78,79
 544.385742188 635.2265625 544.385742188 635.2265625 457.330078125 668.006835938 c 0,80,81
 452.369140625 669.87890625 452.369140625 669.87890625 450.040039062 670.759765625 c 0,80,81
 430.360351562 678.139648438 430.360351562 678.139648438 391.8203125 693.719726562 c 0,82,83
 352.703125 709.485351562 352.703125 709.485351562 333.599609375 716.6796875 c 0,82,83
 244.450195312 749.723632812 244.450195312 749.723632812 210.599609375 795.400390625 c 1,84,85
 186.297851562 831.638671875 186.297851562 831.638671875 186 883.959960938 c 0,86,87
 186.6875 954.212890625 186.6875 954.212890625 195.83984375 975.799804688 c 0,88,89
 239.69140625 1065.54785156 239.69140625 1065.54785156 397.559570312 1066 c 0,90,91
 442.4765625 1065.765625 442.4765625 1065.765625 464.799804688 1062.71972656 c 1,92,93
 536.275390625 1046.90527344 536.275390625 1046.90527344 579.599609375 1006.95996094 c 1,94,95
 601.407226562 984.59375 601.407226562 984.59375 604.200195312 980.719726562 c 0,96,97
 618.934570312 958.231445312 618.934570312 958.231445312 622.240234375 956.120117188 c 1,52,53
576.3203125 259.120117188 m 0,98,99
 670.625976562 269.390625 670.625976562 269.390625 702.599609375 227.959960938 c 1,100,101
 720.501953125 201.157226562 720.501953125 201.157226562 720.639648438 149.240234375 c 0,102,103
 718.362304688 -8.0908203125 718.362304688 -8.0908203125 628.799804688 -22.9599609375 c 1,104,105
 531.846679688 -32.228515625 531.846679688 -32.228515625 495.959960938 11.48046875 c 0,106,107
 476.294921875 37.7978515625 476.294921875 37.7978515625 476.280273438 95.1201171875 c 0,108,109
 476.280273438 234.708984375 476.280273438 234.708984375 564.715820312 256.856445312 c 0,110,111
 571.243164062 258.3203125 571.243164062 258.3203125 576.3203125 259.120117188 c 0,98,99
607.48046875 209.919921875 m 0,110,111
 563.579101562 202.1484375 563.579101562 202.1484375 532.040039062 132.83984375 c 1,112,113
 524.151367188 107.561523438 524.151367188 107.561523438 523.83984375 100.040039062 c 0,114,115
 525.86328125 61.6064453125 525.86328125 61.6064453125 563.204101562 36.265625 c 0,116,117
 579.827148438 26.17578125 579.827148438 26.17578125 594.360351562 26.240234375 c 1,116,117
 610.327148438 29.4169921875 610.327148438 29.4169921875 630.440429688 49.2001953125 c 0,118,119
 678.301757812 97.0615234375 678.301757812 97.0615234375 672.045898438 145.58203125 c 0,120,121
 670.987304688 151.637695312 670.987304688 151.637695312 669.799804688 155.799804688 c 0,120,121
 655.474609375 198.77734375 655.474609375 198.77734375 621.049804688 208.3984375 c 0,122,123
 613.421875 210.001953125 613.421875 210.001953125 607.48046875 209.919921875 c 0,110,111
EndSplineSet
EndChar

StartChar: afii57409
Encoding: 1569 1569 336
AltUni2: 00fe80.ffffffff.0
Width: 781
VWidth: 1639
GlyphClass: 2
Flags: HW
AnchorPoint: "GposMark2BaseAnchorHamzaErabAbove_01_01" 312.356 643.057 basechar 0
AnchorPoint: "GposMark2BaseAnchorHamzaErabBelow_01_01" 312.356 -172.96 basechar 0
LayerCount: 2
Fore
SplineSet
154.20703125 131.200195312 m 1,0,1
 113.120117188 173.2734375 113.120117188 173.2734375 98.447265625 203.360351562 c 1,2,3
 83.796875 238.076171875 83.796875 238.076171875 83.6875 290.280273438 c 0,4,5
 85.037109375 370.864257812 85.037109375 370.864257812 119.766601562 408.360351562 c 0,6,7
 193.864257812 486.907226562 193.864257812 486.907226562 341.166992188 490.360351562 c 0,8,9
 436.598632812 493.056640625 436.598632812 493.056640625 470.7265625 470.6796875 c 0,10,11
 517.782226562 439.913085938 517.782226562 439.913085938 506.616210938 356.352539062 c 0,12,13
 503.772460938 337.58984375 503.772460938 337.58984375 498.607421875 323.080078125 c 0,14,15
 481.70703125 282.3515625 481.70703125 282.3515625 459.247070312 277.16015625 c 0,16,17
 451.375 276.17578125 451.375 276.17578125 435.630859375 277.75 c 0,18,19
 425.134765625 278.799804688 425.134765625 278.799804688 419.88671875 278.799804688 c 0,20,21
 401.244140625 279.866210938 401.244140625 279.866210938 400.20703125 280.440429688 c 0,22,23
 398.743164062 284.36328125 398.743164062 284.36328125 400.20703125 301.759765625 c 0,24,25
 400.20703125 306.490234375 400.20703125 306.490234375 399.434570312 316.90625 c 0,26,27
 398.567382812 328.598632812 398.567382812 328.598632812 398.567382812 334.559570312 c 0,28,29
 398.01171875 337.893554688 398.01171875 337.893554688 398.766601562 344.05859375 c 0,30,31
 398.310546875 355.904296875 398.310546875 355.904296875 393.647460938 360.799804688 c 0,32,33
 381.684570312 369.458984375 381.684570312 369.458984375 347.7265625 360.799804688 c 1,34,35
 283.143554688 348.317382812 283.143554688 348.317382812 242.766601562 319.799804688 c 1,36,37
 217.576171875 298.135742188 217.576171875 298.135742188 214.88671875 288.639648438 c 1,38,39
 214.376953125 257.885742188 214.376953125 257.885742188 270.647460938 221.400390625 c 0,40,41
 313.515625 194.807617188 313.515625 194.807617188 352.647460938 191.879882812 c 1,42,43
 396.013671875 192.547851562 396.013671875 192.547851562 474.006835938 229.599609375 c 0,44,45
 481.830078125 233.8125 481.830078125 233.8125 497.055664062 243.576171875 c 0,46,47
 524.11328125 260.44921875 524.11328125 260.44921875 537.966796875 265.6796875 c 0,48,49
 542.65234375 267.5546875 542.65234375 267.5546875 552.024414062 267.018554688 c 0,50,51
 559.052734375 266.6171875 559.052734375 266.6171875 562.567382812 267.3203125 c 0,52,53
 605.943359375 267.3203125 605.943359375 267.3203125 614.721679688 258.541015625 c 0,54,55
 618.1796875 254.1484375 618.1796875 254.1484375 619.966796875 250.919921875 c 0,56,57
 625.859375 234.864257812 625.859375 234.864257812 624.88671875 180.400390625 c 0,58,59
 623.659179688 158.56640625 623.659179688 158.56640625 616.6875 149.240234375 c 0,60,61
 600.838867188 132.259765625 600.838867188 132.259765625 527.595703125 102.34765625 c 0,62,63
 521.727539062 99.900390625 521.727539062 99.900390625 518.287109375 98.400390625 c 0,64,65
 358.807617188 33.892578125 358.807617188 33.892578125 196.846679688 -4.919921875 c 0,66,67
 118.673828125 -22.9599609375 118.673828125 -22.9599609375 68.9267578125 -22.9599609375 c 0,68,69
 33.732421875 -22.58984375 33.732421875 -22.58984375 27.9267578125 -21.3203125 c 0,70,71
 -1.1474609375 -6.5625 -1.1474609375 -6.5625 0.046875 55.759765625 c 0,72,73
 1.26171875 80.5791015625 1.26171875 80.5791015625 6.607421875 86.919921875 c 1,74,75
 14.587890625 92.875 14.587890625 92.875 52.52734375 101.6796875 c 1,76,77
 146.91796875 128.6484375 146.91796875 128.6484375 154.20703125 131.200195312 c 1,0,1
452.6875 367.360351562 m 1,78,79
 463.696289062 417.689453125 463.696289062 417.689453125 392.978515625 438.23828125 c 0,80,81
 373.516601562 443.530273438 373.516601562 443.530273438 355.926757812 444.440429688 c 0,82,83
 270.640625 448.813476562 270.640625 448.813476562 189.8671875 384.487304688 c 0,84,85
 178.780273438 375.365234375 178.780273438 375.365234375 170.607421875 367.360351562 c 0,86,87
 134.4453125 329.545898438 134.4453125 329.545898438 131.247070312 295.200195312 c 1,88,89
 130.42578125 256.6953125 130.42578125 256.6953125 177.166992188 201.719726562 c 0,90,91
 216.963867188 156.969726562 216.963867188 156.969726562 247.6875 145.959960938 c 1,92,-1
 221.447265625 137.759765625 l 1,93,-1
 221.447265625 136.120117188 l 1,94,-1
 247.6875 123 l 1,95,-1
 221.447265625 114.799804688 l 1,96,-1
 221.447265625 113.16015625 l 1,97,-1
 247.6875 100.040039062 l 1,98,99
 230.197265625 92.67578125 230.197265625 92.67578125 118.462890625 64.6416015625 c 0,100,101
 78.1943359375 54.21875 78.1943359375 54.21875 52.52734375 42.6396484375 c 1,102,103
 61.5712890625 24.0419921875 61.5712890625 24.0419921875 90.2470703125 29.51953125 c 0,104,105
 110.42578125 32.5234375 110.42578125 32.5234375 157.487304688 42.6396484375 c 0,106,107
 295.787109375 72.732421875 295.787109375 72.732421875 470.7265625 144.3203125 c 0,108,109
 520.93359375 165.231445312 520.93359375 165.231445312 551.086914062 182.040039062 c 0,110,111
 574.955078125 197.075195312 574.955078125 197.075195312 570.766601562 211.559570312 c 1,112,113
 556.352539062 206.154296875 556.352539062 206.154296875 528.463867188 190.366210938 c 0,114,115
 504.924804688 177.24609375 504.924804688 177.24609375 493.6875 172.200195312 c 0,116,117
 358.377929688 116.837890625 358.377929688 116.837890625 255.88671875 159.080078125 c 1,118,119
 183.850585938 192.376953125 183.850585938 192.376953125 167.327148438 246 c 0,120,121
 163.807617188 258.217773438 163.807617188 258.217773438 164.046875 290.280273438 c 0,122,123
 165.19921875 330.479492188 165.19921875 330.479492188 175.52734375 344.400390625 c 0,124,125
 228.893554688 412.728515625 228.893554688 412.728515625 372.327148438 413.280273438 c 0,126,127
 376.451171875 413.280273438 376.451171875 413.280273438 386.83984375 413.995117188 c 0,128,129
 427.845703125 415.831054688 427.845703125 415.831054688 439.567382812 406.719726562 c 0,130,131
 451.00390625 396.88671875 451.00390625 396.88671875 451.046875 367.360351562 c 1,132,-1
 452.6875 367.360351562 l 1,78,79
EndSplineSet
EndChar

StartChar: afii57410
Encoding: 1570 1570 337
AltUni2: 00fe81.ffffffff.0
Width: 362
VWidth: 1639
GlyphClass: 2
Flags: W
LayerCount: 2
Fore
SplineSet
-41.654296875 1175.87988281 m 1,0,1
 -41.4736328125 1156.75390625 -41.4736328125 1156.75390625 -33.4541015625 1085.6796875 c 0,2,3
 -30.6337890625 1049.16503906 -30.6337890625 1049.16503906 -41.654296875 1036.48046875 c 1,4,5
 -53.1943359375 1028.61914062 -53.1943359375 1028.61914062 -69.5341796875 1028.28027344 c 0,6,7
 -74.0458984375 1028.28027344 -74.0458984375 1028.28027344 -84.8994140625 1027.52050781 c 0,8,9
 -131.260742188 1025.61230469 -131.260742188 1025.61230469 -143.333984375 1039.75976562 c 0,8,9
 -155.71875 1056.234375 -155.71875 1056.234375 -159.734375 1111.91992188 c 0,10,11
 -171.754882812 1231.94335938 -171.754882812 1231.94335938 -166.293945312 1305.44042969 c 1,12,13
 -159.596679688 1373.28417969 -159.596679688 1373.28417969 -133.494140625 1380.87988281 c 0,14,15
 -129.122070312 1381.55957031 -129.122070312 1381.55957031 -117.094726562 1380.87988281 c 2,16,17
 -74.4541015625 1380.87988281 l 1,18,19
 -43.0029296875 1373.01757812 -43.0029296875 1373.01757812 23.8994140625 1319.56738281 c 0,20,21
 38.091796875 1308.38867188 38.091796875 1308.38867188 46.9052734375 1302.16015625 c 0,20,21
 108.053710938 1262.37109375 108.053710938 1262.37109375 150.225585938 1257.87988281 c 0,22,23
 190.723632812 1254.62109375 190.723632812 1254.62109375 250.265625 1280.83984375 c 1,24,25
 322.185546875 1318.59570312 322.185546875 1318.59570312 347.025390625 1403.83984375 c 0,26,27
 349.028320312 1411.84863281 349.028320312 1411.84863281 351.533203125 1429.59960938 c 0,28,29
 358.323242188 1471.6796875 358.323242188 1471.6796875 369.985351562 1487.48046875 c 1,28,29
 386.706054688 1501.14746094 386.706054688 1501.14746094 430.666015625 1498.95996094 c 0,30,31
 459.157226562 1497.484375 459.157226562 1497.484375 466.74609375 1490.75976562 c 1,32,33
 479.446289062 1471.91894531 479.446289062 1471.91894531 478.225585938 1418.59960938 c 0,34,35
 477.030273438 1300.23535156 477.030273438 1300.23535156 404.42578125 1216.87988281 c 1,36,37
 321.2734375 1125.45605469 321.2734375 1125.45605469 156.786132812 1125.04003906 c 0,38,39
 33.1298828125 1126.04980469 33.1298828125 1126.04980469 -41.654296875 1175.87988281 c 1,0,1
420.826171875 1444.83984375 m 1,40,-1
 417.545898438 1444.83984375 l 1,41,42
 409.551757812 1432.40527344 409.551757812 1432.40527344 397.903320312 1381.14355469 c 0,43,44
 396.858398438 1376.79101562 396.858398438 1376.79101562 396.225585938 1374.3203125 c 0,43,44
 387.640625 1332.12695312 387.640625 1332.12695312 366.706054688 1298.87988281 c 0,45,46
 310.8125 1210.82421875 310.8125 1210.82421875 158.42578125 1210.3203125 c 0,47,48
 100.490234375 1210.87695312 100.490234375 1210.87695312 73.1455078125 1220.16015625 c 0,49,50
 37.8291015625 1230.75488281 37.8291015625 1230.75488281 -39.1357421875 1286.24902344 c 0,51,52
 -48.5185546875 1292.95117188 -48.5185546875 1292.95117188 -54.7744140625 1297.24023438 c 0,51,52
 -92.96875 1327.79589844 -92.96875 1327.79589844 -102.333984375 1325.12011719 c 1,53,54
 -114.930664062 1318.33789062 -114.930664062 1318.33789062 -120.374023438 1271 c 0,55,56
 -122.944335938 1239.63476562 -122.944335938 1239.63476562 -110.534179688 1128.3203125 c 1,57,58
 -103.413085938 1087.390625 -103.413085938 1087.390625 -94.1337890625 1082.40039062 c 1,59,60
 -85.4072265625 1082.94824219 -85.4072265625 1082.94824219 -84.2939453125 1093.87988281 c 0,61,62
 -84.6015625 1112.12695312 -84.6015625 1112.12695312 -90.8544921875 1146.36035156 c 1,63,64
 -94.0302734375 1179.70703125 -94.0302734375 1179.70703125 -94.1337890625 1195.55957031 c 0,65,66
 -95.7724609375 1223.45019531 -95.7724609375 1223.45019531 -95.7744140625 1272.63964844 c 1,67,-1
 -72.814453125 1249.6796875 l 1,68,-1
 -72.814453125 1272.63964844 l 1,69,-1
 -49.8544921875 1249.6796875 l 1,70,-1
 -49.8544921875 1272.63964844 l 1,71,72
 -0.798828125 1221.5703125 -0.798828125 1221.5703125 35.42578125 1202.12011719 c 0,73,74
 148.435546875 1142.41699219 148.435546875 1142.41699219 268.46484375 1195.90625 c 0,75,76
 290.625976562 1206.13085938 290.625976562 1206.13085938 309.305664062 1218.51953125 c 0,75,76
 386.811523438 1273.3203125 386.811523438 1273.3203125 419.185546875 1371.04003906 c 1,77,78
 432.328125 1425.41503906 432.328125 1425.41503906 420.826171875 1444.83984375 c 1,40,-1
87.9052734375 1039.75976562 m 1,79,80
 143.580078125 1048.06152344 143.580078125 1048.06152344 166.625976562 1031.55957031 c 0,81,82
 187.897460938 1014.3203125 187.897460938 1014.3203125 191.225585938 975.799804688 c 1,83,84
 194.983398438 951.375 194.983398438 951.375 198.19921875 903.521484375 c 0,85,86
 200.719726562 867.1640625 200.719726562 867.1640625 202.706054688 849.51953125 c 0,85,86
 203.017578125 845.516601562 203.017578125 845.516601562 207.625976562 710.120117188 c 0,87,88
 216.153320312 488.641601562 216.153320312 488.641601562 186.305664062 216.48046875 c 0,89,90
 179.436523438 154.169921875 179.436523438 154.169921875 156.786132812 34.4404296875 c 1,91,92
 145.646484375 -12.900390625 145.646484375 -12.900390625 126.388671875 -22.1328125 c 0,93,94
 119.131835938 -25.03125 119.131835938 -25.03125 112.505859375 -26.240234375 c 0,93,94
 50.67578125 -30.1162109375 50.67578125 -30.1162109375 33.7861328125 -18.0400390625 c 1,95,96
 12.2998046875 0.607421875 12.2998046875 0.607421875 17.3857421875 82 c 0,97,98
 18.056640625 86.701171875 18.056640625 86.701171875 37.0654296875 175.48046875 c 0,99,100
 55.9208984375 270.487304688 55.9208984375 270.487304688 64.9453125 350.959960938 c 0,101,102
 79.2255859375 492.205078125 79.2255859375 492.205078125 81.345703125 592.040039062 c 0,103,104
 81.345703125 623.200195312 81.345703125 623.200195312 78.8857421875 685.51953125 c 0,105,106
 76.4677734375 748.38671875 76.4677734375 748.38671875 76.42578125 779 c 0,105,106
 76.42578125 793.012695312 76.42578125 793.012695312 62.177734375 967.69921875 c 0,107,108
 61.8515625 971.784179688 61.8515625 971.784179688 61.666015625 974.16015625 c 0,107,108
 59.7509765625 1031.70117188 59.7509765625 1031.70117188 87.9052734375 1039.75976562 c 1,79,80
120.706054688 987.280273438 m 1,109,110
 107.978515625 978.37109375 107.978515625 978.37109375 113.513671875 941.369140625 c 0,111,112
 113.96484375 937.934570312 113.96484375 937.934570312 114.145507812 936.440429688 c 0,111,112
 115.239257812 921.133789062 115.239257812 921.133789062 118.154296875 890.51953125 c 0,113,114
 123.884765625 828.747070312 123.884765625 828.747070312 123.985351562 798.6796875 c 0,113,114
 126.919921875 461.232421875 126.919921875 461.232421875 114.90625 338.869140625 c 0,115,116
 109.295898438 282.859375 109.295898438 282.859375 101.025390625 232.879882812 c 0,115,116
 84.3876953125 127.373046875 84.3876953125 127.373046875 71.505859375 75.4404296875 c 1,117,118
 63.146484375 33.1357421875 63.146484375 33.1357421875 82.9853515625 27.8798828125 c 1,119,120
 101.642578125 25.7646484375 101.642578125 25.7646484375 109.225585938 77.080078125 c 1,121,122
 126.1484375 162.196289062 126.1484375 162.196289062 138.74609375 252.559570312 c 0,123,124
 171.103515625 473.130859375 171.103515625 473.130859375 156.786132812 787.200195312 c 0,125,126
 154.859375 827.974609375 154.859375 827.974609375 148.5859375 897.080078125 c 0,127,128
 144.045898438 962.836914062 144.045898438 962.836914062 120.706054688 987.280273438 c 1,109,110
EndSplineSet
AlternateSubs2: "gsub_alternate_dfl_aalt_arab_FAR_Lookup_01_Subtable_01" uniFE82 afii57410
Substitution2: "gsub_single_rtl_fina_arab_FAR_Lookup_01_Subtable_01" uniFE82
PairPos2: "gpos_pair_dfl_kern_arab_FAR_Lookup_01_Subtable_01" gafarabic dx=0 dy=0 dh=0 dv=0 dx=0 dy=0 dh=0 dv=0
EndChar

StartChar: uniFE83
Encoding: 1571 1571 339
AltUni2: 00fe83.ffffffff.0
Width: 485
VWidth: 1639
GlyphClass: 2
Flags: W
LayerCount: 2
Fore
SplineSet
167.681640625 1272.63964844 m 0,0,1
 231.884765625 1281.81152344 231.884765625 1281.81152344 254.6015625 1261.16015625 c 1,2,3
 269.015625 1245.27539062 269.015625 1245.27539062 272.641601562 1189 c 0,4,5
 279.345703125 1090.05371094 279.345703125 1090.05371094 285.76171875 1041.40039062 c 0,6,7
 288.790039062 1014.36328125 288.790039062 1014.36328125 297.241210938 829.83984375 c 0,8,9
 309.948242188 533.899414062 309.948242188 533.899414062 277.561523438 268.959960938 c 0,10,11
 265.930664062 165.252929688 265.930664062 165.252929688 244.76171875 45.919921875 c 1,12,13
 237.765625 -6.5478515625 237.765625 -6.5478515625 225.296875 -17.25 c 0,14,15
 217.15625 -22.87890625 217.15625 -22.87890625 208.681640625 -24.599609375 c 0,14,15
 150.126953125 -28.66796875 150.126953125 -28.66796875 131.6015625 -18.0400390625 c 1,16,17
 110.490234375 -2.2294921875 110.490234375 -2.2294921875 110.28125 42.6396484375 c 0,18,19
 110.522460938 76.2529296875 110.522460938 76.2529296875 125.041015625 177.120117188 c 0,20,21
 165.346679688 471.540039062 165.346679688 471.540039062 167.681640625 715.040039062 c 0,22,23
 167.83984375 723.116210938 167.83984375 723.116210938 160.3125 934.668945312 c 0,24,25
 159.754882812 951.061523438 159.754882812 951.061523438 159.481445312 964.3203125 c 0,24,25
 159.33203125 1002.85839844 159.33203125 1002.85839844 148.000976562 1126.6796875 c 1,26,27
 141.599609375 1173.06152344 141.599609375 1173.06152344 141.44140625 1197.20019531 c 0,28,29
 141.44140625 1248.76074219 141.44140625 1248.76074219 146.65234375 1258.10351562 c 0,30,31
 155.055664062 1269.43261719 155.055664062 1269.43261719 167.681640625 1272.63964844 c 0,0,1
198.841796875 1218.51953125 m 0,30,31
 191.4609375 1214.94335938 191.4609375 1214.94335938 190.641601562 1203.75976562 c 0,32,33
 190.986328125 1179.35253906 190.986328125 1179.35253906 195.561523438 1157.83984375 c 1,34,35
 201.127929688 1113.41992188 201.127929688 1113.41992188 208.681640625 961.040039062 c 0,36,37
 224.85546875 560.907226562 224.85546875 560.907226562 185.721679688 244.360351562 c 0,38,39
 171.8671875 127.404296875 171.8671875 127.404296875 162.76171875 75.4404296875 c 1,40,41
 158.297851562 29.0546875 158.297851562 29.0546875 179.161132812 29.51953125 c 1,42,43
 191.103515625 32.01953125 191.103515625 32.01953125 197.201171875 80.3603515625 c 1,44,45
 212.4375 155.09765625 212.4375 155.09765625 223.44140625 250.919921875 c 0,46,47
 250.763671875 467.734375 250.763671875 467.734375 254.6015625 600.240234375 c 0,48,49
 255.908203125 649.235351562 255.908203125 649.235351562 243.716796875 908.41015625 c 0,50,51
 242.200195312 941.333984375 242.200195312 941.333984375 241.481445312 967.599609375 c 0,50,51
 240.584960938 1003.44042969 240.584960938 1003.44042969 232.923828125 1076.05371094 c 0,52,53
 226.602539062 1136.81054688 226.602539062 1136.81054688 225.081054688 1166.04003906 c 0,52,53
 225.081054688 1205.90917969 225.081054688 1205.90917969 207.130859375 1216.88085938 c 0,54,55
 202.258789062 1218.59570312 202.258789062 1218.59570312 198.841796875 1218.51953125 c 0,30,31
68.4609375 1495.6796875 m 1,0,1
 39.83203125 1524.30957031 39.83203125 1524.30957031 38.7734375 1525.97949219 c 0,2,3
 36.6865234375 1529.70605469 36.6865234375 1529.70605469 35.6611328125 1531.75976562 c 0,2,3
 28.71875 1546.14550781 28.71875 1546.14550781 29.1015625 1590.79980469 c 0,4,5
 30.6416015625 1666.83300781 30.6416015625 1666.83300781 106.181640625 1731.83984375 c 0,6,7
 151.020507812 1768.66894531 151.020507812 1768.66894531 179.981445312 1776.12011719 c 0,8,9
 190.15234375 1778.02148438 190.15234375 1778.02148438 225.901367188 1777.75976562 c 0,10,11
 265.807617188 1777.09570312 265.807617188 1777.09570312 284.94140625 1769.55957031 c 1,12,13
 313.599609375 1743.99316406 313.599609375 1743.99316406 312.821289062 1697.40039062 c 0,14,15
 311.549804688 1668.21386719 311.549804688 1668.21386719 304.62109375 1661.3203125 c 0,16,17
 292.912109375 1651.5625 292.912109375 1651.5625 245.314453125 1653.60449219 c 0,18,19
 235.516601562 1654.02539062 235.516601562 1654.02539062 229.181640625 1653.12011719 c 0,18,19
 208.881835938 1648.53808594 208.881835938 1648.53808594 178.341796875 1621.95996094 c 1,20,21
 154.772460938 1595.28613281 154.772460938 1595.28613281 153.741210938 1590.79980469 c 1,22,23
 158.23828125 1571.03222656 158.23828125 1571.03222656 216.061523438 1564.55957031 c 0,24,25
 236.361328125 1562.71484375 236.361328125 1562.71484375 294.641601562 1584.13476562 c 0,26,27
 307.356445312 1588.6015625 307.356445312 1588.6015625 316.1015625 1590.79980469 c 0,26,27
 324.5234375 1592.76464844 324.5234375 1592.76464844 353.821289062 1592.44042969 c 1,28,29
 395.153320312 1589.20800781 395.153320312 1589.20800781 404.661132812 1577.6796875 c 1,30,31
 412.293945312 1562.48046875 412.293945312 1562.48046875 411.221679688 1515.36035156 c 0,32,33
 410.202148438 1491.71191406 410.202148438 1491.71191406 406.301757812 1485.83984375 c 1,34,35
 397.408203125 1479.50195312 397.408203125 1479.50195312 376.78125 1472.71972656 c 2,36,-1
 312.821289062 1448.12011719 l 2,37,38
 291.500976562 1439.91992188 291.500976562 1439.91992188 248.041015625 1423.51953125 c 0,39,40
 204.061523438 1406.91210938 204.061523438 1406.91210938 183.26171875 1398.91992188 c 0,39,40
 91.986328125 1362.41015625 91.986328125 1362.41015625 44.623046875 1367.83007812 c 0,41,42
 38.4892578125 1368.63476562 38.4892578125 1368.63476562 34.021484375 1369.40039062 c 0,41,42
 0.7197265625 1377.72460938 0.7197265625 1377.72460938 4.3583984375 1439.15625 c 1,43,-1
 4.5009765625 1441.55957031 l 2,43,44
 5.7646484375 1466.00488281 5.7646484375 1466.00488281 9.421875 1471.08007812 c 0,45,46
 21.8779296875 1486.1015625 21.8779296875 1486.1015625 68.4609375 1495.6796875 c 1,0,1
260.341796875 1707.24023438 m 1,47,48
 229.119140625 1751.60839844 229.119140625 1751.60839844 165.087890625 1699.0078125 c 0,49,50
 151.357421875 1687.18847656 151.357421875 1687.18847656 142.26171875 1676.08007812 c 1,49,50
 184.025390625 1701.13867188 184.025390625 1701.13867188 187.508789062 1702.22363281 c 0,51,52
 191.168945312 1703.36425781 191.168945312 1703.36425781 194.741210938 1703.95996094 c 0,51,52
 203.525390625 1705.31152344 203.525390625 1705.31152344 222.189453125 1704.11816406 c 0,53,54
 249.129882812 1703.08203125 249.129882812 1703.08203125 260.341796875 1707.24023438 c 1,47,48
97.9814453125 1623.59960938 m 1,53,54
 68.7099609375 1596.76855469 68.7099609375 1596.76855469 86.5966796875 1569.59667969 c 0,55,56
 91.6513671875 1563.41308594 91.6513671875 1563.41308594 96.341796875 1559.63964844 c 1,55,-1
 97.9814453125 1623.59960938 l 1,53,54
358.741210938 1530.12011719 m 1,56,57
 350.184570312 1543.56640625 350.184570312 1543.56640625 312.583007812 1527.25488281 c 0,58,59
 306.069335938 1524.60253906 306.069335938 1524.60253906 302.981445312 1523.55957031 c 0,58,59
 280.995117188 1516.52441406 280.995117188 1516.52441406 202.625976562 1517.66894531 c 0,60,61
 187.157226562 1517.74902344 187.157226562 1517.74902344 176.701171875 1517 c 0,60,61
 172.328125 1516.50976562 172.328125 1516.50976562 142.26171875 1507.16015625 c 1,62,63
 149.536132812 1499.72363281 149.536132812 1499.72363281 175.061523438 1495.6796875 c 1,64,-1
 175.061523438 1494.04003906 l 1,65,-1
 142.26171875 1484.20019531 l 1,66,67
 149.536132812 1476.76367188 149.536132812 1476.76367188 175.061523438 1472.71972656 c 1,68,-1
 175.061523438 1471.08007812 l 1,69,70
 144.708007812 1465.44042969 144.708007812 1465.44042969 58.62109375 1430.08007812 c 1,71,72
 66.451171875 1413.11621094 66.451171875 1413.11621094 127.357421875 1440.99511719 c 0,73,74
 130.920898438 1442.56054688 130.920898438 1442.56054688 132.421875 1443.20019531 c 0,73,74
 162.59765625 1455.0078125 162.59765625 1455.0078125 222.94921875 1477.57421875 c 0,75,76
 314.024414062 1511.69140625 314.024414062 1511.69140625 358.741210938 1530.12011719 c 1,56,57
EndSplineSet
AlternateSubs2: "gsub_alternate_dfl_aalt_arab_FAR_Lookup_01_Subtable_01" uniFE84 uniFE83
Substitution2: "gsub_single_rtl_fina_arab_FAR_Lookup_01_Subtable_01" uniFE84
EndChar

StartChar: uniFE84
Encoding: 65156 65156 340
Width: 390
VWidth: 1639
GlyphClass: 2
Flags: W
LayerCount: 2
Fore
SplineSet
346.229492188 22.9599609375 m 1,0,1
 346.229492188 20.4140625 346.229492188 20.4140625 346.932617188 12.6259765625 c 0,2,3
 348.651367188 -14.6552734375 348.651367188 -14.6552734375 344.588867188 -21.3203125 c 0,2,3
 342.94921875 -24.599609375 342.94921875 -24.599609375 336.388671875 -25.419921875 c 0,4,5
 329.829101562 -26.240234375 329.829101562 -26.240234375 319.989257812 -25.419921875 c 2,6,-1
 310.149414062 -24.599609375 l 1,4,5
 234.1484375 -24.0712890625 234.1484375 -24.0712890625 205.189453125 -14.759765625 c 0,6,7
 93.494140625 22.1806640625 93.494140625 22.1806640625 41.189453125 170.559570312 c 1,8,9
 5.5869140625 282.97265625 5.5869140625 282.97265625 14.94921875 475.599609375 c 0,10,11
 26.8349609375 736.185546875 26.8349609375 736.185546875 83.8291015625 1021.71972656 c 0,12,13
 96.095703125 1086.87109375 96.095703125 1086.87109375 116.62890625 1180.79980469 c 0,14,15
 130.168945312 1239.47363281 130.168945312 1239.47363281 130.884765625 1241.03027344 c 0,16,17
 133.17578125 1245.50097656 133.17578125 1245.50097656 134.668945312 1248.04003906 c 0,16,17
 140.495117188 1256.30566406 140.495117188 1256.30566406 151.069335938 1259.51953125 c 0,18,19
 194.360351562 1272.84082031 194.360351562 1272.84082031 228.85546875 1257.12792969 c 0,20,21
 235.918945312 1253.17382812 235.918945312 1253.17382812 239.62890625 1249.6796875 c 0,20,21
 251.583984375 1229.94238281 251.583984375 1229.94238281 249.46875 1182.44042969 c 0,22,23
 249.108398438 1163.17382812 249.108398438 1163.17382812 233.069335938 1092.24023438 c 0,24,25
 226.07421875 1063.9375 226.07421875 1063.9375 211.749023438 992.200195312 c 0,26,27
 181.206054688 830.041992188 181.206054688 830.041992188 159.26953125 624.83984375 c 0,28,29
 140.03125 438.87890625 140.03125 438.87890625 144.967773438 373.998046875 c 0,30,31
 146.694335938 352.90234375 146.694335938 352.90234375 149.428710938 334.559570312 c 0,30,31
 173.073242188 165.81640625 173.073242188 165.81640625 259.309570312 123 c 0,32,33
 285.623046875 111.405273438 285.623046875 111.405273438 346.229492188 111.51953125 c 1,34,-1
 346.229492188 65.599609375 l 1,35,36
 254.450195312 65.599609375 254.450195312 65.599609375 243.877929688 67.435546875 c 0,37,38
 219.404296875 72.2890625 219.404296875 72.2890625 201.909179688 82 c 0,37,38
 123.943359375 131.830078125 123.943359375 131.830078125 101.869140625 295.200195312 c 0,39,40
 92.501953125 370.522460938 92.501953125 370.522460938 98.5888671875 490.360351562 c 0,41,42
 103.818359375 625.388671875 103.818359375 625.388671875 139.588867188 882.3203125 c 1,43,44
 161.068359375 1018.59960938 161.068359375 1018.59960938 185.508789062 1129.95996094 c 0,45,46
 186.915039062 1138.39453125 186.915039062 1138.39453125 191.533203125 1155.26269531 c 0,47,48
 197.692382812 1177.75390625 197.692382812 1177.75390625 198.62890625 1189 c 1,47,48
 196.713867188 1202.56640625 196.713867188 1202.56640625 187.149414062 1205.40039062 c 1,49,50
 180.588867188 1205.40039062 180.588867188 1205.40039062 176.01953125 1190.06640625 c 2,51,-1
 175.668945312 1189 l 2,51,52
 168.845703125 1167.70996094 168.845703125 1167.70996094 162.548828125 1129.95996094 c 1,53,54
 153.928710938 1093.04980469 153.928710938 1093.04980469 111.708984375 877.400390625 c 0,55,56
 96.94921875 798.6796875 96.94921875 798.6796875 87.109375 719.959960938 c 0,57,58
 47.923828125 451.262695312 47.923828125 451.262695312 66.3427734375 316.0234375 c 0,59,60
 72.7578125 270.6484375 72.7578125 270.6484375 83.8291015625 231.240234375 c 0,59,60
 124.625 89.8134765625 124.625 89.8134765625 227.567382812 41.04296875 c 0,61,62
 240.751953125 35.0576171875 240.751953125 35.0576171875 252.749023438 31.16015625 c 0,61,62
 280.783203125 22.8525390625 280.783203125 22.8525390625 346.229492188 22.9599609375 c 1,0,1
78.9091796875 1485.83984375 m 1,0,1
 50.2802734375 1514.46875 50.2802734375 1514.46875 49.220703125 1516.13964844 c 0,2,3
 47.1337890625 1519.86621094 47.1337890625 1519.86621094 46.109375 1521.91992188 c 0,2,3
 39.166015625 1536.30566406 39.166015625 1536.30566406 39.548828125 1580.95996094 c 0,4,5
 41.0888671875 1656.99316406 41.0888671875 1656.99316406 116.62890625 1722 c 0,6,7
 161.467773438 1758.828125 161.467773438 1758.828125 190.428710938 1766.28027344 c 0,8,9
 200.600585938 1768.18164062 200.600585938 1768.18164062 236.348632812 1767.91992188 c 0,10,11
 276.255859375 1767.25585938 276.255859375 1767.25585938 295.388671875 1759.71972656 c 1,12,13
 324.047851562 1734.15332031 324.047851562 1734.15332031 323.26953125 1687.55957031 c 0,14,15
 321.997070312 1658.37304688 321.997070312 1658.37304688 315.069335938 1651.48046875 c 0,16,17
 303.359375 1641.72167969 303.359375 1641.72167969 255.762695312 1643.76464844 c 0,18,19
 245.963867188 1644.18457031 245.963867188 1644.18457031 239.62890625 1643.28027344 c 0,18,19
 219.329101562 1638.69824219 219.329101562 1638.69824219 188.7890625 1612.12011719 c 1,20,21
 165.220703125 1585.44628906 165.220703125 1585.44628906 164.189453125 1580.95996094 c 1,22,23
 168.686523438 1561.19238281 168.686523438 1561.19238281 226.508789062 1554.71972656 c 0,24,25
 246.809570312 1552.875 246.809570312 1552.875 305.088867188 1574.29492188 c 0,26,27
 317.803710938 1578.76171875 317.803710938 1578.76171875 326.548828125 1580.95996094 c 0,26,27
 334.971679688 1582.92480469 334.971679688 1582.92480469 364.26953125 1582.59960938 c 1,28,29
 405.600585938 1579.36816406 405.600585938 1579.36816406 415.109375 1567.83984375 c 1,30,31
 422.741210938 1552.640625 422.741210938 1552.640625 421.668945312 1505.51953125 c 0,32,33
 420.650390625 1481.87207031 420.650390625 1481.87207031 416.749023438 1476 c 1,34,35
 407.85546875 1469.66210938 407.85546875 1469.66210938 387.229492188 1462.87988281 c 2,36,-1
 323.26953125 1438.28027344 l 2,37,38
 301.94921875 1430.08007812 301.94921875 1430.08007812 258.489257812 1413.6796875 c 0,39,40
 214.509765625 1397.07226562 214.509765625 1397.07226562 193.708984375 1389.08007812 c 0,39,40
 102.43359375 1352.56933594 102.43359375 1352.56933594 55.0703125 1357.99023438 c 0,41,42
 48.9365234375 1358.79492188 48.9365234375 1358.79492188 44.46875 1359.55957031 c 0,41,42
 11.6689453125 1366.12011719 11.6689453125 1366.12011719 14.8056640625 1429.31542969 c 2,43,-1
 14.94921875 1431.71972656 l 2,43,44
 16.2119140625 1456.16503906 16.2119140625 1456.16503906 19.869140625 1461.24023438 c 0,45,46
 32.3251953125 1476.26171875 32.3251953125 1476.26171875 78.9091796875 1485.83984375 c 1,0,1
270.7890625 1697.40039062 m 1,47,48
 239.56640625 1741.76855469 239.56640625 1741.76855469 175.536132812 1689.16796875 c 0,49,50
 161.805664062 1677.34863281 161.805664062 1677.34863281 152.708984375 1666.24023438 c 1,49,50
 194.47265625 1691.29785156 194.47265625 1691.29785156 197.956054688 1692.38378906 c 0,51,52
 202.43359375 1693.56640625 202.43359375 1693.56640625 205.189453125 1694.12011719 c 0,51,52
 213.97265625 1695.47167969 213.97265625 1695.47167969 232.63671875 1694.27832031 c 0,53,54
 259.577148438 1693.2421875 259.577148438 1693.2421875 270.7890625 1697.40039062 c 1,47,48
108.428710938 1613.75976562 m 1,53,54
 79.158203125 1586.92773438 79.158203125 1586.92773438 97.044921875 1559.75683594 c 0,55,56
 102.098632812 1553.57324219 102.098632812 1553.57324219 106.7890625 1549.79980469 c 1,55,-1
 108.428710938 1613.75976562 l 1,53,54
369.189453125 1520.28027344 m 1,56,57
 360.6328125 1533.7265625 360.6328125 1533.7265625 323.03125 1517.41503906 c 0,58,59
 316.517578125 1514.76269531 316.517578125 1514.76269531 313.428710938 1513.71972656 c 0,58,59
 291.442382812 1506.68457031 291.442382812 1506.68457031 213.073242188 1507.82910156 c 0,60,61
 198.221679688 1508.04589844 198.221679688 1508.04589844 187.149414062 1507.16015625 c 0,60,61
 182.775390625 1506.66992188 182.775390625 1506.66992188 152.708984375 1497.3203125 c 1,62,63
 159.983398438 1489.88378906 159.983398438 1489.88378906 185.508789062 1485.83984375 c 1,64,-1
 185.508789062 1484.20019531 l 1,65,-1
 152.708984375 1474.36035156 l 1,66,67
 159.983398438 1466.92382812 159.983398438 1466.92382812 185.508789062 1462.87988281 c 1,68,-1
 185.508789062 1461.24023438 l 1,69,70
 155.155273438 1455.60058594 155.155273438 1455.60058594 69.0693359375 1420.24023438 c 1,71,72
 76.8984375 1403.27636719 76.8984375 1403.27636719 137.805664062 1431.15527344 c 0,73,74
 141.368164062 1432.72070312 141.368164062 1432.72070312 142.869140625 1433.36035156 c 0,73,74
 173.044921875 1445.16796875 173.044921875 1445.16796875 233.397460938 1467.734375 c 0,75,76
 324.471679688 1501.8515625 324.471679688 1501.8515625 369.189453125 1520.28027344 c 1,56,57
EndSplineSet
EndChar

StartChar: uniFE85
Encoding: 1572 1572 341
AltUni2: 00fe85.ffffffff.0
Width: 665
VWidth: 1639
GlyphClass: 2
Flags: W
LayerCount: 2
Fore
SplineSet
286.381835938 34.4404296875 m 1,0,1
 79.2724609375 34.4404296875 79.2724609375 34.4404296875 -18.9716796875 151.762695312 c 0,2,3
 -34.998046875 171.48828125 -34.998046875 171.48828125 -46.5380859375 191.879882812 c 0,2,3
 -72.533203125 237.57421875 -72.533203125 237.57421875 -72.7783203125 309.959960938 c 0,4,5
 -72.1728515625 381.017578125 -72.1728515625 381.017578125 -59.658203125 414.919921875 c 0,6,7
 -15.0068359375 538.791015625 -15.0068359375 538.791015625 118.194335938 592.73046875 c 0,8,9
 202.880859375 626.168945312 202.880859375 626.168945312 289.662109375 616.639648438 c 0,8,9
 328.3828125 611.450195312 328.3828125 611.450195312 368.381835938 590.400390625 c 1,10,11
 408.040039062 566.680664062 408.040039062 566.680664062 424.141601562 551.040039062 c 0,12,13
 509.111328125 468.12890625 509.111328125 468.12890625 509.421875 291.919921875 c 0,14,15
 508.291992188 23.1552734375 508.291992188 23.1552734375 276.541992188 -257.48046875 c 1,16,17
 202.9296875 -343.911132812 202.9296875 -343.911132812 160.1015625 -380.48046875 c 0,18,19
 90.54296875 -443.129882812 90.54296875 -443.129882812 53.501953125 -470.6796875 c 0,20,21
 10.0791015625 -503.765625 10.0791015625 -503.765625 2.662109375 -506.759765625 c 0,22,23
 2.662109375 -508.400390625 2.662109375 -508.400390625 -9.6376953125 -507.580078125 c 2,24,-1
 -21.9375 -506.759765625 l 1,24,25
 -69.0771484375 -509.577148438 -69.0771484375 -509.577148438 -84.2578125 -498.559570312 c 1,26,27
 -105.111328125 -476.2578125 -105.111328125 -476.2578125 -103.9375 -423.120117188 c 0,28,29
 -103.055664062 -395.73828125 -103.055664062 -395.73828125 -99.017578125 -388.6796875 c 0,30,31
 -89.9453125 -374.567382812 -89.9453125 -374.567382812 -39.8115234375 -340.958007812 c 0,32,33
 -32.5810546875 -335.975585938 -32.5810546875 -335.975585938 -28.498046875 -332.919921875 c 0,32,33
 51.2255859375 -271.28515625 51.2255859375 -271.28515625 109.26171875 -206.639648438 c 0,34,35
 184.987304688 -120.653320312 184.987304688 -120.653320312 217.501953125 -73.7998046875 c 0,36,37
 220.651367188 -69.2099609375 220.651367188 -69.2099609375 286.381835938 34.4404296875 c 1,0,1
356.90234375 36.080078125 m 1,38,39
 338.64453125 -7.7431640625 338.64453125 -7.7431640625 284.7421875 -88.5595703125 c 0,40,41
 193.541992188 -223.147460938 193.541992188 -223.147460938 86.3017578125 -321.440429688 c 0,42,43
 37.1015625 -365.719726562 37.1015625 -365.719726562 -17.017578125 -405.080078125 c 0,44,45
 -19.0634765625 -406.715820312 -19.0634765625 -406.715820312 -25.833984375 -411.0859375 c 0,46,47
 -51.4580078125 -427.623046875 -51.4580078125 -427.623046875 -51.4580078125 -436.240234375 c 0,46,47
 -51.4580078125 -447.564453125 -51.4580078125 -447.564453125 -38.3125 -453.306640625 c 0,48,49
 -34.1064453125 -454.295898438 -34.1064453125 -454.295898438 -31.7783203125 -454.280273438 c 0,48,49
 -24.1064453125 -450.577148438 -24.1064453125 -450.577148438 10.8623046875 -423.120117188 c 0,50,51
 81.5791015625 -368.680664062 81.5791015625 -368.680664062 168.301757812 -282.080078125 c 0,52,53
 309.084960938 -140.30078125 309.084960938 -140.30078125 397.90234375 57.400390625 c 0,54,55
 455.051757812 181.720703125 455.051757812 181.720703125 461.862304688 282.080078125 c 0,56,57
 471.077148438 400.337890625 471.077148438 400.337890625 391.541992188 491.676757812 c 0,58,59
 332.404296875 557.603515625 332.404296875 557.603515625 253.58203125 569.080078125 c 0,58,59
 214.203125 573.8125 214.203125 573.8125 148.622070312 541.200195312 c 0,60,61
 49.73046875 491.75390625 49.73046875 491.75390625 1.5986328125 404.493164062 c 0,62,63
 -35.9072265625 333.791992188 -35.9072265625 333.791992188 -15.3779296875 270.599609375 c 0,62,63
 22.3916015625 158.93359375 22.3916015625 158.93359375 164.065429688 105.620117188 c 0,64,65
 212.139648438 87.9384765625 212.139648438 87.9384765625 260.141601562 82 c 0,64,65
 295.037109375 78.7529296875 295.037109375 78.7529296875 356.90234375 82 c 1,66,-1
 345.421875 57.400390625 l 1,67,-1
 356.90234375 59.0400390625 l 1,68,-1
 345.421875 34.4404296875 l 1,69,-1
 356.90234375 36.080078125 l 1,38,39
210.942382812 529.719726562 m 0,70,71
 268.7734375 535.577148438 268.7734375 535.577148438 309.341796875 524.799804688 c 0,72,73
 415.814453125 493.19140625 415.814453125 493.19140625 424.752929688 341.767578125 c 0,74,75
 426.559570312 306.444335938 426.559570312 306.444335938 422.501953125 272.240234375 c 0,74,75
 411.670898438 185.251953125 411.670898438 185.251953125 399.541992188 150.879882812 c 1,76,77
 386.020507812 117.759765625 386.020507812 117.759765625 381.501953125 114.799804688 c 1,78,79
 376.947265625 114.37890625 376.947265625 114.37890625 309.341796875 114.799804688 c 0,80,81
 111.498046875 116.233398438 111.498046875 116.233398438 40.3818359375 211.559570312 c 1,82,83
 19.171875 245.151367188 19.171875 245.151367188 19.0625 306.6796875 c 0,84,85
 19.6064453125 360.979492188 19.6064453125 360.979492188 25.6220703125 378.83984375 c 0,86,87
 52.9443359375 468.09375 52.9443359375 468.09375 147.27734375 511.010742188 c 0,88,89
 179.234375 525.02734375 179.234375 525.02734375 210.942382812 529.719726562 c 0,70,71
245.381835938 482.16015625 m 0,88,89
 170.875 476.428710938 170.875 476.428710938 109.51171875 400.765625 c 0,90,91
 95.19921875 382.53125 95.19921875 382.53125 86.3017578125 365.719726562 c 0,90,91
 58.5595703125 315.783203125 58.5595703125 315.783203125 74.822265625 277.16015625 c 1,92,93
 112.639648438 197.106445312 112.639648438 197.106445312 263.421875 167.280273438 c 0,94,95
 304.549804688 158.916992188 304.549804688 158.916992188 333.942382812 160.719726562 c 1,96,97
 342.221679688 163.922851562 342.221679688 163.922851562 348.702148438 182.040039062 c 0,98,99
 358.943359375 211.147460938 358.943359375 211.147460938 370.022460938 252.559570312 c 1,100,101
 393.293945312 366.33203125 393.293945312 366.33203125 329.489257812 436.291015625 c 0,102,103
 318.508789062 447.704101562 318.508789062 447.704101562 307.702148438 455.919921875 c 0,102,103
 267.7578125 483.880859375 267.7578125 483.880859375 245.381835938 482.16015625 c 0,88,89
161.7421875 851.16015625 m 1,0,1
 133.11328125 879.7890625 133.11328125 879.7890625 132.053710938 881.459960938 c 0,2,3
 129.966796875 885.185546875 129.966796875 885.185546875 128.942382812 887.240234375 c 0,2,3
 121.999023438 901.625976562 121.999023438 901.625976562 122.381835938 946.280273438 c 0,4,5
 123.921875 1022.3125 123.921875 1022.3125 199.461914062 1087.3203125 c 0,6,7
 244.30078125 1124.1484375 244.30078125 1124.1484375 273.26171875 1131.59960938 c 0,8,9
 283.432617188 1133.50097656 283.432617188 1133.50097656 319.181640625 1133.24023438 c 0,10,11
 359.088867188 1132.57519531 359.088867188 1132.57519531 378.221679688 1125.04003906 c 1,12,13
 406.880859375 1099.47265625 406.880859375 1099.47265625 406.1015625 1052.87988281 c 0,14,15
 404.830078125 1023.69335938 404.830078125 1023.69335938 397.90234375 1016.79980469 c 0,16,17
 386.192382812 1007.04199219 386.192382812 1007.04199219 338.594726562 1009.08496094 c 0,18,19
 328.796875 1009.50488281 328.796875 1009.50488281 322.461914062 1008.59960938 c 0,18,19
 302.162109375 1004.01757812 302.162109375 1004.01757812 271.622070312 977.440429688 c 1,20,21
 248.053710938 950.766601562 248.053710938 950.766601562 247.022460938 946.280273438 c 1,22,23
 251.51953125 926.512695312 251.51953125 926.512695312 309.341796875 920.040039062 c 0,24,25
 329.642578125 918.194335938 329.642578125 918.194335938 387.921875 939.615234375 c 0,26,27
 400.63671875 944.08203125 400.63671875 944.08203125 409.381835938 946.280273438 c 0,26,27
 417.8046875 948.244140625 417.8046875 948.244140625 447.1015625 947.919921875 c 1,28,29
 488.43359375 944.688476562 488.43359375 944.688476562 497.942382812 933.16015625 c 1,30,31
 505.57421875 917.9609375 505.57421875 917.9609375 504.501953125 870.83984375 c 0,32,33
 503.483398438 847.192382812 503.483398438 847.192382812 499.58203125 841.3203125 c 1,34,35
 490.688476562 834.981445312 490.688476562 834.981445312 470.0625 828.200195312 c 2,36,-1
 406.1015625 803.599609375 l 2,37,38
 384.782226562 795.400390625 384.782226562 795.400390625 341.322265625 779 c 0,39,40
 297.341796875 762.392578125 297.341796875 762.392578125 276.541992188 754.400390625 c 0,39,40
 185.266601562 717.889648438 185.266601562 717.889648438 137.903320312 723.310546875 c 0,41,42
 131.76953125 724.115234375 131.76953125 724.115234375 127.301757812 724.879882812 c 0,41,42
 94.501953125 731.440429688 94.501953125 731.440429688 97.638671875 794.635742188 c 2,43,-1
 97.7822265625 797.040039062 l 2,43,44
 99.044921875 821.484375 99.044921875 821.484375 102.702148438 826.559570312 c 0,45,46
 115.158203125 841.581054688 115.158203125 841.581054688 161.7421875 851.16015625 c 1,0,1
353.622070312 1062.71972656 m 1,47,48
 322.399414062 1107.08886719 322.399414062 1107.08886719 258.369140625 1054.48730469 c 0,49,50
 244.637695312 1042.66796875 244.637695312 1042.66796875 235.541992188 1031.55957031 c 1,49,50
 277.305664062 1056.61816406 277.305664062 1056.61816406 280.7890625 1057.70410156 c 0,51,52
 285.266601562 1058.88671875 285.266601562 1058.88671875 288.022460938 1059.44042969 c 0,51,52
 296.805664062 1060.79101562 296.805664062 1060.79101562 315.469726562 1059.59765625 c 0,53,54
 342.41015625 1058.5625 342.41015625 1058.5625 353.622070312 1062.71972656 c 1,47,48
191.26171875 979.080078125 m 1,53,54
 161.991210938 952.248046875 161.991210938 952.248046875 179.877929688 925.076171875 c 0,55,56
 184.931640625 918.893554688 184.931640625 918.893554688 189.622070312 915.120117188 c 1,55,-1
 191.26171875 979.080078125 l 1,53,54
452.022460938 885.599609375 m 1,56,57
 443.46484375 899.045898438 443.46484375 899.045898438 405.86328125 882.735351562 c 0,58,59
 399.350585938 880.083007812 399.350585938 880.083007812 396.26171875 879.040039062 c 0,58,59
 374.275390625 872.00390625 374.275390625 872.00390625 295.90625 873.1484375 c 0,60,61
 280.438476562 873.228515625 280.438476562 873.228515625 269.982421875 872.48046875 c 0,60,61
 265.608398438 871.990234375 265.608398438 871.990234375 235.541992188 862.639648438 c 1,62,63
 242.81640625 855.204101562 242.81640625 855.204101562 268.341796875 851.16015625 c 1,64,-1
 268.341796875 849.51953125 l 1,65,-1
 235.541992188 839.6796875 l 1,66,67
 242.81640625 832.244140625 242.81640625 832.244140625 268.341796875 828.200195312 c 1,68,-1
 268.341796875 826.559570312 l 1,69,70
 237.98828125 820.919921875 237.98828125 820.919921875 151.90234375 785.559570312 c 1,71,72
 159.731445312 768.596679688 159.731445312 768.596679688 220.638671875 796.474609375 c 0,73,74
 224.201171875 798.040039062 224.201171875 798.040039062 225.702148438 798.6796875 c 0,73,74
 255.877929688 810.48828125 255.877929688 810.48828125 316.23046875 833.0546875 c 0,75,76
 407.3046875 867.171875 407.3046875 867.171875 452.022460938 885.599609375 c 1,56,57
EndSplineSet
AlternateSubs2: "gsub_alternate_dfl_aalt_arab_FAR_Lookup_01_Subtable_01" uniFE86 uniFE85
Substitution2: "gsub_single_rtl_fina_arab_FAR_Lookup_01_Subtable_01" uniFE86
EndChar

StartChar: uniFE86
Encoding: 65158 65158 342
Width: 454
VWidth: 1639
GlyphClass: 2
Flags: W
LayerCount: 2
Fore
SplineSet
226.26953125 -14.759765625 m 1,0,1
 150.72265625 -11.9794921875 150.72265625 -11.9794921875 47.5087890625 39.3603515625 c 0,2,3
 -27.5166015625 76.3212890625 -27.5166015625 76.3212890625 -70.5712890625 123 c 1,4,5
 -121 181.55859375 -121 181.55859375 -121.411132812 277.16015625 c 0,6,7
 -120.979492188 338.453125 -120.979492188 338.453125 -113.2109375 369 c 0,8,9
 -81.7119140625 470.762695312 -81.7119140625 470.762695312 31.109375 542.83984375 c 1,10,11
 141.584960938 609.125 141.584960938 609.125 268.260742188 572.423828125 c 0,12,13
 363.96875 543.196289062 363.96875 543.196289062 413.229492188 465.759765625 c 1,12,13
 448.912109375 405.530273438 448.912109375 405.530273438 457.508789062 316.51953125 c 0,14,15
 469.874023438 189.171875 469.874023438 189.171875 441.109375 111.51953125 c 1,16,-1
 483.749023438 111.51953125 l 1,17,-1
 483.749023438 65.599609375 l 1,18,-1
 382.069335938 65.599609375 l 1,19,-1
 388.62890625 88.5595703125 l 1,20,-1
 382.069335938 88.5595703125 l 1,21,-1
 388.62890625 111.51953125 l 1,22,-1
 382.069335938 111.51953125 l 1,23,24
 408.716796875 224.03125 408.716796875 224.03125 410.114257812 238.111328125 c 0,25,26
 413.012695312 271.841796875 413.012695312 271.841796875 408.309570312 300.120117188 c 0,25,26
 395.973632812 375.39453125 395.973632812 375.39453125 364.029296875 423.120117188 c 0,27,28
 309.758789062 502.05859375 309.758789062 502.05859375 230.192382812 527.438476562 c 0,29,30
 209.69921875 533.54296875 209.69921875 533.54296875 191.829101562 534.639648438 c 0,29,30
 165.202148438 534.078125 165.202148438 534.078125 119.668945312 516.599609375 c 0,31,32
 15.732421875 474.530273438 15.732421875 474.530273438 -39.3017578125 380.994140625 c 0,33,34
 -43.775390625 373.391601562 -43.775390625 373.391601562 -47.611328125 365.719726562 c 0,33,34
 -74.9736328125 309.202148438 -74.9736328125 309.202148438 -73.8505859375 277.16015625 c 0,35,36
 -65.46875 172.385742188 -65.46875 172.385742188 64.9619140625 99.7705078125 c 0,37,38
 68.5283203125 97.8125 68.5283203125 97.8125 70.46875 96.759765625 c 0,37,38
 137.676757812 61.40625 137.676757812 61.40625 227.909179688 39.3603515625 c 0,39,40
 236.67578125 37.3369140625 236.67578125 37.3369140625 255.416992188 34.384765625 c 0,41,42
 283.026367188 29.810546875 283.026367188 29.810546875 295.149414062 26.240234375 c 1,41,-1
 283.668945312 4.919921875 l 1,42,-1
 295.149414062 3.2802734375 l 1,43,-1
 283.668945312 -18.0400390625 l 1,44,-1
 295.149414062 -19.6796875 l 1,45,46
 281.129882812 -52.3984375 281.129882812 -52.3984375 229.548828125 -129.559570312 c 0,47,48
 136.329101562 -268.37109375 136.329101562 -268.37109375 8.1494140625 -382.120117188 c 0,49,50
 -31.0029296875 -416.400390625 -31.0029296875 -416.400390625 -78.7705078125 -451 c 0,51,52
 -100.096679688 -465.216796875 -100.096679688 -465.216796875 -101.374023438 -469.6328125 c 0,53,54
 -101.365234375 -475.817382812 -101.365234375 -475.817382812 -98.451171875 -480.51953125 c 0,53,54
 -86.6875 -494.897460938 -86.6875 -494.897460938 -54.9013671875 -467.146484375 c 0,55,56
 -50.9140625 -463.814453125 -50.9140625 -463.814453125 -49.2509765625 -462.48046875 c 0,55,56
 16.6513671875 -412.091796875 16.6513671875 -412.091796875 70.46875 -360.799804688 c 0,57,58
 194.87109375 -238.3671875 194.87109375 -238.3671875 273.829101562 -114.799804688 c 0,59,60
 305.317382812 -64.9443359375 305.317382812 -64.9443359375 327.94921875 -19.6796875 c 2,61,62
 347.62890625 19.6796875 l 1,63,64
 353.8046875 22.111328125 353.8046875 22.111328125 386.989257812 21.3203125 c 0,65,66
 403.388671875 21.3203125 403.388671875 21.3203125 435.369140625 22.1396484375 c 0,67,68
 467.931640625 22.93359375 467.931640625 22.93359375 483.749023438 22.9599609375 c 1,67,68
 483.749023438 20.4140625 483.749023438 20.4140625 484.453125 12.6259765625 c 0,69,70
 486.171875 -14.6552734375 486.171875 -14.6552734375 482.109375 -21.3203125 c 0,69,70
 480.46875 -22.9599609375 480.46875 -22.9599609375 478.008789062 -23.7802734375 c 0,71,72
 475.548828125 -24.599609375 475.548828125 -24.599609375 473.088867188 -24.599609375 c 0,73,74
 470.62890625 -24.599609375 470.62890625 -24.599609375 465.708984375 -24.599609375 c 2,75,-1
 460.7890625 -24.599609375 l 2,71,72
 457.552734375 -24.599609375 457.552734375 -24.599609375 447.29296875 -23.74609375 c 0,73,74
 398.93359375 -20.73828125 398.93359375 -20.73828125 390.26953125 -31.16015625 c 1,73,74
 384.303710938 -41.1015625 384.303710938 -41.1015625 374.893554688 -63.1396484375 c 0,75,76
 368.604492188 -77.6259765625 368.604492188 -77.6259765625 365.668945312 -83.6396484375 c 0,75,76
 320.727539062 -161.944335938 320.727539062 -161.944335938 303.349609375 -186.959960938 c 0,77,78
 208.880859375 -333.223632812 208.880859375 -333.223632812 52.4287109375 -465.759765625 c 0,79,80
 34.6298828125 -480.716796875 34.6298828125 -480.716796875 -13.1708984375 -518.240234375 c 1,81,82
 -45.0224609375 -538.754882812 -45.0224609375 -538.754882812 -47.611328125 -539.559570312 c 0,83,84
 -55.7802734375 -541.758789062 -55.7802734375 -541.758789062 -95.1708984375 -541.200195312 c 0,85,86
 -137.825195312 -539.233398438 -137.825195312 -539.233398438 -150.930664062 -518.240234375 c 1,87,88
 -156.872070312 -502.915039062 -156.872070312 -502.915039062 -155.850585938 -455.919921875 c 0,89,90
 -154.579101562 -428.856445312 -154.579101562 -428.856445312 -147.650390625 -419.83984375 c 0,91,92
 -142.830078125 -415.018554688 -142.830078125 -415.018554688 -90.078125 -377.388671875 c 0,93,94
 -86.8310546875 -375.024414062 -86.8310546875 -375.024414062 -85.3310546875 -373.919921875 c 0,93,94
 -32.2998046875 -333.768554688 -32.2998046875 -333.768554688 9.7890625 -291.919921875 c 0,95,96
 95.2294921875 -211.31640625 95.2294921875 -211.31640625 219.549804688 -24.8408203125 c 2,97,-1
 220.642578125 -23.201171875 l 1,98,-1
 221.735351562 -21.5615234375 l 1,99,-1
 223.04296875 -19.599609375 l 1,100,-1
 224.135742188 -17.9599609375 l 1,101,-1
 226.26953125 -14.759765625 l 1,0,1
290.229492188 68.8798828125 m 1,97,98
 150.288085938 95.35546875 150.288085938 95.35546875 124.469726562 103.776367188 c 0,99,100
 117.065429688 106.245117188 117.065429688 106.245117188 111.46875 108.240234375 c 0,99,100
 50.1123046875 130.346679688 50.1123046875 130.346679688 9.7890625 165.639648438 c 0,101,102
 -46.5244140625 216.985351562 -46.5244140625 216.985351562 -33.29296875 311.036132812 c 0,103,104
 -26.8466796875 351.7890625 -26.8466796875 351.7890625 -8.2509765625 380.48046875 c 0,103,104
 69.1435546875 491.046875 69.1435546875 491.046875 200.029296875 492 c 1,105,106
 286.431640625 490.375 286.431640625 490.375 327.94921875 437.879882812 c 0,107,108
 347.112304688 413.015625 347.112304688 413.015625 357.46875 385.400390625 c 0,109,110
 372.305664062 343.71875 372.305664062 343.71875 372.229492188 246 c 0,111,112
 371.68359375 172.848632812 371.68359375 172.848632812 336.149414062 68.8798828125 c 1,113,-1
 313.189453125 72.16015625 l 1,114,-1
 313.189453125 68.8798828125 l 1,115,-1
 290.229492188 72.16015625 l 1,116,-1
 290.229492188 68.8798828125 l 1,97,98
193.46875 444.440429688 m 0,117,118
 114.762695312 433.508789062 114.762695312 433.508789062 47.9150390625 348.694335938 c 0,119,120
 43.7431640625 343.278320312 43.7431640625 343.278320312 40.94921875 339.48046875 c 0,119,120
 10.978515625 296.665039062 10.978515625 296.665039062 17.9892578125 273.879882812 c 0,121,122
 42.458984375 179.12109375 42.458984375 179.12109375 216.428710938 136.120117188 c 1,123,124
 269.184570312 120.444335938 269.184570312 120.444335938 286.94921875 121.360351562 c 0,125,126
 295.149414062 123 295.149414062 123 299.465820312 140.071289062 c 2,127,-1
 300.069335938 142.6796875 l 1,127,128
 313.749023438 182.04296875 313.749023438 182.04296875 318.109375 213.200195312 c 1,129,130
 342.936523438 334.578125 342.936523438 334.578125 271.6328125 403.944335938 c 0,131,132
 264.724609375 410.358398438 264.724609375 410.358398438 259.069335938 414.919921875 c 0,131,132
 219.651367188 446.454101562 219.651367188 446.454101562 193.46875 444.440429688 c 0,117,118
140.989257812 834.759765625 m 1,0,1
 112.360351562 863.388671875 112.360351562 863.388671875 111.30078125 865.059570312 c 0,2,3
 109.213867188 868.786132812 109.213867188 868.786132812 108.189453125 870.83984375 c 0,2,3
 101.24609375 885.225585938 101.24609375 885.225585938 101.62890625 929.879882812 c 0,4,5
 103.168945312 1005.91308594 103.168945312 1005.91308594 178.708984375 1070.91992188 c 0,6,7
 223.547851562 1107.74804688 223.547851562 1107.74804688 252.508789062 1115.20019531 c 0,8,9
 262.6796875 1117.1015625 262.6796875 1117.1015625 298.428710938 1116.83984375 c 0,10,11
 338.3359375 1116.17578125 338.3359375 1116.17578125 357.46875 1108.63964844 c 1,12,13
 386.127929688 1083.07324219 386.127929688 1083.07324219 385.349609375 1036.48046875 c 0,14,15
 384.077148438 1007.29394531 384.077148438 1007.29394531 377.149414062 1000.40039062 c 0,16,17
 365.439453125 990.642578125 365.439453125 990.642578125 317.841796875 992.684570312 c 0,18,19
 307.565429688 992.86328125 307.565429688 992.86328125 301.708984375 992.200195312 c 0,18,19
 281.409179688 987.618164062 281.409179688 987.618164062 250.869140625 961.040039062 c 1,20,21
 227.30078125 934.366210938 227.30078125 934.366210938 226.26953125 929.879882812 c 1,22,23
 230.766601562 910.112304688 230.766601562 910.112304688 288.588867188 903.639648438 c 0,24,25
 308.889648438 901.794921875 308.889648438 901.794921875 367.168945312 923.21484375 c 0,26,27
 379.883789062 927.681640625 379.883789062 927.681640625 388.62890625 929.879882812 c 0,26,27
 397.051757812 931.844726562 397.051757812 931.844726562 426.349609375 931.51953125 c 1,28,29
 467.680664062 928.288085938 467.680664062 928.288085938 477.189453125 916.759765625 c 1,30,31
 484.821289062 901.560546875 484.821289062 901.560546875 483.749023438 854.440429688 c 0,32,33
 482.73046875 830.791992188 482.73046875 830.791992188 478.829101562 824.919921875 c 1,34,35
 469.935546875 818.58203125 469.935546875 818.58203125 449.309570312 811.799804688 c 2,36,-1
 385.349609375 787.200195312 l 2,37,38
 364.029296875 779 364.029296875 779 320.569335938 762.599609375 c 0,39,40
 276.58984375 745.9921875 276.58984375 745.9921875 255.7890625 738 c 0,39,40
 164.513671875 701.490234375 164.513671875 701.490234375 117.150390625 706.91015625 c 0,41,42
 111.016601562 707.71484375 111.016601562 707.71484375 106.548828125 708.48046875 c 0,41,42
 73.7490234375 715.040039062 73.7490234375 715.040039062 76.8857421875 778.236328125 c 2,43,-1
 77.029296875 780.639648438 l 2,43,44
 78.2919921875 805.084960938 78.2919921875 805.084960938 81.94921875 810.16015625 c 0,45,46
 94.4052734375 825.181640625 94.4052734375 825.181640625 140.989257812 834.759765625 c 1,0,1
332.869140625 1046.3203125 m 1,47,48
 301.646484375 1090.68847656 301.646484375 1090.68847656 237.616210938 1038.08789062 c 0,49,50
 223.884765625 1026.26855469 223.884765625 1026.26855469 214.7890625 1015.16015625 c 1,49,50
 256.552734375 1040.21777344 256.552734375 1040.21777344 260.036132812 1041.30371094 c 0,51,52
 264.513671875 1042.48632812 264.513671875 1042.48632812 267.26953125 1043.04003906 c 0,51,52
 276.052734375 1044.39160156 276.052734375 1044.39160156 294.716796875 1043.19824219 c 0,53,54
 321.657226562 1042.16210938 321.657226562 1042.16210938 332.869140625 1046.3203125 c 1,47,48
170.508789062 962.6796875 m 1,53,54
 141.23828125 935.848632812 141.23828125 935.848632812 159.125 908.676757812 c 0,55,56
 164.178710938 902.493164062 164.178710938 902.493164062 168.869140625 898.719726562 c 1,55,-1
 170.508789062 962.6796875 l 1,53,54
431.26953125 869.200195312 m 1,56,57
 422.711914062 882.646484375 422.711914062 882.646484375 385.110351562 866.334960938 c 0,58,59
 378.59765625 863.682617188 378.59765625 863.682617188 375.508789062 862.639648438 c 0,58,59
 353.522460938 855.604492188 353.522460938 855.604492188 275.153320312 856.749023438 c 0,60,61
 259.685546875 856.828125 259.685546875 856.828125 249.229492188 856.080078125 c 0,60,61
 244.85546875 855.58984375 244.85546875 855.58984375 214.7890625 846.240234375 c 1,62,63
 222.063476562 838.803710938 222.063476562 838.803710938 247.588867188 834.759765625 c 1,64,-1
 247.588867188 833.120117188 l 1,65,-1
 214.7890625 823.280273438 l 1,66,67
 222.063476562 815.84375 222.063476562 815.84375 247.588867188 811.799804688 c 1,68,-1
 247.588867188 810.16015625 l 1,69,70
 217.235351562 804.520507812 217.235351562 804.520507812 131.149414062 769.16015625 c 1,71,72
 138.978515625 752.196289062 138.978515625 752.196289062 199.885742188 780.075195312 c 0,73,74
 203.448242188 781.640625 203.448242188 781.640625 204.94921875 782.280273438 c 0,73,74
 235.125 794.087890625 235.125 794.087890625 295.477539062 816.654296875 c 0,75,76
 386.004882812 850.50390625 386.004882812 850.50390625 431.26953125 869.200195312 c 1,56,57
EndSplineSet
EndChar

